<?xml version="1.0" standalone="no"?>
<!DOCTYPE svg PUBLIC "-//W3C//DTD SVG 20010904//EN"
 "http://www.w3.org/TR/2001/REC-SVG-20010904/DTD/svg10.dtd">
<svg version="1.0" xmlns="http://www.w3.org/2000/svg"
 width="760.000000pt" height="760.000000pt" viewBox="0 0 760.000000 760.000000"
 preserveAspectRatio="xMidYMid meet">
<metadata>
Created by potrace 1.13, written by Peter Selinger 2001-2015
</metadata>
<g transform="translate(0.000000,760.000000) scale(0.100000,-0.100000)"
fill="#000000" stroke="none">
<path d="M695 7401 c-22 -5 -30 -9 -18 -10 38 -2 196 -62 276 -104 317 -168
592 -519 735 -937 85 -249 116 -445 116 -735 0 -290 -31 -486 -116 -735 -126
-370 -326 -648 -628 -873 -216 -162 -330 -281 -463 -482 -404 -613 -483 -1515
-196 -2238 200 -502 548 -867 969 -1015 143 -50 377 -81 505 -66 l60 7 -52 13
c-426 109 -800 504 -981 1034 -85 249 -116 445 -116 735 0 368 63 657 210 965
124 258 330 505 542 649 294 199 492 461 653 863 170 427 215 943 123 1420
-153 791 -661 1385 -1277 1492 -106 19 -287 27 -342 17z"/>
<path d="M3195 7401 c-22 -5 -30 -9 -18 -10 38 -2 196 -62 276 -104 317 -168
592 -519 735 -937 85 -249 116 -445 116 -735 0 -290 -31 -486 -116 -735 -126
-370 -326 -648 -628 -873 -216 -162 -330 -281 -463 -482 -404 -613 -483 -1515
-196 -2238 200 -502 548 -867 969 -1015 143 -50 377 -81 505 -66 l60 7 -52 13
c-426 109 -800 504 -981 1034 -85 249 -116 445 -116 735 0 368 63 657 210 965
124 258 330 505 542 649 294 199 492 461 653 863 170 427 215 943 123 1420
-153 791 -661 1385 -1277 1492 -106 19 -287 27 -342 17z"/>
<path d="M5695 7401 c-22 -5 -30 -9 -18 -10 38 -2 196 -62 276 -104 317 -168
592 -519 735 -937 85 -249 116 -445 116 -735 0 -290 -31 -486 -116 -735 -126
-370 -326 -648 -628 -873 -216 -162 -330 -281 -463 -482 -404 -613 -483 -1515
-196 -2238 200 -502 548 -867 969 -1015 143 -50 377 -81 505 -66 l60 7 -52 13
c-426 109 -800 504 -981 1034 -85 249 -116 445 -116 735 0 368 63 657 210 965
124 258 330 505 542 649 294 199 492 461 653 863 170 427 215 943 123 1420
-153 791 -661 1385 -1277 1492 -106 19 -287 27 -342 17z"/>
</g>
</svg>
