<?xml version="1.0" standalone="no"?>
<!DOCTYPE svg PUBLIC "-//W3C//DTD SVG 20010904//EN"
 "http://www.w3.org/TR/2001/REC-SVG-20010904/DTD/svg10.dtd">
<svg version="1.0" xmlns="http://www.w3.org/2000/svg"
 width="100.000000pt" height="100.000000pt" viewBox="0 0 100.000000 100.000000"
 preserveAspectRatio="xMidYMid meet">
<metadata>
Created by potrace 1.10, written by Peter Selinger 2001-2011
</metadata>
<g transform="translate(0.000000,100.000000) scale(0.100000,-0.100000)"
fill="#000000" stroke="none">
<path d="M40 490 l0 -480 475 0 475 0 0 480 0 480 -475 0 -475 0 0 -480z m940
0 l0 -470 -465 0 -465 0 0 470 0 470 465 0 465 0 0 -470z"/>
<path d="M200 500 l0 -310 305 0 305 0 0 310 0 310 -305 0 -305 0 0 -310z
m600 0 l0 -300 -295 0 -295 0 0 300 0 300 295 0 295 0 0 -300z"/>
<path d="M420 525 l0 -195 155 0 155 0 0 195 0 195 -155 0 -155 0 0 -195z
m300 0 l0 -185 -145 0 -145 0 0 185 0 185 145 0 145 0 0 -185z"/>
<path d="M457 666 c-6 -15 1 -26 15 -26 11 0 10 27 -1 34 -5 3 -11 0 -14 -8z"/>
<path d="M681 604 c6 -7 16 -11 21 -8 11 7 3 17 -18 20 -12 2 -13 -1 -3 -12z"/>
<path d="M455 570 c-8 -13 4 -32 16 -25 12 8 12 35 0 35 -6 0 -13 -4 -16 -10z"/>
<path d="M450 447 c0 -7 9 -13 20 -14 11 -1 20 4 20 13 0 8 -9 14 -20 14 -11
0 -20 -6 -20 -13z"/>
<path d="M686 373 c-11 -11 -6 -23 9 -23 8 0 15 4 15 9 0 13 -16 22 -24 14z"/>
<path d="M284 695 c-8 -21 4 -35 30 -35 31 0 50 22 34 38 -17 17 -58 15 -64
-3z m56 -10 c0 -16 -35 -21 -44 -6 -8 12 4 21 26 21 10 0 18 -7 18 -15z"/>
<path d="M287 583 c-15 -14 -6 -33 18 -39 32 -8 60 13 44 32 -12 15 -51 19
-62 7z m53 -18 c0 -16 -35 -21 -44 -6 -8 12 4 21 26 21 10 0 18 -7 18 -15z"/>
<path d="M290 465 c-15 -18 2 -45 30 -45 29 0 43 25 25 44 -20 20 -39 20 -55
1z m48 -17 c-6 -17 -40 -17 -45 0 -3 7 5 12 22 12 17 0 25 -5 23 -12z"/>
<path d="M305 340 c-4 -6 -3 -15 0 -21 4 -6 -1 -16 -11 -24 -15 -11 -16 -15
-5 -29 17 -20 45 -21 60 -2 10 11 6 20 -16 41 -17 16 -21 23 -10 19 9 -3 17
-2 17 4 0 14 -28 23 -35 12z m35 -61 c0 -16 -31 -22 -43 -10 -9 9 -9 14 2 20
16 10 41 4 41 -10z"/>
<path d="M777 112 c-23 -25 -21 -59 2 -72 32 -17 157 -13 175 6 22 22 20 50
-6 68 -33 24 -150 22 -171 -2z m127 -13 c-3 -5 -10 -6 -16 -3 -6 4 -6 -2 1
-15 9 -16 9 -20 -2 -15 -16 6 -18 36 -3 46 13 9 28 0 20 -13z m51 -10 c12 -36
-12 -49 -90 -49 -76 0 -100 12 -93 46 2 11 16 18 46 20 40 4 42 3 42 -24 0
-26 3 -28 40 -30 48 -3 62 18 34 49 -15 17 -16 19 -1 14 9 -4 19 -16 22 -26z
m-17 -12 c2 -10 -3 -17 -12 -17 -18 0 -29 16 -21 31 9 14 29 6 33 -14z"/>
<path d="M782 79 c2 -19 10 -25 38 -27 19 -1 30 1 24 5 -7 4 -14 17 -17 28 -4
18 -5 18 -6 -2 -1 -15 -7 -23 -18 -23 -12 0 -14 3 -7 8 9 5 8 11 -3 21 -13 12
-14 10 -11 -10z"/>
</g>
</svg>
