<?xml version="1.0" standalone="no"?>
<!DOCTYPE svg PUBLIC "-//W3C//DTD SVG 20010904//EN"
 "http://www.w3.org/TR/2001/REC-SVG-20010904/DTD/svg10.dtd">
<svg version="1.0" xmlns="http://www.w3.org/2000/svg"
 width="335.000000pt" height="392.000000pt" viewBox="0 0 335.000000 392.000000"
 preserveAspectRatio="xMidYMid meet">

<g transform="translate(0.000000,392.000000) scale(0.100000,-0.100000)"
fill="#000000" stroke="none">
<path d="M1096 3342 l-740 -428 -98 -170 -98 -169 3 -950 2 -949 189 -119
c185 -116 771 -437 798 -437 23 0 78 39 89 63 12 28 104 81 125 73 19 -7 53
10 79 40 26 30 829 494 856 494 30 0 59 18 69 44 11 30 93 76 136 76 21 0 38
7 46 19 8 10 24 21 37 23 14 1 31 15 40 31 20 35 93 77 135 77 32 0 76 30 76
51 0 6 7 8 16 5 27 -10 52 12 89 78 l35 63 0 221 0 220 -34 64 c-18 35 -44 81
-57 103 l-24 40 -2 615 c-1 338 -3 627 -3 641 0 24 -25 43 -217 167 -120 77
-254 161 -298 188 -98 58 -483 254 -499 254 -6 0 -344 -193 -750 -428z m939
326 c102 -51 184 -97 182 -102 -2 -5 -329 -197 -727 -428 -399 -230 -733 -428
-742 -439 -10 -11 -54 -84 -99 -162 -44 -78 -89 -154 -100 -169 -18 -26 -19
-63 -19 -964 0 -516 -1 -938 -3 -939 -3 -3 -291 177 -330 206 l-27 20 2 942 3
942 90 159 c50 87 101 167 115 178 31 22 1452 846 1462 847 5 1 91 -41 193
-91z m325 -174 c180 -104 267 -166 250 -176 -8 -5 -323 -187 -700 -404 -377
-218 -698 -405 -714 -416 l-28 -20 -134 68 c-109 57 -136 67 -151 58 -23 -15
-192 -303 -192 -330 -1 -27 13 -39 137 -117 l103 -64 -1 -610 c0 -381 3 -627
9 -656 6 -24 33 -83 61 -129 l50 -84 -2 -216 -3 -216 -236 126 c-130 70 -243
133 -253 141 -15 12 -16 92 -16 942 0 618 3 930 10 934 6 4 8 10 6 14 -9 13
191 346 206 345 9 -1 15 5 14 14 -1 9 254 163 729 438 402 232 732 423 735
423 3 1 57 -29 120 -65z m278 -221 c2 -16 -3 -35 -10 -41 -7 -6 -321 -188
-696 -405 l-683 -395 -35 20 c-20 11 -32 24 -27 29 19 19 1429 828 1438 826 6
-2 11 -17 13 -34z m155 -55 c51 -34 57 -43 57 -73 0 -19 -5 -37 -10 -40 -12
-7 -194 95 -192 108 1 4 2 27 2 52 l0 45 43 -26 c23 -15 68 -45 100 -66z m-59
-77 c49 -29 95 -50 102 -47 11 4 14 -96 16 -592 l3 -597 55 -95 55 -95 3 -230
3 -230 -34 -55 c-21 -35 -40 -54 -50 -52 -9 1 -31 -13 -50 -32 -24 -23 -41
-33 -54 -30 -21 6 -136 -58 -156 -86 -7 -9 -25 -20 -41 -24 -16 -4 -30 -15
-33 -26 -4 -15 -11 -18 -27 -14 -27 6 -140 -58 -163 -93 -8 -13 -24 -23 -34
-23 -27 0 -881 -497 -906 -528 -18 -22 -24 -24 -32 -13 -8 12 -22 7 -81 -28
-39 -23 -76 -53 -82 -67 -13 -29 -15 -29 -56 -4 l-33 20 1 220 1 220 -55 98
-56 98 0 601 c0 570 1 602 19 624 23 30 162 270 187 323 18 38 55 61 704 436
505 292 688 393 695 384 6 -6 50 -35 99 -63z m-1664 -624 c133 -70 155 -86
157 -107 4 -36 -177 -344 -204 -348 -26 -4 -317 179 -321 202 -4 17 162 315
182 328 19 13 27 10 186 -75z m-50 -1080 l0 -608 55 -95 55 -96 0 -223 c0
-170 -3 -225 -12 -228 -7 -2 -6 -3 4 -2 9 2 28 -5 42 -14 20 -13 23 -20 14
-29 -7 -7 -19 -12 -28 -12 -17 0 -81 40 -65 40 6 0 2 5 -7 11 -16 9 -18 31
-18 225 l0 216 -55 91 -55 90 0 639 0 638 35 -18 35 -17 0 -608z"/>
<path d="M1291 1795 c-16 -19 -35 -53 -42 -74 -10 -34 -9 -44 5 -66 53 -81
178 61 140 159 -4 10 -18 16 -39 16 -25 0 -40 -8 -64 -35z m97 -14 c4 -44 -14
-85 -50 -116 -38 -32 -66 -32 -78 1 -12 31 -4 50 15 34 11 -9 20 -6 40 14 28
28 34 76 10 76 -18 0 -20 16 -2 24 6 2 23 4 37 3 21 -2 26 -8 28 -36z m-58
-17 c0 -24 -19 -54 -35 -54 -17 0 -19 23 -5 51 13 23 40 25 40 3z"/>
<path d="M1335 1615 c-37 -15 -70 -50 -84 -88 -7 -17 -11 -118 -11 -252 0
-190 2 -226 16 -239 8 -9 20 -16 25 -16 19 0 64 28 89 55 l25 27 3 253 c3 237
2 254 -15 263 -12 7 -28 6 -48 -3z m55 -254 c0 -218 -2 -238 -20 -269 -11 -18
-36 -40 -56 -49 -61 -30 -64 -17 -62 246 1 124 4 189 5 144 3 -73 6 -83 23
-83 10 0 32 12 49 26 30 25 31 28 31 115 0 72 -3 91 -16 96 -8 3 -20 1 -27 -6
-14 -14 -30 -14 -21 0 3 6 20 17 38 24 55 23 56 17 56 -244z m-40 128 c0 -74
-2 -82 -26 -104 -46 -43 -54 -35 -54 58 0 52 5 89 13 99 15 20 49 38 59 32 5
-3 8 -41 8 -85z"/>
<path d="M1305 1298 c-38 -21 -45 -39 -45 -129 0 -48 4 -91 10 -94 13 -8 67
22 80 44 5 11 10 58 10 105 0 92 -6 101 -55 74z m45 -82 c0 -64 -4 -88 -16
-100 -22 -22 -50 -36 -58 -29 -3 3 -6 44 -6 89 0 77 2 84 26 103 48 37 54 30
54 -63z"/>
<path d="M2404 1374 c-18 -14 -18 -15 4 -4 12 6 22 13 22 15 0 8 -5 6 -26 -11z"/>
<path d="M2724 1376 c-64 -28 -134 -142 -134 -217 0 -109 93 -129 175 -38 76
85 99 196 50 244 -27 28 -46 30 -91 11z m87 -17 c43 -43 11 -167 -62 -240 -20
-20 -52 -40 -70 -44 -28 -6 -36 -4 -56 19 -32 38 -30 89 7 163 32 65 49 83 95
107 40 21 61 20 86 -5z"/>
<path d="M1884 1324 c-18 -14 -18 -15 4 -4 12 6 22 13 22 15 0 8 -5 6 -26 -11z"/>
<path d="M2214 1264 c-18 -14 -18 -15 4 -4 12 6 22 13 22 15 0 8 -5 6 -26 -11z"/>
<path d="M2144 1224 c-18 -14 -18 -15 4 -4 12 6 22 13 22 15 0 8 -5 6 -26 -11z"/>
<path d="M2465 1226 c-104 -45 -173 -229 -110 -291 28 -29 43 -30 88 -11 105
43 176 228 112 291 -27 28 -46 30 -90 11z m71 -4 c42 -28 44 -100 3 -181 -33
-66 -77 -107 -126 -117 -58 -11 -90 64 -61 147 33 98 136 183 184 151z"/>
<path d="M1624 1174 c-18 -14 -18 -15 4 -4 12 6 22 13 22 15 0 8 -5 6 -26 -11z"/>
<path d="M1954 1114 c-18 -14 -18 -15 4 -4 12 6 22 13 22 15 0 8 -5 6 -26 -11z"/>
<path d="M1434 1064 c-18 -14 -18 -15 4 -4 12 6 22 13 22 15 0 8 -5 6 -26 -11z"/>
<path d="M1364 1024 c-18 -14 -18 -15 4 -4 12 6 22 13 22 15 0 8 -5 6 -26 -11z"/>
<path d="M1764 1004 c-18 -14 -18 -15 4 -4 12 6 22 13 22 15 0 8 -5 6 -26 -11z"/>
<path d="M1294 984 c-18 -14 -18 -15 4 -4 12 6 22 13 22 15 0 8 -5 6 -26 -11z"/>
<path d="M1694 964 c-18 -14 -18 -15 4 -4 12 6 22 13 22 15 0 8 -5 6 -26 -11z"/>
<path d="M1244 954 c-18 -14 -18 -15 4 -4 12 6 22 13 22 15 0 8 -5 6 -26 -11z"/>
<path d="M1174 914 c-18 -14 -18 -15 4 -4 12 6 22 13 22 15 0 8 -5 6 -26 -11z"/>
<path d="M1574 894 c-18 -14 -18 -15 4 -4 12 6 22 13 22 15 0 8 -5 6 -26 -11z"/>
<path d="M1104 874 c-18 -14 -18 -15 4 -4 12 6 22 13 22 15 0 8 -5 6 -26 -11z"/>
<path d="M1504 854 c-18 -14 -18 -15 4 -4 12 6 22 13 22 15 0 8 -5 6 -26 -11z"/>
<path d="M1434 814 c-18 -14 -18 -15 4 -4 12 6 22 13 22 15 0 8 -5 6 -26 -11z"/>
<path d="M1384 784 c-18 -14 -18 -15 4 -4 12 6 22 13 22 15 0 8 -5 6 -26 -11z"/>
<path d="M1314 744 c-18 -14 -18 -15 4 -4 12 6 22 13 22 15 0 8 -5 6 -26 -11z"/>
<path d="M1244 704 c-18 -14 -18 -15 4 -4 12 6 22 13 22 15 0 8 -5 6 -26 -11z"/>
<path d="M1174 664 c-18 -14 -18 -15 4 -4 12 6 22 13 22 15 0 8 -5 6 -26 -11z"/>
<path d="M1314 561 c-66 -40 -114 -129 -114 -211 0 -68 25 -95 84 -87 76 10
166 136 166 232 0 74 -69 107 -136 66z m105 -5 c64 -77 -46 -286 -151 -286
-57 0 -77 91 -37 175 30 64 100 125 143 125 18 0 39 -6 45 -14z"/>
<path d="M958 2416 c-32 -55 -74 -130 -94 -166 -20 -36 -30 -58 -22 -50 22 22
180 300 176 309 -2 5 -29 -37 -60 -93z"/>
<path d="M978 823 c6 -2 18 -2 25 0 6 3 1 5 -13 5 -14 0 -19 -2 -12 -5z"/>
</g>
</svg>
