<?xml version="1.0" standalone="no"?>
<!DOCTYPE svg PUBLIC "-//W3C//DTD SVG 20010904//EN"
 "http://www.w3.org/TR/2001/REC-SVG-20010904/DTD/svg10.dtd">
<svg version="1.0" xmlns="http://www.w3.org/2000/svg"
 width="282.000000pt" height="280.000000pt" viewBox="0 0 282.000000 280.000000"
 preserveAspectRatio="xMidYMid meet">

<g transform="translate(0.000000,280.000000) scale(0.100000,-0.100000)"
fill="#000000" stroke="none">
<path d="M611 2627 c-12 -24 -21 -54 -21 -68 1 -31 36 -109 50 -109 14 0 13 5
-10 42 -25 42 -25 94 0 136 22 37 24 42 11 42 -5 0 -19 -19 -30 -43z"/>
<path d="M840 2660 c0 -6 7 -22 16 -36 22 -32 21 -91 0 -133 -23 -44 -12 -52
13 -10 27 44 27 113 1 157 -20 33 -30 40 -30 22z"/>
<path d="M644 2605 c-7 -19 -14 -41 -14 -50 0 -22 28 -75 40 -75 14 0 12 12
-5 34 -8 11 -15 32 -15 46 0 14 7 35 15 46 17 23 19 34 4 34 -5 0 -17 -16 -25
-35z"/>
<path d="M810 2639 c0 -4 7 -23 15 -43 14 -32 14 -40 0 -72 -20 -48 -19 -54 5
-25 12 14 20 38 20 61 0 23 -8 47 -20 61 -10 13 -19 21 -20 18z"/>
<path d="M723 2613 c34 -5 33 -10 -3 -52 -16 -19 -27 -38 -24 -43 7 -11 82
-10 89 2 4 6 -9 10 -30 10 l-37 0 31 35 c17 20 31 40 31 45 0 6 -19 9 -42 9
-30 -2 -35 -3 -15 -6z"/>
<path d="M410 2601 c0 -5 15 -14 33 -20 62 -21 117 -102 117 -171 0 -16 5 -30
10 -30 13 0 13 59 -1 101 -7 19 -26 49 -43 68 -40 43 -116 77 -116 52z"/>
<path d="M400 2542 c0 -4 13 -13 30 -19 34 -13 70 -66 70 -105 0 -16 5 -28 11
-28 8 0 10 16 6 47 -4 38 -12 54 -41 80 -33 30 -76 44 -76 25z"/>
<path d="M165 2467 c-37 -31 -29 -63 13 -52 75 18 86 17 112 -11 l25 -28 -27
17 c-33 20 -47 5 -16 -17 12 -9 17 -16 11 -16 -6 0 -16 7 -23 15 -12 15 -40
21 -40 9 0 -3 10 -15 23 -26 l22 -20 -27 16 c-38 22 -55 20 -33 -4 25 -27 7
-25 -37 5 -20 14 -48 25 -62 25 -27 0 -30 8 -20 48 4 15 14 22 30 22 13 0 24
5 24 10 0 6 -14 10 -30 10 -32 0 -40 -11 -55 -77 -6 -33 -6 -33 30 -33 21 0
55 -11 80 -26 42 -24 47 -25 99 -13 40 9 57 18 67 36 13 23 11 27 -25 60 -32
30 -43 34 -74 31 -21 -3 -46 -8 -57 -12 -16 -6 -15 -4 5 14 26 24 26 24 181 2
l45 -7 -8 -32 c-5 -18 -15 -33 -23 -33 -7 0 -17 -4 -20 -10 -4 -6 6 -10 22
-10 26 0 30 5 41 45 7 25 12 49 12 54 0 5 -30 12 -67 15 -38 4 -91 9 -119 12
-44 5 -55 2 -79 -19z"/>
<path d="M1373 2133 c-7 -2 -13 -9 -13 -15 0 -6 6 -5 15 2 13 10 18 11 28 1 9
-10 8 -15 -6 -25 -15 -12 -16 -14 -2 -20 8 -3 15 -12 15 -21 0 -19 -32 -33
-38 -17 -2 7 -8 12 -14 12 -6 0 -6 -6 2 -15 26 -32 81 -4 65 32 -5 10 -7 26
-6 37 4 26 -19 40 -46 29z"/>
<path d="M1792 2128 c-19 -19 -15 -97 4 -105 25 -10 49 11 52 45 6 55 -27 89
-56 60z m48 -52 c0 -31 -16 -50 -34 -43 -19 8 -22 67 -4 85 10 10 15 9 25 -5
7 -9 13 -26 13 -37z"/>
<path d="M1927 2133 c-4 -3 -7 -17 -7 -30 0 -18 5 -23 25 -23 18 0 25 -5 25
-20 0 -23 -31 -41 -38 -22 -2 7 -8 12 -14 12 -6 0 -6 -6 2 -15 24 -29 70 -11
70 27 0 20 -35 42 -52 32 -6 -4 -9 -1 -6 7 3 8 14 15 26 17 12 2 22 8 22 13 0
10 -43 12 -53 2z"/>
<path d="M1500 2102 c0 -6 5 -14 10 -17 8 -5 8 -11 1 -19 -8 -10 -4 -13 19
-13 23 0 27 3 19 13 -7 8 -7 14 1 19 5 3 10 11 10 17 0 7 -6 6 -15 -2 -12 -10
-18 -10 -30 0 -9 8 -15 9 -15 2z"/>
<path d="M1657 2094 c-33 -18 -33 -18 16 -39 43 -18 50 -12 10 8 l-27 14 30
16 c16 9 22 16 14 16 -8 0 -28 -7 -43 -15z"/>
<path d="M2063 2103 c-22 -8 -14 -33 12 -43 26 -10 34 -30 12 -30 -7 0 -19 6
-26 13 -11 10 -13 9 -9 -3 6 -19 48 -26 59 -9 10 17 2 28 -29 40 -21 8 -23 12
-12 19 9 5 19 5 27 -2 9 -7 13 -7 13 0 0 8 -26 25 -33 21 -1 0 -8 -3 -14 -6z"/>
<path d="M858 2043 c6 -2 18 -2 25 0 6 3 1 5 -13 5 -14 0 -19 -2 -12 -5z"/>
<path d="M1875 2020 c3 -5 8 -10 11 -10 2 0 4 5 4 10 0 6 -5 10 -11 10 -5 0
-7 -4 -4 -10z"/>
<path d="M1028 2013 c7 -3 16 -2 19 1 4 3 -2 6 -13 5 -11 0 -14 -3 -6 -6z"/>
<path d="M378 1923 c7 -3 16 -2 19 1 4 3 -2 6 -13 5 -11 0 -14 -3 -6 -6z"/>
<path d="M430 1916 c0 -2 9 -6 20 -9 11 -3 18 -1 14 4 -5 9 -34 13 -34 5z"/>
<path d="M2167 1899 c-49 -38 -26 -109 36 -109 33 0 70 45 61 74 -15 49 -59
65 -97 35z"/>
<path d="M285 1865 c-19 -32 -24 -49 -17 -61 8 -13 10 -11 15 12 3 16 17 42
30 59 22 27 26 28 43 15 18 -14 18 -14 5 3 -23 29 -48 20 -76 -28z"/>
<path d="M303 1793 c0 -7 4 -13 8 -13 4 0 9 6 12 13 3 8 0 14 -7 14 -7 0 -13
-6 -13 -14z"/>
<path d="M2190 1715 c0 -25 5 -45 10 -45 6 0 10 20 10 45 0 25 -4 45 -10 45
-5 0 -10 -20 -10 -45z"/>
<path d="M1890 1679 c0 -5 5 -7 10 -4 6 3 10 8 10 11 0 2 -4 4 -10 4 -5 0 -10
-5 -10 -11z"/>
<path d="M1792 1640 c0 -14 2 -19 5 -12 2 6 2 18 0 25 -3 6 -5 1 -5 -13z"/>
<path d="M1890 1600 c0 -5 5 -10 11 -10 5 0 7 5 4 10 -3 6 -8 10 -11 10 -2 0
-4 -4 -4 -10z"/>
<path d="M485 1556 c-12 -18 -14 -30 -7 -42 11 -20 43 -28 39 -11 -1 7 3 11 9
10 6 -1 11 12 10 30 -1 41 -29 48 -51 13z m32 -30 c-4 -9 -11 -16 -17 -16 -11
0 -14 33 -3 44 11 10 26 -11 20 -28z"/>
<path d="M480 1410 c0 -29 2 -51 4 -49 8 8 10 88 3 95 -4 4 -7 -17 -7 -46z"/>
<path d="M655 1430 c31 -8 112 -13 104 -6 -2 2 -33 6 -69 9 -41 3 -54 2 -35
-3z"/>
<path d="M830 1431 c0 -6 -15 -12 -32 -14 l-33 -4 33 -1 c24 -2 32 -7 32 -21
0 -15 -12 -20 -82 -29 l-83 -10 83 5 c56 3 82 2 82 -6 0 -8 87 -10 303 -9
l302 3 -295 5 -295 5 -3 37 -3 38 298 3 298 2 -302 3 c-184 1 -303 -2 -303 -7z"/>
<path d="M523 1423 c-18 -3 -23 -11 -23 -33 0 -27 2 -28 63 -35 34 -3 71 -8
82 -11 l20 -4 -20 9 c-11 6 -46 13 -77 16 -48 5 -58 10 -58 25 0 19 4 20 90
33 14 3 7 4 -15 4 -22 0 -50 -2 -62 -4z"/>
<path d="M483 1265 c0 -27 2 -38 4 -22 2 15 2 37 0 50 -2 12 -4 0 -4 -28z"/>
<path d="M1110 935 c-8 -9 -8 -15 -2 -15 12 0 26 19 19 26 -2 2 -10 -2 -17
-11z"/>
<path d="M1030 924 c0 -8 5 -12 10 -9 6 3 10 10 10 16 0 5 -4 9 -10 9 -5 0
-10 -7 -10 -16z"/>
<path d="M920 905 c-8 -9 -8 -15 -2 -15 12 0 26 19 19 26 -2 2 -10 -2 -17 -11z"/>
<path d="M828 903 c7 -3 16 -2 19 1 4 3 -2 6 -13 5 -11 0 -14 -3 -6 -6z"/>
<path d="M450 829 c0 -4 -8 -10 -17 -12 -15 -4 -15 -5 2 -6 11 0 28 6 39 14
18 13 18 14 -3 12 -11 -1 -21 -4 -21 -8z"/>
</g>
</svg>
