<?xml version="1.0" standalone="no"?>
<!DOCTYPE svg PUBLIC "-//W3C//DTD SVG 20010904//EN"
 "http://www.w3.org/TR/2001/REC-SVG-20010904/DTD/svg10.dtd">
<svg version="1.0" xmlns="http://www.w3.org/2000/svg"
 width="266.000000pt" height="228.000000pt" viewBox="0 0 266.000000 228.000000"
 preserveAspectRatio="xMidYMid meet">

<g transform="translate(0.000000,228.000000) scale(0.100000,-0.100000)"
fill="#000000" stroke="none">
<path d="M691 2179 c-27 -45 -27 -113 0 -158 28 -46 34 -34 9 20 -25 55 -25
63 1 116 26 53 18 69 -10 22z"/>
<path d="M910 2193 c0 -5 7 -17 15 -27 20 -26 19 -106 -1 -134 -8 -12 -14 -28
-12 -34 2 -6 12 2 22 17 27 41 32 105 11 149 -15 32 -36 49 -35 29z"/>
<path d="M726 2158 c-22 -31 -20 -91 4 -119 24 -30 25 -21 3 26 -16 33 -16 37
1 71 20 42 15 56 -8 22z"/>
<path d="M886 2165 c11 -26 11 -104 0 -130 -6 -17 -5 -17 13 4 13 15 21 37 21
61 0 24 -8 46 -21 61 -18 21 -19 21 -13 4z"/>
<path d="M793 2153 c33 -5 33 -8 2 -49 -35 -46 -32 -54 21 -54 27 0 43 4 39
10 -3 6 -17 10 -31 10 -31 0 -30 10 1 40 38 35 32 50 -17 49 -30 -2 -35 -3
-15 -6z"/>
<path d="M490 2142 c0 -5 18 -17 41 -27 59 -27 91 -74 97 -141 2 -30 9 -54 14
-54 6 0 9 24 6 59 -3 45 -11 68 -32 95 -35 46 -126 95 -126 68z"/>
<path d="M480 2082 c0 -4 14 -13 30 -21 37 -16 59 -46 63 -87 4 -35 21 -47 25
-18 5 36 -25 92 -60 114 -34 20 -58 26 -58 12z"/>
<path d="M252 2015 c-15 -11 -22 -25 -20 -38 3 -23 3 -23 78 -11 30 5 39 1 60
-23 21 -24 22 -25 2 -9 -29 25 -41 13 -16 -16 l19 -22 -28 18 c-36 22 -47 14
-21 -16 18 -21 17 -21 -15 2 l-34 24 5 -22 c7 -27 0 -27 -32 -2 -14 11 -40 20
-58 20 -30 0 -32 2 -26 28 9 38 13 42 35 42 10 0 19 5 19 10 0 6 -13 10 -30
10 -25 0 -30 -5 -39 -37 -18 -64 -15 -73 23 -73 18 0 53 -11 77 -24 39 -22 49
-24 89 -15 46 10 80 33 80 54 0 6 -15 25 -33 43 -35 34 -80 42 -118 22 -12 -7
-19 -7 -19 -1 0 21 43 33 94 26 28 -3 70 -9 94 -12 23 -3 42 -10 42 -17 0 -28
-14 -56 -26 -56 -8 0 -14 -4 -14 -10 0 -5 9 -10 20 -10 21 0 32 19 44 76 l7
32 -68 6 c-37 4 -90 9 -118 12 -37 4 -56 1 -73 -11z"/>
<path d="M1853 1863 c9 -2 23 -2 30 0 6 3 -1 5 -18 5 -16 0 -22 -2 -12 -5z"/>
<path d="M1791 1834 c-12 -15 -21 -40 -20 -58 1 -29 2 -28 9 8 4 22 18 48 30
58 12 10 18 18 12 18 -6 0 -20 -12 -31 -26z"/>
<path d="M1925 1840 c10 -11 20 -20 23 -20 3 0 -3 9 -13 20 -10 11 -20 20 -23
20 -3 0 3 -9 13 -20z"/>
<path d="M2343 1825 c-29 -20 -37 -59 -19 -94 35 -67 127 -50 142 26 12 62
-68 106 -123 68z"/>
<path d="M1855 1809 c-4 -6 -4 -13 -1 -16 3 -4 6 -1 6 6 0 7 5 9 12 5 7 -4 8
-3 4 4 -9 15 -13 15 -21 1z"/>
<path d="M1950 1776 c0 -18 -9 -46 -21 -62 l-21 -29 26 28 c18 19 26 39 26 63
0 19 -2 34 -5 34 -3 0 -5 -15 -5 -34z"/>
<path d="M1881 1778 c-1 -20 -31 -25 -31 -5 0 8 -4 7 -10 -3 -15 -23 -12 -28
15 -22 14 2 33 -2 42 -9 14 -13 15 -12 6 6 -6 11 -13 27 -16 35 -4 12 -6 11
-6 -2z"/>
<path d="M1813 1698 c11 -10 27 -18 36 -17 10 0 7 4 -8 10 -14 5 -30 13 -36
17 -6 4 -2 -1 8 -10z"/>
<path d="M1878 1683 c7 -3 16 -2 19 1 4 3 -2 6 -13 5 -11 0 -14 -3 -6 -6z"/>
<path d="M2380 1600 c0 -71 16 -80 22 -12 5 51 1 72 -13 72 -5 0 -9 -27 -9
-60z"/>
<path d="M822 1586 c-369 -47 -485 -65 -492 -76 -6 -9 -10 -219 -10 -505 l0
-491 40 -39 41 -40 267 34 c147 18 286 36 308 41 41 7 42 6 83 -46 22 -29 41
-61 41 -71 0 -10 5 -25 10 -33 7 -11 8 -5 4 20 -3 19 -14 46 -25 60 -63 84
-120 177 -140 227 -30 76 -33 201 -5 253 30 56 76 100 107 100 40 0 44 -16 8
-30 -31 -13 -60 -56 -58 -87 0 -10 5 -4 10 14 10 35 52 73 79 73 31 0 43 -26
38 -80 -10 -103 -116 -152 -119 -56 -1 18 -3 23 -6 13 -8 -30 5 -65 27 -72 22
-7 75 18 83 40 8 18 27 20 27 2 0 -7 13 -33 29 -58 15 -25 36 -68 45 -95 12
-38 34 -67 94 -126 48 -47 88 -97 106 -132 15 -32 30 -55 33 -52 13 13 -60
119 -128 186 -59 60 -81 89 -98 135 -12 32 -30 70 -40 84 -29 41 -33 67 -16
107 8 20 17 62 20 93 l5 56 -14 -65 c-7 -36 -18 -76 -24 -90 -9 -22 -11 -18
-11 33 -1 51 -5 62 -31 89 -27 26 -36 29 -68 24 -55 -9 -55 -9 -77 -1 -14 5
-16 4 -6 -3 11 -8 9 -14 -9 -32 -12 -12 -19 -28 -16 -35 3 -8 -2 -35 -11 -61
-29 -87 -4 -217 65 -327 13 -22 22 -40 20 -42 -2 -2 -139 -20 -306 -41 -260
-32 -305 -36 -313 -23 -5 8 -9 221 -8 507 0 441 -2 497 -16 519 -9 14 -15 26
-13 28 2 2 221 30 488 63 445 55 486 59 503 44 10 -8 16 -20 14 -26 -2 -6 3
-16 12 -23 11 -7 18 -34 22 -80 l6 -68 1 72 c2 71 1 74 -34 113 -20 22 -41 39
-48 39 -6 -1 -228 -29 -494 -63z m-462 -109 c13 -19 14 -87 10 -512 -5 -470
-6 -489 -22 -465 -17 22 -18 64 -18 512 0 269 3 488 8 488 4 0 14 -11 22 -23z
m608 -497 c-23 -32 -28 -35 -28 -20 0 8 39 50 47 50 2 0 -6 -13 -19 -30z"/>
<path d="M1283 1573 c9 -2 23 -2 30 0 6 3 -1 5 -18 5 -16 0 -22 -2 -12 -5z"/>
<path d="M1823 1570 c-44 -18 -57 -81 -24 -121 17 -21 28 -23 102 -25 59 0 74
1 49 7 -18 4 -40 15 -47 25 -19 26 -16 71 7 94 14 14 16 20 6 20 -7 0 -26 2
-42 5 -16 2 -39 0 -51 -5z m60 -6 c12 -4 13 -11 4 -35 -8 -21 -8 -37 0 -58 9
-24 8 -31 -4 -35 -27 -11 -44 -6 -68 19 -33 32 -32 68 1 94 28 22 42 25 67 15z"/>
<path d="M1948 1573 c6 -2 18 -2 25 0 6 3 1 5 -13 5 -14 0 -19 -2 -12 -5z"/>
<path d="M2027 1570 c-9 -6 -21 -9 -26 -6 -4 3 -8 -25 -8 -62 0 -74 -1 -73 72
-73 63 -1 65 1 42 33 -17 22 -19 33 -11 55 21 61 103 68 131 13 9 -17 13 -20
13 -8 0 28 -50 60 -85 54 -37 -8 -42 -8 -80 -1 -16 3 -38 0 -48 -5z m64 -25
c-2 -11 -3 -31 -3 -45 0 -14 1 -34 3 -45 3 -15 -2 -21 -23 -23 -60 -7 -95 88
-45 123 31 22 73 16 68 -10z"/>
<path d="M1203 1563 c9 -2 23 -2 30 0 6 3 -1 5 -18 5 -16 0 -22 -2 -12 -5z"/>
<path d="M1123 1553 c9 -2 23 -2 30 0 6 3 -1 5 -18 5 -16 0 -22 -2 -12 -5z"/>
<path d="M1043 1543 c9 -2 23 -2 30 0 6 3 -1 5 -18 5 -16 0 -22 -2 -12 -5z"/>
<path d="M963 1533 c9 -2 23 -2 30 0 6 3 -1 5 -18 5 -16 0 -22 -2 -12 -5z"/>
<path d="M883 1523 c9 -2 23 -2 30 0 6 3 -1 5 -18 5 -16 0 -22 -2 -12 -5z"/>
<path d="M803 1513 c9 -2 23 -2 30 0 6 3 -1 5 -18 5 -16 0 -22 -2 -12 -5z"/>
<path d="M723 1503 c9 -2 23 -2 30 0 6 3 -1 5 -18 5 -16 0 -22 -2 -12 -5z"/>
<path d="M643 1493 c9 -2 23 -2 30 0 6 3 -1 5 -18 5 -16 0 -22 -2 -12 -5z"/>
<path d="M1524 1483 c4 -9 1 -20 -6 -25 -10 -7 -9 -9 2 -5 8 2 15 10 15 18 0
8 7 17 15 21 11 5 8 7 -9 7 -18 1 -22 -3 -17 -16z"/>
<path d="M563 1483 c9 -2 23 -2 30 0 6 3 -1 5 -18 5 -16 0 -22 -2 -12 -5z"/>
<path d="M1588 1483 c7 -3 16 -2 19 1 4 3 -2 6 -13 5 -11 0 -14 -3 -6 -6z"/>
<path d="M483 1473 c9 -2 23 -2 30 0 6 3 -1 5 -18 5 -16 0 -22 -2 -12 -5z"/>
<path d="M1637 1472 c9 -6 1 -19 -28 -48 -27 -25 -43 -34 -46 -26 -3 6 -11 12
-19 12 -10 0 -8 -6 6 -20 l21 -21 44 48 c49 53 53 63 28 63 -13 0 -14 -3 -6
-8z"/>
<path d="M408 1463 c6 -2 18 -2 25 0 6 3 1 5 -13 5 -14 0 -19 -2 -12 -5z"/>
<path d="M2209 1443 c-13 -16 -12 -17 4 -4 9 7 17 15 17 17 0 8 -8 3 -21 -13z"/>
<path d="M2290 1444 c0 -8 5 -12 10 -9 6 4 8 11 5 16 -9 14 -15 11 -15 -7z"/>
<path d="M2335 1451 c-3 -5 -1 -12 5 -16 5 -3 10 1 10 9 0 18 -6 21 -15 7z"/>
<path d="M2376 1451 c-4 -5 -2 -12 3 -15 5 -4 12 -2 15 3 4 5 2 12 -3 15 -5 4
-12 2 -15 -3z"/>
<path d="M891 1384 c-184 -24 -341 -46 -348 -48 -10 -4 -13 -80 -13 -376 0
-321 2 -371 15 -376 14 -6 385 35 394 43 16 13 -28 11 -175 -7 -93 -11 -180
-22 -194 -23 l-25 -3 2 366 3 365 25 -3 c14 -2 25 1 25 7 0 6 14 7 35 4 23 -4
35 -2 35 6 0 8 13 9 40 5 27 -4 40 -3 40 5 0 8 13 9 40 5 27 -4 40 -3 40 5 0
8 13 9 40 5 27 -4 40 -3 40 5 0 8 13 9 40 5 27 -4 40 -3 40 5 0 8 13 9 40 5
27 -4 40 -3 40 5 0 8 13 9 40 5 26 -4 40 -3 40 5 0 15 91 2 108 -16 7 -7 19
-13 25 -13 8 0 8 3 2 8 -5 4 -15 16 -21 27 -6 11 -17 21 -25 22 -8 0 -164 -19
-348 -43z m363 27 c4 -5 -3 -7 -14 -4 -23 6 -26 13 -6 13 8 0 17 -4 20 -9z"/>
<path d="M2153 1423 c9 -2 23 -2 30 0 6 3 -1 5 -18 5 -16 0 -22 -2 -12 -5z"/>
<path d="M1252 1313 c-90 -30 -161 -57 -159 -59 2 -2 37 7 77 21 40 14 76 25
79 25 3 0 4 -141 1 -312 -3 -172 -4 -315 -2 -318 2 -2 7 2 13 10 5 9 8 141 7
321 l-3 307 83 26 c45 15 82 29 82 32 0 7 -10 4 -178 -53z"/>
<path d="M1026 1295 c-87 -30 -161 -57 -164 -59 -10 -11 9 -56 25 -56 15 0 15
2 -2 14 -10 7 -16 19 -13 27 3 8 78 38 167 67 88 29 161 55 161 58 0 7 -11 4
-174 -51z"/>
<path d="M1392 970 c-1 -206 -6 -380 -10 -386 -4 -6 -14 -14 -22 -17 -13 -4
-12 -6 1 -6 38 -2 39 16 36 405 l-2 379 -3 -375z"/>
<path d="M816 1231 c-3 -4 3 -16 14 -26 11 -10 20 -13 20 -7 0 6 -5 14 -10 17
-6 4 -8 11 -5 16 4 5 2 9 -4 9 -5 0 -12 -4 -15 -9z"/>
<path d="M1086 1203 c40 -35 62 -70 80 -125 13 -38 14 -39 9 -9 -7 49 -49 116
-88 141 l-32 22 31 -29z"/>
<path d="M746 1180 c-35 -31 -86 -121 -85 -149 0 -9 9 7 20 34 22 58 78 127
86 107 7 -18 33 -42 45 -42 6 0 8 3 5 6 -3 4 -2 15 4 26 7 14 7 23 -2 34 -17
21 -35 17 -73 -16z m69 10 c8 -13 -14 -42 -26 -34 -5 3 -9 14 -9 25 0 20 24
26 35 9z"/>
<path d="M836 1153 c-6 -14 -5 -15 5 -6 7 7 10 15 7 18 -3 3 -9 -2 -12 -12z"/>
<path d="M938 1113 c7 -3 16 -2 19 1 4 3 -2 6 -13 5 -11 0 -14 -3 -6 -6z"/>
<path d="M866 1089 c-14 -11 -31 -30 -37 -42 -6 -14 -2 -12 12 7 12 15 36 34
53 42 17 7 24 13 15 14 -9 0 -28 -9 -43 -21z"/>
<path d="M995 1099 c11 -6 31 -23 43 -38 20 -22 22 -22 13 -4 -12 24 -49 53
-66 53 -5 0 -1 -5 10 -11z"/>
<path d="M890 1015 c-7 -9 -11 -17 -9 -20 3 -2 10 5 17 15 14 24 10 26 -8 5z"/>
<path d="M653 965 c0 -27 2 -38 4 -22 2 15 2 37 0 50 -2 12 -4 0 -4 -28z"/>
<path d="M802 970 c0 -14 2 -19 5 -12 2 6 2 18 0 25 -3 6 -5 1 -5 -13z"/>
<path d="M880 963 c0 -5 10 -18 23 -29 l22 -19 -20 25 c-11 14 -21 27 -22 29
-2 2 -3 0 -3 -6z"/>
<path d="M810 927 c0 -22 61 -87 82 -87 7 0 -2 9 -20 20 -18 11 -39 35 -47 53
-9 20 -14 25 -15 14z"/>
<path d="M660 902 c0 -20 27 -80 51 -110 23 -30 96 -82 113 -82 6 1 -5 9 -24
20 -52 27 -98 80 -120 136 -10 27 -19 43 -20 36z"/>
<path d="M1095 745 c-14 -13 -25 -30 -25 -37 0 -7 6 -4 12 7 6 11 20 28 32 37
11 10 17 18 13 18 -4 0 -19 -11 -32 -25z"/>
<path d="M848 703 c6 -2 18 -2 25 0 6 3 1 5 -13 5 -14 0 -19 -2 -12 -5z"/>
<path d="M1135 695 c-16 -8 -23 -14 -14 -15 8 0 24 7 35 15 23 18 18 18 -21 0z"/>
<path d="M1507 304 c-4 -4 -7 -14 -7 -23 1 -14 2 -13 11 2 5 9 16 17 24 17 22
0 29 -22 11 -35 -14 -11 -15 -13 -1 -19 20 -7 19 -35 -1 -43 -11 -4 -22 1 -31
13 -14 19 -15 19 -11 -1 2 -13 12 -21 29 -23 31 -4 54 21 44 45 -4 10 -8 29
-9 43 -1 19 -7 26 -26 28 -14 2 -29 0 -33 -4z"/>
<path d="M1920 291 c-23 -44 -4 -101 34 -101 26 0 36 17 36 60 0 16 -3 35 -6
44 -9 22 -51 20 -64 -3z m54 -7 c16 -42 -7 -96 -34 -79 -11 7 -14 78 -3 88 11
12 31 7 37 -9z"/>
<path d="M2070 296 c0 -8 -3 -22 -6 -31 -5 -12 -2 -16 12 -15 35 4 44 0 44
-20 0 -26 -25 -36 -47 -19 -14 12 -16 12 -11 -1 7 -21 58 -19 72 3 14 22 -3
51 -33 55 -30 5 -26 30 7 35 25 4 25 4 -5 6 -23 1 -33 -4 -33 -13z"/>
<path d="M1640 273 c0 -5 5 -14 11 -20 9 -9 8 -18 -5 -37 -9 -15 -12 -26 -7
-26 6 0 15 8 21 18 10 16 10 16 20 0 6 -10 16 -18 22 -18 6 0 4 10 -5 24 -14
21 -14 26 -1 45 16 22 6 29 -14 9 -8 -8 -15 -8 -27 2 -8 7 -15 8 -15 3z"/>
<path d="M2207 273 c-15 -15 -5 -32 25 -42 25 -9 29 -14 20 -23 -10 -10 -17
-10 -33 1 -18 10 -20 10 -17 -1 3 -7 18 -13 34 -13 39 0 46 31 10 45 -35 13
-34 34 0 26 17 -5 23 -3 19 4 -7 11 -48 14 -58 3z"/>
<path d="M1803 255 c-18 -8 -33 -17 -33 -20 0 -8 71 -37 76 -32 3 2 -10 10
-27 17 l-31 13 33 18 c40 22 28 24 -18 4z"/>
</g>
</svg>
