<?xml version="1.0" standalone="no"?>
<!DOCTYPE svg PUBLIC "-//W3C//DTD SVG 20010904//EN"
 "http://www.w3.org/TR/2001/REC-SVG-20010904/DTD/svg10.dtd">
<svg version="1.0" xmlns="http://www.w3.org/2000/svg"
 width="100.000000pt" height="100.000000pt" viewBox="0 0 100.000000 100.000000"
 preserveAspectRatio="xMidYMid meet">
<metadata>
Created by potrace 1.10, written by Peter Selinger 2001-2011
</metadata>
<g transform="translate(0.000000,100.000000) scale(0.100000,-0.100000)"
fill="#000000" stroke="none">
<path d="M470 921 l0 -64 -27 36 c-32 41 -33 42 -58 23 -18 -13 -16 -17 33
-72 45 -50 52 -64 52 -98 l-1 -41 -20 27 c-17 23 -24 26 -40 18 -27 -15 -24
-25 21 -74 34 -37 40 -50 40 -89 l0 -45 -40 21 c-33 19 -43 32 -62 83 -18 49
-25 60 -40 56 -26 -6 -30 -16 -18 -47 6 -15 7 -25 3 -23 -57 28 -62 33 -89
103 -22 59 -31 71 -46 67 -27 -7 -29 -16 -13 -56 8 -19 15 -38 15 -41 0 -2
-22 9 -49 25 -57 35 -57 36 -71 11 -9 -17 -4 -23 40 -48 52 -29 49 -41 -13
-42 -25 -1 -27 -4 -21 -23 3 -13 8 -25 9 -26 2 -2 37 2 78 8 66 11 77 10 108
-6 l34 -18 -30 -6 c-24 -4 -31 -11 -33 -33 -3 -25 -1 -27 20 -22 84 20 113 20
150 0 21 -11 38 -22 38 -25 0 -3 -18 -13 -39 -24 -39 -18 -51 -18 -142 0 -22
4 -27 1 -31 -20 -4 -21 -1 -25 30 -31 l35 -6 -33 -21 c-32 -19 -37 -19 -111
-6 l-77 14 -5 -23 c-5 -30 -1 -33 45 -33 49 0 48 -12 -2 -35 -53 -24 -63 -37
-47 -59 12 -17 16 -16 65 13 29 17 52 28 52 25 0 -2 -7 -21 -15 -41 -8 -20
-14 -37 -13 -38 2 -1 12 -7 23 -13 19 -10 23 -5 48 61 22 56 36 77 62 95 39
25 40 24 23 -13 -10 -22 -9 -28 3 -36 27 -17 36 -9 57 49 18 46 29 61 62 80
l40 23 0 -46 c0 -41 -5 -51 -45 -94 l-45 -48 23 -16 c23 -15 25 -14 45 11 l21
27 0 -39 c1 -32 -7 -48 -50 -98 -49 -56 -51 -60 -33 -73 25 -19 25 -19 57 22
l27 36 0 -61 c0 -59 1 -62 25 -62 24 0 25 3 25 62 l0 63 27 -38 c29 -41 31
-42 57 -22 18 13 16 17 -33 72 -44 49 -51 63 -51 97 l0 41 23 -28 c22 -28 23
-28 40 -9 17 18 16 21 -23 64 -34 39 -40 53 -40 91 l0 45 40 -21 c33 -19 43
-32 61 -84 21 -57 24 -61 43 -51 29 15 29 14 16 38 -16 30 -8 34 28 13 24 -14
37 -34 57 -90 25 -69 28 -71 50 -61 24 11 23 25 -5 79 -14 26 -9 24 50 -12 28
-17 52 -30 53 -28 2 2 8 12 16 21 11 15 6 21 -46 50 l-58 33 48 3 c44 3 47 5
47 31 l0 27 -81 -13 c-76 -13 -82 -13 -111 5 l-31 20 32 7 c25 5 31 12 31 32
0 22 -3 24 -27 19 -92 -18 -105 -18 -144 -1 -21 10 -39 21 -39 24 0 3 17 15
38 26 33 18 43 19 99 9 67 -12 73 -10 73 17 0 12 -11 21 -32 27 l-33 9 34 17
c30 16 43 17 102 7 90 -15 89 -15 89 14 0 19 -5 25 -22 25 -13 0 -33 3 -46 6
-20 6 -17 9 25 31 63 33 65 36 49 58 -13 18 -16 17 -70 -14 -48 -26 -55 -29
-47 -12 29 54 30 68 6 79 -22 10 -24 7 -51 -62 -23 -61 -33 -76 -65 -94 -35
-20 -37 -25 -29 -47 9 -22 7 -25 -15 -25 -25 0 -31 13 -19 44 3 9 10 14 15 11
7 -5 39 44 39 60 0 3 -10 9 -22 14 -21 8 -25 4 -44 -48 -16 -42 -31 -63 -60
-83 l-39 -27 -3 45 c-3 39 1 49 39 94 41 48 42 51 23 65 -17 13 -21 12 -41
-11 l-23 -25 0 38 c0 32 9 49 50 98 48 57 49 59 29 73 -19 13 -23 12 -49 -19
l-29 -34 -1 60 c0 57 -1 60 -25 60 -24 0 -25 -2 -25 -64z m40 -106 c-7 -8 -16
-15 -20 -15 -15 0 -20 31 -9 52 11 20 11 20 26 -1 12 -17 12 -25 3 -36z m0
-154 c-9 -18 -14 -20 -26 -10 -17 14 -18 31 -2 47 20 20 43 -10 28 -37z m-291
12 c11 -21 10 -23 -19 -23 -32 0 -36 16 -10 37 8 6 15 11 16 10 1 -1 7 -12 13
-24z m593 -11 c4 -15 0 -17 -23 -14 -33 5 -33 6 -18 33 12 23 33 13 41 -19z
m-458 -58 c10 -27 7 -32 -23 -36 -23 -3 -28 -1 -23 11 13 40 36 52 46 25z
m168 -103 c-11 -34 -23 -41 -43 -28 -23 14 -24 25 -3 48 13 14 20 16 34 7 10
-7 16 -18 12 -27z m-162 -85 c0 -6 -4 -17 -9 -25 -8 -12 -12 -12 -24 -3 -8 7
-17 21 -19 30 -4 15 0 17 23 14 16 -2 29 -9 29 -16z m313 0 c7 -17 -17 -41
-31 -32 -5 3 -12 15 -15 26 -4 16 0 20 18 20 13 0 25 -6 28 -14z m-153 -97 c0
-3 -6 -12 -14 -18 -22 -18 -41 11 -25 40 11 22 12 22 25 4 8 -10 14 -22 14
-26z m300 32 c0 -5 -9 -19 -19 -32 l-20 -24 -9 25 c-8 22 -6 26 17 31 14 4 27
7 29 8 1 0 2 -3 2 -8z m-600 -10 c0 -5 -3 -16 -6 -25 -5 -12 -9 -13 -25 -3
-27 17 -24 37 6 37 14 0 25 -4 25 -9z m290 -156 c10 -12 10 -18 0 -30 -7 -8
-16 -15 -20 -15 -12 0 -20 28 -14 45 4 8 10 15 14 15 4 0 13 -7 20 -15z"/>
</g>
</svg>
