<?xml version="1.0" standalone="no"?>
<!DOCTYPE svg PUBLIC "-//W3C//DTD SVG 20010904//EN"
 "http://www.w3.org/TR/2001/REC-SVG-20010904/DTD/svg10.dtd">
<svg version="1.0" xmlns="http://www.w3.org/2000/svg"
 width="100.000000pt" height="100.000000pt" viewBox="0 0 100.000000 100.000000"
 preserveAspectRatio="xMidYMid meet">
<metadata>
Created by potrace 1.10, written by Peter Selinger 2001-2011
</metadata>
<g transform="translate(0.000000,100.000000) scale(0.100000,-0.100000)"
fill="#000000" stroke="none">
<path d="M392 950 c-30 -10 -72 -30 -95 -44 -66 -38 -154 -137 -190 -213 -27
-59 -32 -81 -35 -168 -3 -83 0 -111 18 -164 111 -330 523 -438 793 -208 l38
33 -63 -4 c-131 -8 -279 49 -376 147 -161 160 -179 431 -41 604 34 42 27 45
-49 17z m-16 -62 c-59 -92 -74 -272 -32 -389 63 -180 219 -311 408 -343 l73
-12 -26 -17 c-44 -29 -139 -58 -208 -64 -217 -18 -419 114 -476 312 -26 87
-18 232 17 307 33 71 95 140 172 190 69 45 94 50 72 16z"/>
<path d="M580 818 c-10 -21 -20 -28 -42 -28 -33 0 -36 -10 -7 -28 16 -10 19
-19 14 -43 -7 -32 -4 -35 24 -17 15 9 26 9 47 0 26 -12 27 -12 21 16 -4 21 -1
31 14 40 28 18 23 32 -10 32 -23 0 -31 6 -39 28 l-9 27 -13 -27z m26 -49 c10
-17 -13 -36 -27 -22 -12 12 -4 33 11 33 5 0 12 -5 16 -11z"/>
<path d="M780 565 c-22 -23 -30 -26 -68 -20 l-42 6 16 -35 c16 -33 16 -36 -5
-71 l-21 -37 41 7 c37 6 44 4 75 -26 l34 -33 0 42 c0 39 2 42 43 60 l42 19
-37 18 c-31 15 -39 26 -45 58 l-8 39 -25 -27z m22 -110 c-9 -11 -17 -21 -18
-22 0 -2 -14 3 -31 9 -43 16 -42 58 2 73 27 10 32 8 47 -14 16 -24 16 -26 0
-46z"/>
</g>
</svg>
