<?xml version="1.0" standalone="no"?>
<!DOCTYPE svg PUBLIC "-//W3C//DTD SVG 20010904//EN"
 "http://www.w3.org/TR/2001/REC-SVG-20010904/DTD/svg10.dtd">
<svg version="1.0" xmlns="http://www.w3.org/2000/svg"
 width="394.000000pt" height="255.000000pt" viewBox="0 0 394.000000 255.000000"
 preserveAspectRatio="xMidYMid meet">
<metadata>
Created by potrace 1.16, written by Peter Selinger 2001-2019
</metadata>
<g transform="translate(0.000000,255.000000) scale(0.100000,-0.100000)"
fill="#000000" stroke="none">
<path d="M1676 2450 c-288 -18 -537 -56 -784 -120 -424 -110 -710 -277 -805
-470 l-32 -65 0 -535 0 -535 27 -55 c126 -255 573 -461 1198 -554 413 -61 966
-61 1378 0 407 60 770 180 984 325 94 64 176 152 211 227 l32 67 0 530 0 530
-26 56 c-34 71 -129 173 -219 233 -264 178 -731 311 -1245 356 -172 15 -556
20 -719 10z m697 -45 c665 -59 1165 -228 1382 -467 94 -104 95 -111 95 -510
l0 -342 -28 45 c-33 51 -116 130 -185 178 -72 49 -258 135 -382 176 -209 70
-504 126 -820 157 -169 16 -767 16 -945 0 -544 -51 -961 -168 -1205 -340 -73
-52 -103 -80 -151 -146 l-44 -58 0 343 0 344 25 53 c112 242 568 448 1184 538
309 44 761 57 1074 29z m-180 -765 c355 -17 597 -49 866 -116 483 -120 791
-328 791 -536 l0 -52 -29 45 c-264 408 -1404 647 -2454 513 -613 -78 -1090
-272 -1245 -506 l-27 -42 -3 52 c-7 125 129 269 363 382 342 167 794 249 1470
268 28 1 148 -3 268 -8z m32 -130 c716 -40 1301 -221 1532 -474 72 -78 93
-128 93 -217 0 -96 -35 -174 -114 -252 -468 -468 -2015 -616 -3008 -287 -267
89 -466 204 -562 327 -57 73 -76 127 -76 220 0 91 19 133 99 216 304 319 1160
515 2036 467z"/>
<path d="M1837 1049 c-161 -12 -330 -57 -416 -109 -56 -35 -29 -32 45 5 257
127 745 127 1007 0 76 -37 93 -28 18 10 -147 74 -414 112 -654 94z"/>
<path d="M1850 843 c-127 -16 -255 -66 -291 -111 l-19 -25 -28 28 c-31 32
-126 79 -145 72 -7 -3 -4 -7 8 -12 64 -23 82 -32 111 -57 18 -16 52 -69 78
-122 35 -72 58 -105 103 -146 242 -222 602 -141 744 167 40 87 88 135 149 148
31 7 51 25 28 25 -26 -1 -104 -42 -136 -73 l-32 -31 -16 22 c-46 66 -197 112
-389 117 -71 2 -146 1 -165 -2z m394 -42 c84 -28 143 -63 158 -96 17 -39 -46
-158 -118 -225 -66 -59 -111 -84 -191 -105 -194 -51 -394 33 -498 209 -59 100
-45 143 60 192 91 42 175 54 355 50 137 -3 177 -7 234 -25z"/>
</g>
</svg>
