<?xml version="1.0" standalone="no"?>
<!DOCTYPE svg PUBLIC "-//W3C//DTD SVG 20010904//EN"
 "http://www.w3.org/TR/2001/REC-SVG-20010904/DTD/svg10.dtd">
<svg version="1.0" xmlns="http://www.w3.org/2000/svg"
 width="617.000000pt" height="670.000000pt" viewBox="0 0 617.000000 670.000000"
 preserveAspectRatio="xMidYMid meet">
<metadata>
Created by potrace 1.16, written by Peter Selinger 2001-2019
</metadata>
<g transform="translate(0.000000,670.000000) scale(0.100000,-0.100000)"
fill="#000000" stroke="none">
<path d="M1407 6545 c-65 -92 -84 -205 -52 -313 15 -51 69 -132 92 -140 27 -8
24 28 -5 65 -55 70 -76 177 -52 265 6 20 26 60 46 89 33 49 38 79 14 79 -6 0
-25 -20 -43 -45z"/>
<path d="M1894 6575 c-4 -9 7 -30 25 -50 81 -92 81 -267 0 -368 -30 -37 -33
-73 -6 -65 23 8 77 89 92 140 32 108 13 221 -52 313 -34 47 -50 55 -59 30z"/>
<path d="M1475 6482 c-51 -78 -59 -167 -21 -247 26 -58 49 -80 72 -71 15 6 15
8 0 29 -66 89 -72 185 -16 265 17 24 28 47 25 53 -12 19 -36 8 -60 -29z"/>
<path d="M1825 6510 c-3 -6 5 -24 19 -41 63 -74 59 -183 -10 -276 -15 -21 -15
-23 0 -29 24 -9 50 19 76 79 31 71 24 159 -17 225 -29 47 -55 63 -68 42z"/>
<path d="M1580 6465 c0 -11 16 -15 66 -17 l67 -3 -77 -94 c-95 -116 -94 -121
45 -121 92 0 99 1 99 20 0 17 -8 19 -74 22 l-74 3 68 80 c41 47 70 89 70 103
0 21 -3 22 -95 22 -76 0 -95 -3 -95 -15z"/>
<path d="M931 6447 c-22 -22 -10 -37 40 -51 75 -23 129 -58 187 -121 68 -74
95 -145 97 -253 2 -89 13 -115 41 -91 14 11 16 28 12 110 -4 81 -10 107 -36
163 -39 82 -115 164 -190 204 -70 37 -136 54 -151 39z"/>
<path d="M910 6320 c-25 -16 -5 -43 45 -59 58 -18 126 -80 151 -138 9 -21 17
-67 18 -103 2 -62 3 -65 27 -65 22 0 24 4 27 54 8 138 -90 271 -228 311 -15 4
-33 4 -40 0z"/>
<path d="M406 6160 c-51 -26 -71 -45 -86 -81 -10 -24 -10 -33 4 -54 21 -31 66
-33 119 -5 21 11 57 23 80 26 35 5 49 1 87 -25 51 -34 119 -101 103 -101 -6 0
-35 18 -64 40 -57 42 -73 45 -76 14 -2 -12 14 -32 47 -58 72 -57 52 -58 -29
-2 -66 46 -91 52 -91 21 0 -7 21 -32 46 -54 60 -53 37 -53 -32 -1 -29 22 -60
40 -69 40 -25 0 -17 -32 18 -68 31 -33 31 -34 7 -27 -14 4 -56 27 -93 51 -63
41 -72 44 -136 44 -37 0 -70 2 -73 5 -3 3 4 40 16 83 l22 77 49 5 c42 4 50 8
50 25 0 18 -8 20 -67 23 l-67 3 -16 -58 c-9 -32 -25 -87 -36 -123 -18 -61 -18
-66 -2 -77 10 -8 49 -13 99 -13 78 0 84 -2 140 -39 85 -56 125 -68 169 -52 19
7 44 9 56 6 12 -4 30 0 47 12 15 10 40 20 56 23 16 3 34 14 40 25 6 11 19 26
29 33 34 26 21 63 -47 128 -102 98 -169 113 -272 64 -24 -12 -52 -20 -61 -18
-15 3 -13 9 15 35 59 56 162 62 307 18 28 -8 89 -15 138 -15 48 0 87 -3 87 -7
0 -5 -11 -42 -23 -83 -23 -74 -24 -75 -60 -78 -28 -2 -37 -8 -37 -22 0 -22 19
-30 70 -30 l39 0 26 88 c14 48 31 102 36 120 19 58 12 62 -108 62 -75 0 -131
6 -183 20 -100 26 -221 26 -274 0z"/>
<path d="M2215 5638 c-319 -22 -602 -153 -836 -387 -260 -259 -390 -573 -390
-941 1 -218 37 -381 131 -577 67 -141 137 -240 255 -359 111 -112 250 -210
386 -272 101 -47 129 -57 129 -44 0 6 -33 24 -73 41 -346 143 -623 441 -742
795 -42 125 -57 214 -62 372 -14 382 111 701 381 970 187 187 376 293 636 356
124 30 364 36 501 13 274 -45 512 -168 709 -365 188 -187 310 -416 366 -690
26 -124 24 -372 -4 -500 -80 -366 -293 -669 -607 -861 -88 -54 -116 -85 -42
-48 148 76 367 274 467 423 98 147 169 322 211 521 8 36 13 129 13 230 0 147
-4 185 -27 282 -61 265 -178 475 -367 663 -272 271 -640 405 -1035 378z"/>
<path d="M2215 5583 c-154 -14 -320 -61 -460 -130 -119 -59 -119 -59 -98 -93
16 -28 18 -28 45 -14 35 18 37 28 2 12 -21 -10 -27 -9 -35 3 -15 24 -6 32 77
76 288 152 647 178 972 72 85 -28 92 -33 86 -52 -4 -12 -12 -25 -18 -29 -8 -6
-8 -8 1 -8 7 0 16 7 21 16 14 25 32 7 32 -32 0 -25 -4 -33 -12 -28 -10 6 -10
4 0 -7 36 -39 33 -39 -513 -39 -457 0 -525 2 -525 15 0 8 26 28 58 44 31 17
53 30 49 31 -4 0 -25 -9 -47 -20 -48 -24 -68 -26 -50 -5 16 19 7 19 -30 0 -19
-10 -27 -20 -24 -30 4 -8 2 -15 -3 -15 -5 0 -18 -7 -29 -16 -18 -15 -18 -15 3
-5 14 7 24 8 28 1 4 -6 205 -10 575 -10 490 0 569 2 573 15 4 8 2 17 -3 20
-11 7 -14 55 -4 55 3 0 14 -5 25 -10 10 -6 19 -9 19 -6 0 2 -25 19 -55 36 -30
17 -53 35 -50 40 7 12 -79 46 -187 74 -144 37 -291 51 -423 39z"/>
<path d="M3014 5368 c16 -13 38 -30 50 -40 39 -30 10 -28 -35 3 -24 17 -33 21
-19 9 14 -12 34 -29 45 -36 14 -10 16 -17 8 -25 -8 -8 14 -35 79 -97 119 -115
177 -193 249 -337 34 -66 58 -109 54 -95 -14 49 -94 196 -146 270 -29 41 -93
114 -142 163 -82 80 -89 90 -74 104 14 14 19 13 56 -16 64 -51 168 -168 227
-256 284 -427 283 -979 -1 -1406 -76 -113 -246 -292 -273 -287 -37 7 -19 38
76 134 101 101 175 201 231 311 46 92 37 91 -12 -2 -69 -130 -124 -204 -232
-312 -99 -98 -103 -102 -88 -123 15 -21 14 -24 -13 -47 -19 -16 -12 -13 21 8
67 44 219 198 279 283 99 139 178 325 218 511 20 94 16 371 -6 475 -36 169
-104 329 -199 470 -70 103 -213 248 -305 310 -42 28 -64 41 -48 28z"/>
<path d="M1565 5338 c-140 -96 -301 -289 -388 -463 -76 -153 -128 -354 -126
-482 l2 -68 8 90 c21 233 101 450 237 638 56 78 184 214 231 245 22 15 24 15
36 -1 11 -16 0 -31 -94 -125 -58 -59 -127 -138 -152 -177 -46 -69 -119 -207
-119 -222 0 -5 23 34 49 86 27 51 55 98 61 105 16 15 14 10 -52 -124 -31 -63
-60 -126 -63 -140 l-5 -25 11 25 c106 233 163 323 284 445 44 45 108 100 143
124 34 24 62 46 62 48 0 14 -126 -83 -208 -161 -41 -39 -70 -61 -64 -49 7 12
48 54 92 95 78 71 79 73 64 97 -14 21 -14 25 -2 32 19 11 64 48 58 48 -3 0
-32 -19 -65 -41z"/>
<path d="M1150 4094 c-2 -87 119 -365 212 -488 60 -80 171 -193 234 -238 24
-17 42 -34 39 -36 -9 -9 -88 53 -162 128 -138 138 -223 271 -289 455 -18 49
-33 85 -34 78 0 -23 53 -160 96 -243 80 -154 225 -322 362 -418 60 -42 60 -42
46 -13 -8 16 -27 37 -42 47 -47 30 -191 176 -242 244 -91 122 -155 258 -196
415 -12 50 -23 80 -24 69z"/>
<path d="M1834 4056 c-133 -139 -119 -422 32 -670 126 -206 367 -453 621 -639
65 -48 93 -44 32 4 -24 19 -89 71 -144 114 -132 106 -314 288 -398 400 -71 94
-153 245 -181 330 -42 131 -38 284 12 383 32 66 63 90 117 94 39 3 41 1 63
-43 12 -25 33 -88 46 -140 19 -80 27 -96 50 -109 14 -8 61 -49 104 -90 89 -87
219 -188 418 -323 133 -91 165 -108 164 -89 -1 4 -51 41 -113 82 -183 123
-387 279 -470 362 -44 43 -85 78 -92 78 -13 0 -35 56 -35 88 0 31 -53 169 -72
190 -16 16 -33 22 -66 22 -41 0 -50 -5 -88 -44z"/>
<path d="M1922 3225 c2 -11 20 -98 38 -192 19 -95 37 -173 41 -173 4 0 30 21
59 47 l51 46 23 -24 c12 -13 71 -80 131 -149 60 -69 118 -136 129 -149 l21
-23 -55 -48 c-30 -27 -51 -52 -48 -55 16 -16 408 -144 408 -133 0 35 -55 286
-62 282 -5 -3 -21 4 -37 16 -25 17 -33 18 -55 9 -30 -14 -44 -6 -207 125 -142
114 -274 240 -366 349 -42 51 -74 83 -71 72z"/>
<path d="M2672 2224 c-12 -8 -22 -24 -22 -35 0 -25 8 -24 36 6 29 32 67 22 72
-19 3 -22 -2 -29 -27 -39 -39 -14 -39 -21 2 -32 26 -8 33 -16 35 -42 6 -58
-71 -82 -92 -28 -6 17 -36 21 -36 5 0 -20 49 -60 74 -60 37 0 72 19 85 47 15
34 14 47 -9 76 -13 16 -16 28 -10 32 5 3 10 21 10 40 0 39 -28 65 -70 65 -14
0 -36 -7 -48 -16z"/>
<path d="M3502 2233 c-24 -9 -42 -62 -42 -123 0 -99 37 -143 105 -126 35 9 55
54 55 126 0 64 -18 113 -45 124 -19 7 -54 7 -73 -1z m78 -42 c5 -11 10 -49 10
-85 0 -53 -4 -70 -20 -86 -11 -11 -24 -20 -30 -20 -5 0 -19 9 -30 20 -16 16
-20 33 -20 79 0 84 12 111 49 111 20 0 34 -7 41 -19z"/>
<path d="M3793 2228 c-14 -19 -32 -118 -22 -124 5 -3 22 2 39 11 29 15 34 15
56 0 34 -22 34 -78 -1 -101 -23 -15 -27 -15 -50 0 -14 9 -25 21 -25 26 0 6 -7
10 -15 10 -24 0 -18 -27 11 -49 49 -38 106 -23 130 35 12 30 12 39 0 69 -16
38 -48 52 -92 41 -24 -6 -26 -5 -20 16 3 13 6 29 6 36 0 8 17 12 50 12 38 0
50 4 50 15 0 19 -103 21 -117 3z"/>
<path d="M3862 1299 c-126 -64 -160 -224 -70 -334 44 -53 95 -75 171 -75 57 0
71 4 113 33 l49 33 49 -31 c59 -36 138 -41 203 -11 40 18 41 17 83 -4 65 -33
163 -26 223 16 l43 31 35 -24 c53 -36 105 -47 165 -34 98 22 164 105 164 206
0 106 -67 186 -177 210 -38 8 -126 -16 -162 -44 -24 -18 -24 -18 -68 12 -36
26 -55 32 -111 35 -56 3 -75 -1 -114 -21 -40 -20 -51 -22 -66 -12 -10 7 -37
18 -61 25 -55 14 -129 -1 -171 -36 l-29 -25 -46 33 c-39 27 -56 33 -113 36
-53 2 -76 -1 -110 -19z m198 -19 c22 -11 52 -39 67 -62 24 -36 28 -52 28 -114
0 -64 -3 -77 -30 -115 -41 -58 -94 -84 -172 -84 -52 0 -68 5 -105 31 -60 42
-88 95 -88 167 0 160 154 251 300 177z m591 5 c160 -84 139 -319 -35 -375 -45
-15 -116 -7 -156 16 l-27 17 31 50 c26 42 31 60 31 112 0 52 -5 70 -32 113
l-31 51 31 14 c18 8 39 17 47 21 25 9 107 -2 141 -19z m-294 4 c15 -5 41 -22
56 -37 87 -82 89 -208 5 -289 -42 -40 -76 -53 -140 -53 -62 0 -143 41 -135 68
3 10 13 37 22 62 19 51 15 112 -11 161 -20 40 -15 52 38 78 47 23 119 28 165
10z m611 -8 c126 -65 149 -226 46 -323 -60 -56 -158 -65 -231 -23 -48 29 -50
33 -26 78 22 43 22 142 -1 185 -22 43 -17 54 36 81 54 27 126 28 176 2z"/>
<path d="M5446 568 c-53 -14 -131 -91 -145 -143 -41 -151 61 -289 214 -287
244 2 298 345 68 428 -44 15 -83 16 -137 2z"/>
</g>
</svg>
