<?xml version="1.0" standalone="no"?>
<!DOCTYPE svg PUBLIC "-//W3C//DTD SVG 20010904//EN"
 "http://www.w3.org/TR/2001/REC-SVG-20010904/DTD/svg10.dtd">
<svg version="1.0" xmlns="http://www.w3.org/2000/svg"
 width="100.000000pt" height="100.000000pt" viewBox="0 0 100.000000 100.000000"
 preserveAspectRatio="xMidYMid meet">
<metadata>
Created by potrace 1.10, written by Peter Selinger 2001-2011
</metadata>
<g transform="translate(0.000000,100.000000) scale(0.100000,-0.100000)"
fill="#000000" stroke="none">
<path d="M17 983 c-4 -3 -7 -224 -7 -490 l0 -483 490 0 490 0 -2 488 -3 487
-481 3 c-264 1 -484 -1 -487 -5z m963 -488 l0 -475 -480 0 -480 0 0 475 0 475
480 0 480 0 0 -475z"/>
<path d="M180 500 l0 -320 320 0 320 0 0 320 0 320 -320 0 -320 0 0 -320z
m630 -5 l0 -305 -310 0 -310 0 0 305 0 305 310 0 310 0 0 -305z"/>
<path d="M409 647 c-99 -67 -114 -187 -34 -270 86 -88 223 -65 282 47 23 45
14 135 -20 179 -52 68 -161 89 -228 44z m172 -10 c51 -34 79 -82 79 -134 0
-99 -63 -163 -160 -163 -97 0 -160 60 -160 153 0 77 33 128 100 159 35 15 107
8 141 -15z"/>
<path d="M456 640 c-57 -18 -106 -85 -106 -147 0 -41 40 -103 80 -125 45 -24
115 -20 158 11 39 27 67 97 58 146 -9 47 -59 102 -104 115 -42 11 -47 11 -86
0z m115 -26 c78 -39 88 -160 18 -218 -80 -68 -205 -24 -225 78 -7 42 24 119
57 137 56 29 96 30 150 3z"/>
<path d="M760 110 c-24 -24 -24 -29 -4 -58 14 -20 24 -22 103 -22 92 0 111 8
111 45 0 41 -30 55 -113 55 -64 0 -80 -3 -97 -20z m183 -2 c21 -11 22 -41 3
-57 -20 -17 -178 -11 -182 7 -1 7 0 8 3 2 2 -5 14 -9 26 -9 19 1 20 2 3 6 -15
4 -16 7 -5 14 11 7 11 9 -3 9 -21 0 -32 16 -17 26 8 4 9 3 5 -4 -8 -14 -5 -15
19 -6 11 5 13 9 5 14 -17 11 122 9 143 -2z"/>
<path d="M820 80 c0 -16 4 -30 8 -30 5 0 7 13 4 30 -2 17 -6 30 -8 30 -2 0 -4
-13 -4 -30z"/>
<path d="M850 81 l0 -33 20 23 c17 21 19 22 20 6 0 -11 -4 -15 -12 -11 -6 4
-8 3 -5 -3 4 -5 21 -10 39 -9 26 1 34 6 36 24 2 13 -2 23 -10 24 -7 0 -20 2
-28 3 -8 1 -21 -3 -28 -9 -10 -7 -16 -5 -23 5 -6 10 -9 4 -9 -20z m88 -4 c5
-24 -34 -22 -40 1 -4 14 0 18 16 17 12 -1 22 -9 24 -18z"/>
</g>
</svg>
