<?xml version="1.0" standalone="no"?>
<!DOCTYPE svg PUBLIC "-//W3C//DTD SVG 20010904//EN"
 "http://www.w3.org/TR/2001/REC-SVG-20010904/DTD/svg10.dtd">
<svg version="1.0" xmlns="http://www.w3.org/2000/svg"
 width="289.000000pt" height="359.000000pt" viewBox="0 0 289.000000 359.000000"
 preserveAspectRatio="xMidYMid meet">
<metadata>
Created by potrace 1.16, written by Peter Selinger 2001-2019
</metadata>
<g transform="translate(0.000000,359.000000) scale(0.100000,-0.100000)"
fill="#000000" stroke="none">
<path d="M1655 3450 c-44 -21 -375 -209 -735 -417 l-655 -380 -78 -134 -77
-134 3 -900 c1 -495 6 -907 10 -915 4 -8 51 -43 105 -77 129 -81 749 -413 772
-413 21 0 164 80 156 87 -2 3 -18 -3 -35 -13 -24 -14 -37 -16 -58 -8 l-28 9
-3 824 c-2 649 1 827 10 839 7 8 51 81 98 161 l85 146 645 373 c590 342 646
372 669 362 13 -6 55 -29 93 -51 l68 -40 0 -817 0 -818 -32 -53 c-18 -29 -49
-62 -68 -74 l-35 -21 32 35 c17 19 43 59 57 89 32 69 34 128 4 165 -18 24 -26
27 -60 22 -108 -14 -209 -189 -165 -283 17 -35 51 -51 87 -41 11 3 20 4 20 2
0 -2 -37 -24 -82 -50 -46 -26 -99 -57 -118 -68 l-34 -21 37 49 c66 86 83 198
37 240 -32 29 -94 15 -142 -32 -53 -51 -79 -104 -85 -174 -5 -52 -3 -60 21
-84 23 -23 33 -26 64 -21 40 6 35 2 -153 -104 l-60 -34 34 39 c47 54 71 111
71 170 0 68 -20 95 -69 95 -123 0 -243 -238 -156 -310 8 -7 34 -13 57 -15 40
-2 69 13 364 182 314 181 321 186 352 238 l32 53 0 891 0 890 -72 49 c-279
187 -864 534 -895 531 -4 0 -44 -18 -88 -39z m169 -11 c42 -22 76 -44 76 -47
-1 -4 -314 -188 -698 -410 l-697 -402 -104 -181 -104 -181 -61 59 c-33 32 -72
68 -86 78 -14 11 12 -16 58 -60 l83 -80 -3 -872 -3 -873 -76 49 -77 49 -7 113
c-3 63 -5 474 -3 914 l3 800 69 115 c37 63 77 124 88 134 44 41 1429 835 1460
836 3 0 41 -18 82 -41z m190 -105 c45 -26 168 -101 274 -167 155 -97 191 -122
180 -132 -20 -19 -1326 -776 -1348 -782 -17 -5 -66 19 -169 80 -19 12 -31 15
-26 8 10 -18 9 -17 -147 63 -79 42 -140 67 -150 64 -18 -7 -178 -279 -178
-302 0 -14 97 -86 115 -86 10 0 0 25 -15 37 -19 16 -33 17 -24 1 4 -7 3 -8 -5
-4 -6 4 -9 12 -5 17 3 6 0 9 -7 8 -20 -3 -49 11 -49 24 0 9 127 238 159 286 8
12 14 12 40 1 17 -7 28 -16 25 -21 -3 -5 3 -6 12 -2 13 5 15 3 9 -7 -5 -9 -4
-11 3 -6 12 7 433 -201 478 -236 13 -11 24 -28 24 -38 0 -26 -172 -320 -187
-320 -10 0 -13 -162 -13 -830 l0 -829 32 -17 c31 -16 31 -17 12 -31 -34 -24
-60 -25 -104 -3 -33 17 -40 24 -29 31 11 7 11 9 -3 9 -17 0 -18 48 -18 860 l0
860 49 -25 c56 -28 69 -26 91 13 9 15 31 53 49 85 18 31 30 57 28 57 -3 0 -26
-36 -51 -80 -26 -44 -51 -80 -57 -80 -9 0 -72 37 -236 139 -29 18 -57 30 -63
26 -6 -4 -9 -1 -8 7 2 7 -5 12 -14 12 -10 -1 -15 2 -13 7 7 10 -32 32 -44 24
-16 -9 -5 -40 14 -37 11 2 14 -1 9 -9 -4 -8 -3 -10 4 -5 7 4 12 2 12 -4 0 -6
5 -8 10 -5 6 3 10 2 10 -4 0 -5 45 -35 100 -66 l100 -57 0 -859 c0 -472 -4
-859 -8 -859 -7 0 -385 200 -522 277 -28 15 -53 37 -56 48 -2 11 -3 407 -2
880 l3 860 103 175 c59 101 108 174 117 174 7 -1 12 4 9 10 -4 11 1360 805
1385 806 8 0 50 -21 95 -46z m488 -357 c-2 -25 1 -55 7 -66 15 -26 62 3 -674
-421 -384 -223 -611 -348 -613 -340 -6 18 -34 42 -72 63 -18 10 -31 19 -29 21
17 17 1366 795 1374 792 6 -1 9 -24 7 -49z m121 -21 l77 -49 0 -63 0 -63 -80
46 c-100 57 -124 95 -104 170 4 14 11 20 18 15 7 -4 47 -29 89 -56z m39 -1706
c38 -97 -76 -273 -175 -269 -15 0 -9 5 19 15 50 18 101 66 125 119 19 41 26
140 11 149 -5 3 -7 -19 -4 -48 4 -45 0 -62 -23 -105 -34 -61 -62 -89 -103
-100 -94 -27 -101 111 -11 213 39 45 60 54 113 53 31 -1 40 -6 48 -27z m-310
-147 c40 -36 15 -135 -51 -204 -37 -38 -54 -49 -79 -49 -60 0 -78 60 -41 140
50 111 121 158 171 113z m-266 -168 c46 -70 -55 -245 -140 -245 -57 0 -72 71
-32 155 46 99 135 146 172 90z"/>
<path d="M584 2361 c-125 -217 -116 -197 -97 -212 12 -10 14 -10 9 -1 -11 19
5 14 62 -18 53 -31 68 -46 33 -35 -25 7 -22 -23 2 -37 19 -10 40 -2 31 13 -8
13 159 298 171 292 5 -3 4 0 -3 8 -10 11 -14 11 -21 1 -6 -10 -18 -7 -54 15
-26 15 -47 33 -47 39 0 7 -8 14 -18 16 -14 4 -29 -14 -68 -81z m123 21 l23
-17 -66 -115 c-36 -63 -67 -116 -69 -119 -5 -5 -65 19 -65 26 0 15 137 243
145 243 6 0 20 -8 32 -18z"/>
<path d="M2085 2486 c-126 -74 -242 -146 -257 -160 -15 -15 -33 -44 -39 -66
-10 -33 -9 -43 5 -65 9 -14 24 -25 34 -25 18 0 474 260 506 288 27 25 46 67
46 105 0 38 -15 57 -44 57 -12 -1 -124 -61 -251 -134z m279 74 c0 -25 -8 -57
-18 -72 -18 -28 -490 -308 -519 -308 -19 0 -31 16 -22 30 4 6 13 7 23 1 13 -7
37 3 92 35 41 24 69 44 62 44 -10 0 -10 5 -1 21 6 12 9 38 6 58 -4 36 -4 36
78 84 46 26 84 47 87 47 2 0 2 -18 0 -40 -3 -30 0 -41 12 -46 9 -3 13 -10 10
-15 -8 -13 117 60 142 83 18 16 21 27 17 66 -3 35 -2 43 6 32 6 -8 11 -10 11
-4 0 5 -6 16 -12 23 -11 10 -9 12 7 9 17 -3 20 -11 19 -48z"/>
<path d="M1573 2225 c-17 -7 -46 -33 -62 -56 -59 -81 -63 -168 -10 -198 23
-13 30 -12 65 5 75 40 134 167 103 225 -22 42 -42 48 -96 24z m76 -8 c45 -55
-7 -189 -90 -232 -24 -13 -68 -10 -70 4 0 3 -2 22 -4 41 -8 70 28 137 93 177
43 26 55 28 71 10z"/>
<path d="M1750 819 c-72 -29 -143 -141 -144 -225 -1 -64 20 -92 73 -96 35 -3
34 -4 -69 -63 -132 -75 -130 -75 -97 -35 108 128 95 291 -21 265 -71 -15 -149
-123 -159 -218 -7 -69 20 -107 75 -107 l37 0 -70 -41 c-39 -22 -89 -51 -112
-65 l-42 -24 34 51 c92 136 72 266 -37 245 -44 -8 -110 -75 -139 -141 -43 -97
-19 -174 57 -186 37 -7 59 4 447 228 224 130 406 237 404 240 -3 2 -44 -19
-93 -48 -49 -28 -97 -55 -107 -61 -12 -6 -7 8 17 42 77 111 75 228 -4 244 -14
3 -36 1 -50 -5z m48 -25 c28 -20 30 -91 3 -149 -39 -83 -127 -137 -164 -100
-50 49 15 215 97 251 39 17 37 17 64 -2z m-264 -166 c60 -85 -71 -290 -159
-250 -68 31 -18 194 78 252 42 26 62 25 81 -2z m-270 -160 c22 -32 20 -75 -8
-133 -38 -81 -106 -132 -153 -114 -88 33 20 269 124 269 12 0 29 -10 37 -22z"/>
</g>
</svg>
