<?xml version="1.0" standalone="no"?>
<!DOCTYPE svg PUBLIC "-//W3C//DTD SVG 20010904//EN"
 "http://www.w3.org/TR/2001/REC-SVG-20010904/DTD/svg10.dtd">
<svg version="1.0" xmlns="http://www.w3.org/2000/svg"
 width="583.000000pt" height="507.000000pt" viewBox="0 0 583.000000 507.000000"
 preserveAspectRatio="xMidYMid meet">
<metadata>
Created by potrace 1.16, written by Peter Selinger 2001-2019
</metadata>
<g transform="translate(0.000000,507.000000) scale(0.100000,-0.100000)"
fill="#000000" stroke="none">
<path d="M1526 4867 c-62 -82 -87 -183 -67 -279 14 -67 76 -168 103 -168 25 0
22 14 -12 62 -42 58 -64 138 -56 205 7 56 43 139 70 162 20 17 21 51 2 51 -8
0 -26 -15 -40 -33z"/>
<path d="M1995 4891 c-3 -6 8 -31 25 -54 79 -110 78 -259 -1 -359 -34 -43 -36
-58 -9 -58 19 0 64 57 89 115 39 89 19 236 -42 316 -34 46 -51 56 -62 40z"/>
<path d="M1603 4818 c-42 -46 -57 -90 -58 -163 0 -59 4 -77 28 -118 29 -50 52
-66 67 -51 5 5 -3 27 -20 52 -51 76 -51 154 -1 234 38 60 27 92 -16 46z"/>
<path d="M1934 4826 c-3 -8 7 -33 22 -56 20 -30 29 -58 32 -101 4 -51 1 -65
-27 -113 -35 -62 -38 -76 -17 -76 20 0 61 56 76 104 18 56 7 147 -24 200 -27
47 -53 64 -62 42z"/>
<path d="M1695 4790 c-12 -20 7 -30 61 -30 49 0 68 -10 45 -25 -5 -3 -37 -39
-71 -81 -79 -98 -74 -106 59 -102 77 2 96 6 96 18 0 11 -17 16 -72 20 l-72 5
69 83 c39 46 70 87 70 91 0 4 -5 12 -12 19 -15 15 -164 16 -173 2z"/>
<path d="M1048 4759 c-7 -20 1 -39 17 -39 8 0 39 -9 70 -21 73 -27 153 -101
195 -181 30 -56 35 -74 39 -163 5 -91 8 -100 26 -100 29 0 41 62 27 147 -22
143 -108 265 -230 327 -72 36 -137 50 -144 30z"/>
<path d="M1027 4633 c-17 -17 -3 -33 42 -48 104 -34 171 -126 173 -236 1 -69
20 -96 45 -64 20 27 12 116 -17 183 -36 84 -146 172 -215 172 -12 0 -25 -3
-28 -7z"/>
<path d="M595 4501 c-70 -18 -145 -80 -145 -120 0 -55 63 -70 138 -32 48 24
102 27 140 7 15 -8 47 -36 72 -61 47 -50 30 -48 -37 3 -34 25 -63 24 -63 -2 0
-8 6 -19 14 -23 26 -16 78 -64 74 -68 -3 -3 -33 15 -68 39 -95 66 -128 40 -42
-33 61 -53 35 -53 -35 0 -76 57 -118 36 -53 -26 16 -16 28 -30 26 -33 -6 -5
-65 26 -119 64 -43 31 -53 34 -121 34 l-74 0 21 80 21 80 41 0 c48 0 70 12 62
34 -5 12 -21 16 -71 16 l-65 0 -20 -67 c-59 -199 -60 -193 54 -193 80 0 90 -2
131 -31 92 -63 169 -85 194 -55 9 11 18 13 37 5 20 -7 32 -5 52 8 14 10 39 20
55 23 16 3 34 14 40 25 6 11 19 26 29 33 28 21 20 50 -30 104 -104 111 -174
131 -284 82 -63 -29 -77 -28 -60 4 31 58 163 73 304 34 48 -14 106 -22 153
-22 l76 0 -7 -27 c-3 -16 -13 -52 -21 -80 -15 -51 -17 -53 -50 -53 -37 0 -58
-25 -33 -41 17 -11 80 -12 95 -1 16 10 77 219 70 237 -4 12 -27 15 -106 15
-67 0 -124 6 -172 19 -87 23 -182 33 -223 22z"/>
<path d="M1067 3410 c-356 -60 -654 -111 -662 -114 -8 -3 -22 -20 -32 -39 -10
-18 -55 -89 -100 -158 l-83 -124 0 -1002 0 -1001 47 -62 c25 -34 56 -66 67
-70 46 -19 174 -40 454 -75 l292 -36 31 25 c20 18 38 24 57 21 116 -18 168
-12 207 25 22 21 28 22 91 13 76 -11 138 -2 167 25 16 14 40 17 129 17 104 0
110 1 127 24 16 21 25 24 72 21 117 -8 161 -2 190 26 26 25 29 26 100 17 84
-11 131 -4 163 26 20 19 33 21 107 19 l83 -3 48 69 48 70 -2 580 -3 581 -5
-565 -5 -565 -29 -42 c-16 -24 -36 -43 -44 -43 -13 0 -13 2 1 18 9 10 26 39
38 66 64 145 -29 295 -143 229 -39 -24 -63 -66 -78 -137 -10 -50 -10 -64 5
-102 9 -24 28 -53 42 -64 14 -11 24 -22 22 -24 -5 -4 -129 -26 -149 -26 -10 0
-9 4 3 18 29 32 57 106 57 155 0 92 -43 152 -112 152 -57 0 -111 -59 -128
-140 -16 -75 -6 -118 36 -164 39 -44 41 -43 -69 -56 l-58 -7 25 37 c49 71 58
152 27 222 -62 136 -232 40 -231 -131 1 -43 34 -112 61 -126 28 -16 13 -25
-56 -34 -27 -4 -61 -10 -75 -13 l-25 -6 21 24 c77 86 83 224 13 283 -41 34
-88 34 -129 0 -41 -35 -58 -71 -66 -137 -8 -68 8 -118 48 -152 17 -14 29 -27
27 -29 -5 -4 -142 -26 -160 -26 -7 0 -4 9 8 23 55 60 76 151 49 221 -21 54
-43 75 -87 82 -67 11 -135 -60 -146 -154 -8 -75 3 -117 43 -156 l34 -33 -77
-11 c-43 -5 -91 -10 -107 -10 l-29 0 29 23 c32 26 43 25 24 -2 -7 -10 -1 -5
14 10 34 36 59 124 50 174 -15 86 -74 134 -139 113 -57 -19 -84 -60 -108 -165
-3 -11 -5 384 -6 878 l-1 898 81 127 c45 70 86 130 92 133 5 4 62 15 126 24
64 10 125 22 136 27 23 10 18 9 -147 -17 l-107 -18 -28 30 c-15 16 -37 34 -48
41 -13 7 -16 14 -10 20 10 9 1229 212 1271 212 19 0 23 -7 26 -47 3 -27 3 -50
1 -52 -3 -4 -802 -140 -827 -141 -5 0 -7 -2 -4 -5 4 -4 717 108 828 130 22 4
35 -8 105 -95 44 -55 83 -110 87 -123 4 -12 6 7 5 43 l-2 64 -38 9 c-55 13
-147 124 -147 178 0 20 -6 41 -12 46 -25 19 -693 147 -741 142 -7 -1 -304 -50
-660 -109z m762 84 c2 -2 -2 -6 -10 -8 -24 -8 -1242 -206 -1274 -207 -18 -1
-23 -3 -12 -6 10 -3 16 -10 14 -16 -3 -7 -46 -76 -96 -154 l-91 -143 0 -1016
0 -1017 39 -51 c22 -28 39 -52 37 -53 -1 -2 -29 2 -62 8 -52 10 -65 17 -107
62 -41 44 -45 52 -30 59 16 6 15 7 -3 7 -12 1 -25 8 -28 17 -3 9 -6 458 -6
1000 0 983 0 983 21 1021 38 68 141 223 148 223 4 0 12 14 18 30 9 23 17 30
39 30 15 0 24 3 20 7 -4 4 283 55 636 114 467 78 657 105 693 102 28 -3 52 -7
54 -9z m334 -60 c130 -26 234 -51 230 -54 -5 -4 -289 -53 -633 -109 l-625
-101 -105 19 c-139 27 -179 33 -217 32 -18 -1 -33 3 -33 7 0 8 -106 0 -113 -8
-26 -29 -157 -248 -155 -259 2 -11 37 -23 111 -41 60 -14 106 -28 103 -31 -3
-3 33 -14 81 -24 49 -10 96 -22 105 -27 17 -8 18 -66 18 -1001 l0 -992 36 -45
c19 -24 31 -46 25 -48 -6 -2 -124 10 -263 28 l-253 31 -48 51 c-34 37 -43 54
-35 60 9 5 8 8 -5 8 -16 0 -17 51 -15 1018 l3 1017 95 147 c85 133 98 148 123
148 16 0 26 3 23 8 -5 8 1270 222 1294 216 8 -1 122 -24 253 -50z m-1256 -245
c115 -16 218 -32 230 -35 12 -3 40 -23 63 -44 l42 -39 -21 -38 c-12 -21 -52
-83 -89 -138 -76 -113 -79 -114 -158 -66 -29 17 -94 40 -161 56 -62 15 -113
32 -113 37 0 6 25 49 55 97 30 48 55 91 55 96 -1 13 -87 65 -108 65 -11 0 -45
-44 -91 -115 -41 -63 -79 -115 -83 -115 -14 0 -9 19 16 58 93 148 137 212 146
212 5 0 103 -14 217 -31z m-154 -43 c9 -7 17 -16 17 -20 0 -3 -28 -49 -61
-101 -48 -75 -66 -95 -82 -93 -45 7 -41 30 23 131 34 53 67 97 74 97 6 0 19
-7 29 -14z m299 -366 c17 0 18 -41 18 -947 l1 -948 27 -32 27 -32 725 119
c399 66 733 121 743 124 20 5 22 -4 4 -29 -9 -11 -16 -14 -20 -8 -4 7 -23 7
-54 2 -27 -5 -63 -11 -82 -14 -18 -4 -43 -17 -55 -30 -12 -13 -34 -27 -48 -30
-23 -6 -26 -4 -21 14 6 25 -2 26 -96 10 -50 -8 -74 -18 -96 -40 -37 -35 -76
-40 -68 -9 6 23 4 24 -95 6 -54 -10 -80 -20 -101 -40 -29 -28 -74 -36 -65 -12
9 23 -7 25 -90 10 -57 -10 -87 -20 -105 -38 -14 -13 -37 -27 -49 -31 -21 -6
-23 -4 -17 14 8 25 -6 27 -103 10 -46 -8 -73 -20 -97 -40 -36 -32 -71 -39 -61
-14 9 24 -12 26 -99 11 -64 -11 -84 -19 -102 -41 -13 -15 -30 -25 -37 -22 -24
9 -88 96 -80 108 4 8 3 9 -4 5 -9 -5 -12 238 -12 988 l0 996 47 -30 c26 -17
55 -30 65 -30z m1523 -1436 c44 -47 42 -136 -5 -211 -54 -88 -160 -36 -160 79
0 121 100 202 165 132z m-255 -14 c50 -27 63 -163 23 -232 -23 -40 -74 -78
-80 -60 -3 6 -9 9 -14 6 -19 -12 -68 18 -83 51 -22 45 -20 118 3 164 25 48 43
63 89 72 20 3 38 7 40 8 2 0 12 -3 22 -9z m-236 -74 c27 -35 28 -144 3 -192
-20 -38 -72 -84 -95 -84 -14 1 -13 3 3 12 98 54 134 205 65 272 l-22 21 21
-35 c60 -101 -15 -276 -105 -245 -63 22 -86 133 -46 212 29 56 56 74 111 70
35 -2 49 -9 65 -31z m-293 -42 c47 -50 31 -187 -28 -234 -98 -77 -183 84 -110
208 22 36 68 62 98 55 9 -3 27 -16 40 -29z m-237 -35 c14 -17 27 -43 27 -57 3
-54 -1 -97 -12 -129 -13 -39 -63 -93 -87 -93 -11 0 -6 7 14 19 41 25 74 94 74
155 0 52 -23 111 -46 120 -9 4 -7 -5 7 -23 45 -62 30 -185 -28 -231 -101 -79
-190 88 -110 205 26 38 43 48 87 56 19 3 38 7 42 8 3 0 18 -13 32 -30z m-295
-40 c45 -42 54 -115 22 -184 -45 -99 -130 -109 -167 -20 -19 46 -17 92 5 141
37 80 94 106 140 63z"/>
<path d="M3736 3199 c-27 -21 -35 -49 -13 -49 7 0 18 9 25 20 8 13 23 20 42
20 23 0 31 -5 36 -25 7 -29 -10 -55 -37 -55 -29 0 -22 -13 14 -30 35 -16 45
-46 27 -79 -16 -31 -65 -28 -86 4 -19 30 -34 32 -34 7 0 -30 37 -57 80 -57 51
0 80 27 80 73 0 20 -8 44 -17 54 -13 14 -14 21 -5 30 13 13 16 57 4 74 -10 16
-48 34 -70 34 -11 0 -31 -9 -46 -21z"/>
<path d="M4692 3213 c-30 -12 -48 -83 -44 -171 2 -39 49 -92 82 -92 12 0 35
13 51 29 27 27 29 35 29 101 0 74 -16 123 -45 134 -19 7 -54 7 -73 -1z m78
-49 c6 -14 10 -51 10 -82 0 -87 -37 -126 -82 -85 -14 13 -18 31 -18 85 0 85
11 108 51 108 22 0 32 -6 39 -26z"/>
<path d="M4981 3198 c-4 -13 -12 -45 -15 -72 -7 -48 -7 -49 16 -41 58 18 81
18 95 -1 30 -41 4 -104 -44 -104 -12 0 -30 12 -41 28 -15 20 -24 24 -32 16 -8
-8 -5 -19 13 -40 53 -61 147 -22 147 62 0 55 -37 89 -88 80 -32 -5 -33 -4 -30
27 3 31 4 32 56 35 72 4 64 26 -11 30 -52 3 -58 1 -66 -20z"/>
<path d="M2046 3024 c-110 -19 -209 -40 -222 -49 -50 -32 -56 -140 -9 -171 21
-14 34 -14 102 -3 43 6 82 15 86 19 5 4 -31 1 -79 -6 -79 -13 -89 -13 -105 2
-24 21 -32 64 -19 95 9 21 10 20 6 -13 -5 -42 16 -73 41 -64 8 3 19 6 24 6 4
0 6 7 3 15 -4 8 -17 15 -30 15 -19 0 -24 5 -24 25 0 31 22 43 94 51 31 4 56
11 56 17 0 11 -99 1 -139 -14 l-26 -10 20 20 c16 16 64 28 238 57 120 20 228
33 241 30 15 -4 28 -18 34 -36 13 -35 23 -40 15 -7 -10 39 -33 57 -72 56 -20
-1 -126 -16 -235 -35z"/>
<path d="M2542 2972 c-14 -22 -18 -23 -206 -22 -119 1 -234 -5 -305 -15 -63
-8 -121 -15 -128 -15 -8 0 -13 -12 -13 -29 l0 -28 143 -17 c82 -9 217 -16 319
-16 167 0 178 -1 188 -20 10 -19 21 -20 381 -20 244 0 368 3 364 10 -4 6 -133
10 -354 10 -256 0 -350 3 -359 12 -13 13 -16 87 -6 126 l6 22 354 0 c218 0
355 4 359 10 4 6 -126 10 -361 12 l-367 3 -15 -23z m-12 -82 l0 -40 -158 0
-157 0 0 40 0 40 157 0 158 0 0 -40z"/>
<path d="M1529 2962 c-38 -34 -61 -112 -49 -167 19 -84 99 -114 152 -57 34 35
48 72 48 128 0 109 -80 160 -151 96z m111 -7 c35 -37 39 -116 8 -175 -52 -102
-158 -69 -158 50 0 114 90 189 150 125z"/>
<path d="M5063 2720 c-45 -27 -66 -73 -60 -127 11 -101 127 -153 215 -95 33
22 52 64 52 118 0 41 -5 51 -39 85 -34 35 -44 39 -87 39 -31 0 -61 -7 -81 -20z"/>
<path d="M1796 2615 c-10 -42 -16 -78 -14 -80 2 -3 429 -113 949 -246 519
-133 948 -245 952 -249 4 -4 3 -28 -4 -54 -6 -26 -9 -49 -6 -52 8 -9 308 118
305 128 -5 14 -210 248 -218 248 -4 0 -12 -25 -19 -55 -10 -45 -16 -55 -29
-51 -15 5 -1811 466 -1873 481 -24 6 -26 4 -43 -70z m1093 -210 c464 -119 845
-215 846 -213 2 2 9 25 16 52 l14 50 95 -108 c52 -59 96 -113 97 -119 3 -11
-237 -117 -263 -117 -8 0 -8 12 -1 45 6 25 8 48 4 51 -3 3 -432 115 -952 249
-521 134 -948 245 -950 247 -4 4 21 113 29 126 4 7 46 0 114 -18 59 -16 487
-126 951 -245z"/>
<path d="M4154 2269 c-102 -29 -133 -166 -53 -233 38 -32 68 -40 117 -32 45 9
72 8 137 0 37 -5 57 -2 81 11 30 16 34 16 55 1 28 -20 95 -21 130 -2 22 11 30
11 50 0 35 -20 99 -17 136 6 46 27 66 72 61 132 -9 91 -92 144 -180 113 -38
-13 -47 -13 -84 1 -33 13 -49 13 -82 5 -23 -7 -44 -16 -47 -21 -3 -5 -27 1
-53 12 -45 20 -49 20 -92 5 -40 -14 -50 -15 -85 -2 -46 16 -49 16 -91 4z m250
-9 c7 0 20 -6 30 -13 17 -13 17 -15 2 -45 -20 -39 -21 -102 -1 -128 21 -27 18
-39 -10 -52 -68 -31 -150 4 -174 74 -17 48 -10 82 25 123 25 31 77 53 102 45
8 -2 19 -4 26 -4z m404 -18 c32 -21 52 -64 52 -113 0 -35 -6 -48 -39 -80 -34
-34 -44 -39 -86 -39 -42 0 -52 5 -86 39 -33 32 -39 45 -39 80 0 112 107 173
198 113z m-558 8 c12 -8 12 -14 -3 -45 -21 -45 -22 -97 -1 -137 15 -30 15 -32
-2 -45 -39 -29 -113 -8 -153 43 -24 31 -28 96 -7 132 28 51 121 80 166 52z
m360 0 c19 -10 19 -11 0 -53 -25 -53 -25 -74 0 -122 23 -44 18 -53 -31 -61
-106 -17 -186 100 -127 186 13 19 35 40 48 47 30 15 84 17 110 3z"/>
</g>
</svg>
