<?xml version="1.0" standalone="no"?>
<!DOCTYPE svg PUBLIC "-//W3C//DTD SVG 20010904//EN"
 "http://www.w3.org/TR/2001/REC-SVG-20010904/DTD/svg10.dtd">
<svg version="1.0" xmlns="http://www.w3.org/2000/svg"
 width="317.000000pt" height="364.000000pt" viewBox="0 0 317.000000 364.000000"
 preserveAspectRatio="xMidYMid meet">

<g transform="translate(0.000000,364.000000) scale(0.100000,-0.100000)"
fill="#000000" stroke="none">
<path d="M1227 3140 c-357 -208 -658 -385 -670 -393 l-22 -14 3 -1184 3 -1184
24 -20 c15 -12 25 -33 27 -55 3 -35 5 -36 183 -127 99 -51 185 -92 191 -93 7
0 322 181 700 403 l689 403 2 545 c2 299 -1 843 -5 1209 l-7 665 -170 112
c-165 110 -197 125 -211 102 -6 -11 -43 -8 -74 4 -9 4 -263 -139 -663 -373z
m937 247 c81 -54 144 -103 140 -107 -18 -17 -1333 -780 -1345 -780 -21 0 -349
194 -341 202 12 12 1242 728 1312 763 35 18 69 31 75 27 5 -3 77 -50 159 -105z
m-261 90 c2 -10 -1291 -767 -1310 -767 -6 0 -14 4 -17 9 -7 11 1293 773 1312
769 7 -2 14 -7 15 -11z m424 -2046 l-2 -544 -665 -389 c-366 -215 -671 -392
-677 -395 -10 -4 -13 238 -13 1188 l0 1194 673 393 672 393 7 -648 c4 -356 7
-893 5 -1192z m-1728 84 c3 -1069 2 -1165 -13 -1159 -15 6 -16 88 -16 908 0
497 -3 1026 -6 1177 -6 267 -6 274 12 256 18 -17 19 -61 23 -1182z m181 1068
l167 -97 7 -105 c3 -57 6 -594 6 -1193 l0 -1088 -169 85 -169 84 -6 63 c-6 70
-13 2348 -7 2348 2 0 79 -44 171 -97z"/>
<path d="M2129 2987 c-89 -60 -129 -209 -64 -239 51 -23 115 18 151 96 30 64
31 119 4 146 -26 26 -49 25 -91 -3z m81 -7 c41 -41 14 -138 -54 -198 -47 -41
-84 -41 -104 1 -11 24 -12 37 -2 73 18 64 88 140 133 143 4 1 16 -8 27 -19z"/>
<path d="M2035 2379 c-10 -15 3 -25 16 -12 7 7 7 13 1 17 -6 3 -14 1 -17 -5z"/>
<path d="M1788 2373 c12 -2 32 -2 45 0 12 2 2 4 -23 4 -25 0 -35 -2 -22 -4z"/>
<path d="M1738 2363 c7 -3 16 -2 19 1 4 3 -2 6 -13 5 -11 0 -14 -3 -6 -6z"/>
<path d="M1875 2360 c27 -12 43 -12 25 0 -8 5 -22 9 -30 9 -10 0 -8 -3 5 -9z"/>
<path d="M1647 2323 c-80 -47 -174 -142 -233 -233 -49 -77 -114 -213 -114
-240 1 -8 14 18 29 58 73 183 210 350 343 418 26 13 48 27 48 29 0 10 -16 3
-73 -32z"/>
<path d="M1942 2328 c15 -12 36 -39 47 -58 12 -19 21 -30 21 -23 0 17 -62 96
-80 101 -8 2 -3 -7 12 -20z"/>
<path d="M1682 2255 c-161 -81 -304 -297 -334 -505 -20 -132 18 -247 93 -285
30 -16 129 -23 149 -10 5 3 14 4 19 0 6 -3 -21 -37 -58 -75 -76 -79 -140 -184
-178 -292 -31 -87 -38 -239 -14 -298 31 -77 92 -120 169 -120 151 0 349 195
429 422 21 60 26 92 27 178 1 90 -2 111 -21 147 -44 82 -116 113 -208 90 -30
-8 -55 -13 -55 -12 0 1 32 23 70 49 61 42 75 47 105 42 48 -9 94 -51 121 -111
13 -27 24 -44 24 -37 0 49 -84 145 -139 157 -17 4 -31 8 -31 10 0 2 16 27 36
56 40 60 88 151 98 189 4 14 -13 -16 -38 -66 -50 -102 -108 -180 -158 -215
-28 -20 -24 -12 25 46 159 191 223 460 140 593 -57 91 -150 107 -271 47z m158
5 c39 -20 40 -22 40 -70 0 -28 -3 -50 -7 -50 -17 1 -175 97 -174 105 1 11 56
33 84 34 10 1 36 -8 57 -19z m64 -11 c53 -42 71 -93 70 -204 -1 -86 -5 -111
-32 -183 -39 -104 -89 -187 -159 -263 -31 -33 -47 -56 -37 -53 20 8 19 6 -10
-16 -13 -10 -17 -10 -12 -2 11 18 1 15 -46 -17 -123 -81 -239 -67 -296 37 -42
76 -27 77 91 11 100 -57 109 -60 137 -49 45 19 56 37 36 58 -9 10 -16 26 -16
36 0 9 -5 26 -11 37 -8 15 -7 24 2 35 11 13 14 12 26 -10 8 -14 18 -26 23 -26
16 0 21 19 10 40 -9 17 -8 20 10 20 11 0 20 4 20 8 0 4 -27 34 -60 67 l-60 59
0 -76 0 -75 -47 -6 c-41 -4 -88 8 -112 29 -2 2 18 24 43 50 52 51 111 134 146
204 12 25 24 46 25 48 2 2 54 -26 117 -62 125 -73 127 -73 148 4 21 77 20 79
-105 155 -92 56 -115 74 -115 92 0 13 3 23 6 23 4 0 46 -23 95 -51 96 -54 129
-58 129 -14 0 36 -19 78 -43 97 -12 10 -17 18 -11 18 6 0 23 -9 38 -21z m-224
-36 c0 -10 -4 -24 -9 -32 -7 -11 -11 -9 -20 8 -7 12 -9 26 -6 31 10 17 35 11
35 -7z m229 -55 c1 -10 -3 -18 -9 -18 -5 0 -10 17 -9 38 0 30 2 33 9 17 5 -11
9 -28 9 -37z m-269 27 c12 -15 7 -45 -7 -45 -11 0 -32 47 -25 55 9 9 19 6 32
-10z m-45 -25 c3 -5 -1 -10 -9 -10 -9 0 -16 5 -16 10 0 6 4 10 9 10 6 0 13 -4
16 -10z m201 -62 c57 -35 103 -66 104 -70 0 -17 -28 -5 -127 53 -58 33 -107
59 -109 56 -3 -2 45 -33 106 -68 l110 -63 0 -54 c0 -39 -4 -53 -13 -50 -7 2
-59 30 -115 62 l-102 60 0 52 c0 63 7 84 27 84 8 0 62 -28 119 -62z m-236 27
c0 -15 -34 -55 -46 -55 -20 0 -17 10 8 37 20 22 38 30 38 18z m70 -64 c0 -62
-41 -149 -115 -243 -44 -57 -137 -138 -157 -138 -22 0 2 82 31 109 36 34 49
86 27 109 -14 16 -12 24 24 89 32 57 45 71 62 70 13 -1 31 10 45 28 17 21 33
30 54 30 28 0 29 -1 29 -54z m279 -63 c-1 -7 -5 -24 -9 -38 -7 -22 -8 -21 -9
13 -1 20 4 37 9 37 6 0 10 -6 9 -12z m-495 -151 c-7 -24 -33 -57 -45 -57 -7 0
14 81 27 102 11 17 26 -19 18 -45z m266 -135 c-14 -2 -20 -9 -16 -18 3 -8 9
-21 12 -29 11 -26 -12 -16 -25 11 -11 26 -12 26 -31 9 -20 -18 -20 -17 -20 56
l0 73 51 -49 c44 -44 48 -50 29 -53z m-203 -66 c-2 -18 3 -20 35 -17 29 2 39
-2 48 -19 10 -19 9 -20 -17 -14 -15 3 -63 19 -106 36 l-78 31 27 18 c25 16 29
16 60 1 23 -11 33 -21 31 -36z m120 2 c24 -22 30 -52 14 -63 -5 -3 -12 4 -16
14 -3 11 -20 32 -36 46 -29 24 -29 25 -8 25 13 0 33 -10 46 -22z m-112 -66
c16 -8 57 -16 90 -17 33 -2 63 -3 68 -4 17 -2 5 -19 -26 -36 l-33 -17 -90 52
c-79 46 -86 61 -9 22z m359 -97 c14 -6 17 -5 12 3 -13 21 28 0 62 -32 85 -80
80 -264 -12 -451 -124 -249 -347 -387 -476 -295 -29 21 -69 88 -70 117 0 15
53 10 105 -10 89 -33 124 -40 138 -29 10 9 18 8 32 -2 17 -12 17 -14 -6 -29
-35 -25 -52 -21 -140 29 -44 26 -82 44 -85 41 -3 -3 36 -27 87 -55 l93 -50 38
19 c39 20 49 43 23 53 -8 3 -15 18 -15 34 0 18 -10 38 -30 57 -26 25 -33 27
-62 18 -26 -8 -41 -6 -71 9 l-39 19 54 57 c66 70 87 99 128 180 17 34 35 62
40 62 5 0 54 -27 110 -60 56 -33 107 -60 114 -60 17 0 36 45 43 100 l5 47
-112 68 c-112 69 -125 80 -118 109 2 11 25 2 97 -39 77 -44 98 -52 114 -43 16
8 18 17 13 51 -7 41 -30 77 -50 77 -6 0 -5 -5 2 -12 13 -13 17 -112 4 -106
-30 12 -182 103 -182 108 0 23 111 34 154 15z m-164 -49 c0 -33 -11 -39 -33
-19 -18 17 -18 17 -6 -10 11 -24 11 -30 -2 -37 -23 -15 -36 36 -15 59 9 10 14
20 12 22 -2 2 7 5 20 5 19 2 24 -3 24 -20z m221 -69 c-8 -8 -11 2 -10 34 l1
44 10 -34 c6 -23 6 -37 -1 -44z m-312 4 c-15 -5 -22 6 -14 19 6 9 10 9 16 -1
5 -8 4 -15 -2 -18z m202 -48 c62 -37 106 -70 101 -75 -11 -11 -234 120 -227
133 9 14 10 14 126 -58z m-231 28 c0 -16 -48 -67 -55 -59 -4 4 3 21 15 37 21
30 40 40 40 22z m47 3 c-3 -3 -12 -4 -19 -1 -8 3 -5 6 6 6 11 1 17 -2 13 -5z
m181 -72 l92 -54 0 -54 c0 -30 -3 -54 -7 -54 -5 0 -55 29 -113 63 l-105 63 -3
57 c-4 68 -17 70 136 -21z m-190 -115 c-45 -85 -122 -179 -187 -227 -30 -22
-56 -38 -59 -36 -2 3 -1 25 2 50 5 31 13 47 26 51 10 3 26 22 35 42 15 31 16
42 6 70 -11 30 -10 39 14 86 36 69 43 77 70 77 14 0 33 12 45 28 12 15 34 29
48 32 27 5 27 4 30 -53 3 -49 -2 -66 -30 -120z m303 21 l-9 -33 -1 36 c-1 20
2 39 6 43 13 12 15 -10 4 -46z m-487 -84 c10 -25 -34 -110 -48 -93 -6 7 27
109 34 109 4 0 11 -7 14 -16z m46 -204 c19 -11 29 -19 23 -20 -7 0 -13 -7 -13
-16 0 -13 7 -15 34 -11 25 4 39 1 50 -12 32 -36 25 -35 -122 18 -72 26 -72 26
-50 43 29 22 35 22 78 -2z m135 -25 c24 -23 34 -65 16 -65 -5 0 -18 16 -30 35
-11 19 -25 35 -31 35 -6 0 -8 5 -5 10 10 16 24 12 50 -15z"/>
<path d="M2022 2175 c0 -16 2 -22 5 -12 2 9 2 23 0 30 -3 6 -5 -1 -5 -18z"/>
<path d="M2032 2100 c0 -19 2 -27 5 -17 2 9 2 25 0 35 -3 9 -5 1 -5 -18z"/>
<path d="M2022 2020 c0 -19 2 -27 5 -17 2 9 2 25 0 35 -3 9 -5 1 -5 -18z"/>
<path d="M2002 1933 c-7 -25 -11 -47 -9 -50 2 -2 10 17 17 42 7 25 11 48 8 50
-2 2 -10 -16 -16 -42z"/>
<path d="M1286 1808 c-3 -13 -5 -34 -5 -48 1 -15 5 -7 10 19 9 47 6 68 -5 29z"/>
<path d="M1272 1664 c-2 -79 15 -149 49 -198 23 -33 80 -76 101 -76 7 0 0 7
-17 16 -81 42 -115 108 -125 239 l-7 90 -1 -71z"/>
<path d="M1565 1433 c-16 -9 -52 -24 -80 -34 -27 -10 -44 -18 -38 -19 8 0 -2
-20 -21 -47 -67 -95 -147 -285 -145 -347 0 -11 9 13 20 54 22 84 91 234 138
297 22 31 50 52 103 77 40 19 69 34 63 35 -5 0 -23 -7 -40 -16z"/>
<path d="M2022 1395 c0 -16 2 -22 5 -12 2 9 2 23 0 30 -3 6 -5 -1 -5 -18z"/>
<path d="M2033 1325 c0 -22 2 -30 4 -17 2 12 2 30 0 40 -3 9 -5 -1 -4 -23z"/>
<path d="M2022 1245 c0 -16 2 -22 5 -12 2 9 2 23 0 30 -3 6 -5 -1 -5 -18z"/>
<path d="M2012 1190 c0 -14 2 -19 5 -12 2 6 2 18 0 25 -3 6 -5 1 -5 -13z"/>
<path d="M1991 1119 c-24 -80 -93 -208 -157 -287 -86 -108 -177 -176 -279
-208 -24 -8 -32 -13 -19 -13 12 -1 55 16 95 36 97 48 216 166 280 278 50 86
102 210 97 227 -2 6 -10 -9 -17 -33z"/>
<path d="M1273 885 c0 -44 2 -61 4 -37 2 23 2 59 0 80 -2 20 -4 1 -4 -43z"/>
<path d="M1281 786 c-2 -49 84 -166 122 -166 7 0 -2 9 -19 19 -39 24 -73 71
-90 124 -7 23 -13 33 -13 23z"/>
<path d="M1428 613 c7 -3 16 -2 19 1 4 3 -2 6 -13 5 -11 0 -14 -3 -6 -6z"/>
<path d="M1468 603 c6 -2 18 -2 25 0 6 3 1 5 -13 5 -14 0 -19 -2 -12 -5z"/>
</g>
</svg>
