<svg id="svg" xmlns="http://www.w3.org/2000/svg" xmlns:xlink="http://www.w3.org/1999/xlink" width="400" height="492.0863309352518" viewBox="0, 0, 400,492.0863309352518"><g id="svgg"><path id="path0" d="M230.216 43.769 C 180.531 50.064,89.733 73.165,60.837 86.862 C 49.191 92.383,39.499 104.094,37.395 115.187 C 35.876 123.198,37.992 247.014,39.793 255.496 C 43.228 271.673,69.851 310.458,95.528 336.691 C 108.782 350.233,110.941 354.220,112.142 367.386 C 113.306 380.134,116.917 385.238,124.194 384.418 L 128.532 383.929 131.442 389.017 C 133.043 391.815,136.282 396.250,138.639 398.872 L 142.926 403.639 142.926 420.083 C 142.926 439.117,143.907 442.551,150.198 445.537 C 161.392 450.848,167.866 442.924,167.866 423.909 C 167.866 413.212,168.002 412.317,169.544 412.913 C 178.749 416.467,204.262 418.043,214.388 415.684 L 218.225 414.791 218.705 407.701 C 219.174 400.769,219.254 400.582,222.302 399.343 L 225.420 398.076 225.420 407.286 C 225.420 421.394,229.184 426.873,238.849 426.834 C 246.663 426.801,249.400 422.880,249.400 411.720 L 249.400 404.128 253.469 402.304 C 276.814 391.836,283.328 381.929,283.765 356.233 L 284.077 337.885 295.276 334.386 C 343.214 319.409,353.915 311.389,357.753 287.560 C 359.468 276.914,359.123 162.375,357.355 155.554 C 354.191 143.343,330.140 102.729,320.450 93.233 C 319.537 92.338,314.732 87.103,309.771 81.599 C 282.197 51.005,259.244 40.091,230.216 43.769 M260.159 48.851 C 286.025 55.466,322.115 92.838,346.246 137.993 C 356.573 157.318,355.999 152.008,355.664 225.116 C 355.254 314.483,356.789 311.648,298.801 330.080 L 281.535 335.568 281.055 354.594 C 280.541 375.001,280.352 375.839,274.556 383.463 C 271.231 387.838,261.705 394.810,253.477 398.890 L 246.523 402.339 246.523 410.633 C 246.523 424.088,239.596 428.757,231.559 420.719 L 228.297 417.458 228.297 406.971 L 228.297 396.485 231.601 395.471 C 235.185 394.371,235.971 394.668,235.971 397.122 C 235.971 398.001,237.698 400.107,239.808 401.803 C 241.918 403.499,243.645 404.453,243.645 403.923 C 243.645 403.393,242.134 401.754,240.288 400.281 L 236.931 397.602 236.714 374.580 C 236.515 353.367,236.476 352.889,236.213 368.495 L 235.928 385.431 230.913 386.604 C 224.903 388.010,221.313 389.884,226.379 388.971 C 236.640 387.121,235.971 387.065,235.971 389.769 C 235.971 392.813,233.727 394.146,227.331 394.904 L 222.583 395.466 222.301 375.911 L 222.020 356.355 221.802 376.207 L 221.583 396.058 218.945 397.319 C 216.475 398.500,216.289 399.020,216.026 405.472 L 215.745 412.365 211.230 413.137 C 202.344 414.656,183.341 413.811,175.060 411.529 C 170.839 410.365,166.091 409.243,164.508 409.035 C 150.445 407.186,141.361 400.592,133.457 386.493 C 129.751 379.884,128.703 359.772,132.134 361.131 C 149.167 367.878,170.032 366.265,224.457 353.993 C 231.565 352.391,237.711 351.079,238.115 351.079 C 238.519 351.079,238.849 361.007,238.849 373.141 C 238.849 387.210,239.196 395.204,239.808 395.204 C 240.420 395.204,240.767 387.050,240.767 372.662 C 240.767 360.264,240.919 350.120,241.104 350.120 C 244.146 350.120,277.654 341.603,277.038 340.987 C 276.787 340.736,266.258 342.932,253.639 345.866 C 206.702 356.778,179.235 362.379,169.305 363.062 L 162.590 363.524 170.752 362.170 C 191.392 358.748,276.329 338.359,275.093 337.124 C 274.829 336.859,264.299 339.200,251.694 342.326 C 158.296 365.492,141.871 366.637,118.114 351.640 C 115.954 350.276,113.896 349.161,113.541 349.161 C 111.813 349.161,120.468 356.232,124.235 357.899 L 128.537 359.802 128.537 370.290 C 128.537 380.559,128.489 380.791,126.237 381.356 C 119.885 382.950,119.659 382.516,119.838 369.065 C 119.945 361.024,119.654 356.835,118.989 356.835 C 118.302 356.835,118.179 360.371,118.607 367.866 C 118.954 373.933,118.934 378.897,118.562 378.897 C 116.965 378.897,115.108 371.726,115.108 365.555 C 115.108 361.876,114.682 358.603,114.161 358.281 C 113.641 357.959,112.556 355.432,111.752 352.664 C 110.479 348.284,108.764 346.083,98.527 335.686 C 76.949 313.772,50.417 277.040,44.168 260.432 C 41.447 253.199,40.598 232.632,40.129 162.577 L 39.808 114.602 42.965 108.182 C 50.108 93.658,62.298 87.056,106.231 73.920 C 139.896 63.855,201.753 50.351,231.175 46.645 C 237.606 45.835,252.925 47.001,260.159 48.851 M221.566 50.374 C 154.739 61.129,76.152 82.668,59.472 94.801 C 38.180 110.290,38.225 122.699,59.703 158.678 C 86.973 204.357,114.637 227.184,147.722 231.307 C 188.771 236.422,327.354 201.240,346.051 180.956 C 362.649 162.949,344.524 124.827,296.681 77.121 C 267.088 47.613,258.260 44.469,221.566 50.374 M257.554 51.006 C 274.378 54.522,311.762 89.369,331.246 119.697 C 360.603 165.392,358.727 178.872,320.981 193.468 C 267.984 213.960,195.274 230.176,156.238 230.207 C 122.575 230.235,95.595 211.184,66.461 166.814 C 26.746 106.328,35.954 95.071,148.323 66.733 C 174.296 60.183,218.757 51.583,236.930 49.595 C 241.519 49.093,251.748 49.792,257.554 51.006 M174.738 80.683 C 111.777 89.134,81.611 131.965,115.926 164.188 C 156.710 202.485,255.626 197.254,283.499 155.327 C 310.757 114.324,247.509 70.916,174.738 80.683 M207.674 81.550 C 225.141 83.160,248.427 89.016,250.529 92.328 C 251.543 93.924,251.542 151.559,250.528 151.559 C 250.093 151.559,246.531 150.467,242.614 149.133 C 224.364 142.917,179.003 139.383,172.182 143.645 C 170.595 144.637,171.422 144.719,176.978 144.124 C 187.183 143.032,209.613 143.383,218.225 144.770 C 235.297 147.520,251.319 152.649,251.319 155.364 C 251.319 156.273,252.231 157.839,253.345 158.844 C 254.459 159.849,257.506 163.133,260.116 166.143 L 264.861 171.614 254.972 176.425 C 226.365 190.345,185.555 192.816,152.375 182.638 C 147.706 181.205,143.885 179.742,143.885 179.386 C 143.885 179.030,140.647 174.564,136.691 169.461 C 132.734 164.359,129.496 159.976,129.496 159.721 C 129.496 158.994,141.899 153.006,147.482 151.037 C 150.252 150.060,152.518 148.938,152.518 148.543 C 152.518 147.481,142.921 150.973,133.743 155.375 C 123.738 160.172,123.741 160.172,123.741 154.856 C 123.741 150.661,106.603 126.171,104.875 127.899 C 104.606 128.168,108.089 133.062,112.615 138.774 C 122.446 151.184,122.246 149.901,114.636 151.722 C 107.606 153.404,107.593 153.398,104.882 146.763 C 92.785 117.164,128.937 86.212,181.001 81.593 C 193.471 80.486,196.090 80.482,207.674 81.550 M160.192 90.481 L 152.998 92.566 153.500 119.424 C 153.776 134.197,154.100 141.501,154.220 135.656 L 154.436 125.030 159.306 123.906 C 161.984 123.288,164.574 122.782,165.061 122.782 C 165.549 122.782,165.947 127.298,165.947 132.817 L 165.947 142.852 161.983 143.919 C 154.262 145.998,154.155 146.252,157.885 153.658 C 161.647 161.129,160.879 160.806,168.639 158.185 C 175.524 155.860,175.493 155.948,171.654 149.709 L 168.728 144.953 169.113 130.750 C 169.375 121.115,170.039 114.665,171.178 110.695 C 173.364 103.079,170.380 88.293,167.282 91.391 C 166.950 91.723,167.351 92.668,168.174 93.491 C 174.008 99.325,169.759 119.714,162.277 121.792 C 156.571 123.377,156.101 123.177,157.801 119.891 C 161.036 113.634,161.252 104.091,158.329 96.510 C 156.640 92.129,156.280 94.092,157.829 99.238 C 159.884 106.067,159.580 111.943,156.883 117.506 L 154.558 122.302 154.737 107.914 L 154.916 93.525 161.868 91.607 C 165.692 90.552,168.822 89.365,168.823 88.969 C 168.826 88.012,168.530 88.064,160.192 90.481 M258.312 95.095 C 266.086 99.041,277.218 107.470,277.218 109.410 C 277.218 109.763,275.230 110.810,272.800 111.738 L 268.383 113.425 260.330 105.415 C 249.919 95.057,249.002 90.370,258.312 95.095 M260.830 108.153 L 267.619 115.588 267.623 142.756 C 267.626 173.891,268.258 172.483,258.753 162.513 L 252.278 155.722 252.278 128.221 C 252.278 112.140,252.644 100.719,253.160 100.719 C 253.645 100.719,257.096 104.065,260.830 108.153 M281.834 114.110 C 284.820 118.148,284.613 118.517,277.938 121.066 L 271.942 123.354 271.684 143.692 C 271.514 157.044,271.761 164.029,272.403 164.029 C 273.034 164.029,273.386 157.312,273.394 145.084 L 273.407 126.139 280.544 133.813 C 284.469 138.034,287.701 142.173,287.725 143.012 C 287.866 147.842,273.147 167.866,269.456 167.866 C 268.955 167.866,268.585 156.643,268.585 141.447 L 268.585 115.029 272.662 113.218 C 278.265 110.728,279.417 110.840,281.834 114.110 M287.253 124.874 C 288.065 127.608,288.712 132.248,288.691 135.186 L 288.653 140.528 281.524 132.854 C 273.002 123.680,273.132 124.340,279.376 121.940 C 286.028 119.383,285.572 119.213,287.253 124.874 M41.247 129.831 C 41.247 132.749,54.234 156.769,62.675 169.462 C 100.735 226.695,125.443 240.000,180.870 233.111 C 239.418 225.834,327.017 201.301,343.926 187.445 C 348.913 183.359,355.271 175.560,354.341 174.670 C 354.014 174.357,353.068 175.180,352.239 176.499 C 347.541 183.969,339.710 189.632,327.293 194.537 C 278.694 213.737,214.025 229.273,164.878 233.556 C 149.520 234.894,128.534 230.734,114.147 223.500 C 96.417 214.586,65.509 176.260,47.886 141.338 C 44.235 134.101,41.247 128.923,41.247 129.831 M169.817 149.218 C 171.495 152.151,172.714 154.704,172.525 154.893 C 172.337 155.081,169.919 156.127,167.152 157.218 L 162.122 159.200 159.175 153.364 C 157.555 150.154,156.411 147.346,156.632 147.125 C 157.015 146.742,164.739 144.181,166.117 143.980 C 166.474 143.928,168.139 146.285,169.817 149.218 M121.823 155.769 C 121.823 161.767,116.316 163.159,111.944 158.266 C 108.747 154.688,108.762 154.660,114.787 153.005 C 121.800 151.078,121.823 151.087,121.823 155.769 M134.633 168.931 C 138.249 173.686,140.990 177.795,140.723 178.062 C 139.579 179.206,124.084 170.106,118.630 165.087 L 115.917 162.590 120.549 161.483 C 127.693 159.775,127.653 159.754,134.633 168.931 M139.092 212.672 C 135.069 214.730,134.440 216.934,137.111 219.605 C 139.558 222.052,147.187 222.330,150.386 220.089 C 156.911 215.519,146.671 208.794,139.092 212.672 M149.082 214.212 C 153.506 217.448,147.196 221.851,140.774 220.009 C 134.631 218.247,136.966 212.950,143.885 212.950 C 145.794 212.950,148.132 213.518,149.082 214.212 M243.964 279.898 C 221.469 287.921,216.110 317.913,236.204 323.324 C 250.677 327.221,268.859 311.956,268.859 295.909 C 268.859 282.635,257.241 275.163,243.964 279.898 M251.799 280.160 C 250.408 280.804,250.943 280.904,253.743 280.524 C 257.764 279.978,264.119 283.038,264.388 285.650 C 264.454 286.288,264.562 287.268,264.628 287.826 C 264.694 288.385,265.087 288.633,265.502 288.376 C 266.326 287.867,266.512 289.079,266.769 296.644 C 267.061 305.216,261.038 314.386,252.025 319.091 C 248.619 320.869,234.806 322.453,235.729 320.959 C 236.044 320.449,235.571 320.332,234.640 320.689 C 233.605 321.086,233.226 320.945,233.620 320.309 C 233.985 319.717,233.562 319.423,232.603 319.600 C 229.914 320.098,225.502 313.810,225.063 308.855 C 224.746 305.276,224.816 305.038,225.485 307.434 C 226.094 309.621,226.191 309.079,225.886 305.173 C 225.053 294.490,234.766 283.116,247.227 280.180 C 252.076 279.038,254.242 279.028,251.799 280.160 M257.968 282.558 C 259.778 283.344,261.828 284.459,262.524 285.036 C 263.220 285.614,263.789 285.811,263.789 285.475 C 263.789 284.521,257.721 281.058,256.115 281.096 C 255.324 281.115,256.157 281.773,257.968 282.558 M238.683 284.791 C 232.995 288.399,226.333 297.402,226.400 301.391 C 226.412 302.077,227.297 300.708,228.367 298.349 C 231.330 291.815,234.637 288.024,240.108 284.886 C 242.845 283.317,244.629 282.028,244.073 282.023 C 243.517 282.018,241.091 283.264,238.683 284.791 M242.206 288.404 C 231.656 293.966,227.837 305.726,234.436 312.326 C 237.506 315.396,243.645 317.041,243.645 314.794 C 243.645 314.358,242.242 314.132,240.528 314.291 C 237.687 314.556,237.623 314.507,239.808 313.741 C 241.531 313.138,241.721 312.874,240.484 312.805 C 229.791 312.212,233.928 292.882,245.363 290.012 C 247.693 289.427,247.744 289.314,246.008 288.566 C 244.576 287.950,244.872 287.832,247.242 288.076 C 248.957 288.252,250.360 288.040,250.360 287.604 C 250.360 286.287,245.276 286.786,242.206 288.404 M255.659 288.767 C 256.059 289.414,255.318 289.566,253.558 289.200 L 250.839 288.634 253.793 290.005 C 260.816 293.265,260.510 302.075,253.131 309.038 C 247.897 313.977,248.092 315.867,253.459 312.220 C 260.763 307.256,262.412 299.367,257.661 292.115 C 256.786 290.780,256.499 289.688,257.022 289.688 C 257.544 289.688,258.616 290.875,259.403 292.326 C 260.190 293.777,260.852 294.483,260.873 293.894 C 260.924 292.463,257.182 287.770,255.989 287.770 C 255.468 287.770,255.320 288.219,255.659 288.767 M239.534 291.742 C 233.227 296.446,231.308 305.645,235.577 310.718 C 236.943 312.341,237.622 313.669,237.085 313.669 C 235.004 313.669,232.134 308.568,232.134 304.868 C 232.134 299.144,238.145 289.540,241.616 289.719 C 241.941 289.735,241.004 290.646,239.534 291.742 M246.252 301.877 C 245.839 302.514,245.738 305.967,246.027 309.551 C 246.386 314.005,246.266 315.460,245.646 314.149 C 244.774 312.305,244.737 312.314,244.672 314.388 C 244.598 316.737,246.278 317.340,247.080 315.253 C 247.866 313.202,247.086 300.591,246.252 301.877 M259.952 302.659 C 259.952 304.240,252.571 312.710,251.194 312.710 C 250.732 312.710,252.088 311.144,254.206 309.230 C 256.325 307.315,258.316 304.725,258.630 303.474 C 259.277 300.895,259.952 300.479,259.952 302.659 M226.385 311.787 C 226.382 312.598,227.566 314.564,229.017 316.156 C 230.468 317.748,231.145 318.378,230.522 317.557 C 229.899 316.735,228.715 314.769,227.890 313.187 C 227.065 311.606,226.388 310.976,226.385 311.787 M156.663 408.345 L 165.125 411.031 164.816 424.154 C 164.357 443.706,155.995 451.291,147.991 439.414 C 145.394 435.560,144.486 404.074,147.002 405.148 C 147.662 405.429,152.009 406.868,156.663 408.345 " stroke="none" fill="#000000" fill-rule="evenodd"></path></g></svg>