<?xml version="1.0" standalone="no"?>
<!DOCTYPE svg PUBLIC "-//W3C//DTD SVG 20010904//EN"
 "http://www.w3.org/TR/2001/REC-SVG-20010904/DTD/svg10.dtd">
<svg version="1.0" xmlns="http://www.w3.org/2000/svg"
 width="333.000000pt" height="236.000000pt" viewBox="0 0 333.000000 236.000000"
 preserveAspectRatio="xMidYMid meet">

<g transform="translate(0.000000,236.000000) scale(0.100000,-0.100000)"
fill="#000000" stroke="none">
<path d="M750 2128 c-27 -44 -33 -71 -28 -123 6 -45 43 -109 59 -100 5 4 -1
20 -14 36 -31 43 -31 135 0 178 13 17 19 32 13 36 -5 3 -19 -9 -30 -27z"/>
<path d="M1010 2153 c0 -5 9 -26 20 -48 26 -50 26 -111 0 -153 -25 -40 -26
-60 -3 -41 42 35 56 134 27 195 -16 34 -44 64 -44 47z"/>
<path d="M786 2098 c-23 -32 -21 -110 3 -139 24 -30 39 -19 17 13 -20 28 -21
88 -1 114 8 10 15 22 15 27 0 15 -19 6 -34 -15z"/>
<path d="M970 2113 c0 -5 7 -17 15 -27 20 -26 19 -91 -1 -121 -10 -15 -12 -25
-5 -25 19 0 44 50 44 90 0 39 -25 90 -43 90 -6 0 -10 -3 -10 -7z"/>
<path d="M868 2093 c40 -5 40 -14 1 -63 -17 -21 -28 -43 -24 -49 8 -14 92 -14
100 -1 4 6 -8 10 -29 10 -44 0 -45 9 -6 53 42 49 39 57 -22 55 -36 -1 -43 -2
-20 -5z"/>
<path d="M505 2080 c-6 -9 33 -30 56 -30 5 0 29 -19 52 -42 45 -45 67 -99 67
-162 0 -22 4 -35 10 -31 15 9 12 100 -3 138 -21 50 -63 93 -112 116 -50 24
-61 25 -70 11z"/>
<path d="M490 2013 c0 -5 17 -17 37 -28 47 -25 83 -78 83 -122 0 -23 4 -33 13
-31 38 13 -4 127 -62 165 -33 22 -71 31 -71 16z"/>
<path d="M250 1943 c-26 -10 -60 -46 -60 -64 0 -25 26 -31 67 -14 48 20 61 19
100 -11 39 -30 38 -44 -1 -18 -34 21 -45 11 -20 -18 l19 -22 -27 17 c-33 21
-38 21 -38 3 0 -8 7 -17 16 -20 9 -4 14 -9 11 -12 -3 -3 -17 2 -31 12 -30 19
-45 12 -26 -11 22 -26 6 -26 -33 0 -23 17 -50 25 -76 25 -46 0 -45 -1 -29 51
9 31 16 39 34 39 13 0 26 5 29 10 4 6 -9 10 -33 10 l-39 0 -17 -58 c-9 -32
-16 -61 -16 -65 0 -4 20 -7 44 -7 30 0 63 -10 101 -30 39 -20 62 -27 72 -21 9
4 24 6 33 4 10 -3 21 0 24 6 4 6 14 11 23 11 19 0 42 28 43 51 0 9 -18 33 -40
53 -43 38 -90 47 -132 25 -27 -15 -38 -1 -13 18 20 15 33 15 208 -3 31 -3 57
-8 57 -11 0 -3 -5 -23 -12 -44 -8 -27 -17 -39 -30 -39 -10 0 -18 -4 -18 -10 0
-5 13 -10 28 -10 25 0 30 5 45 53 24 76 23 77 -30 77 -27 0 -73 7 -103 15 -56
15 -103 18 -130 8z"/>
<path d="M1967 1913 c-4 -3 -7 -13 -7 -21 0 -13 3 -12 19 2 20 18 51 12 51
-10 0 -8 -10 -19 -22 -24 l-23 -9 23 -7 c16 -5 22 -13 20 -28 -4 -27 -38 -33
-55 -10 -7 10 -16 14 -20 10 -4 -3 3 -16 15 -28 18 -18 26 -20 49 -12 26 9 28
14 29 64 0 30 -4 61 -9 68 -10 13 -59 17 -70 5z"/>
<path d="M2471 1907 c-49 -60 5 -171 60 -121 21 19 26 82 9 115 -12 22 -52 25
-69 6z m47 -9 c19 -19 15 -97 -4 -105 -34 -13 -57 54 -34 98 12 22 21 24 38 7z"/>
<path d="M2640 1903 c0 -10 -3 -28 -6 -40 -6 -20 -3 -22 28 -16 37 5 53 -11
42 -42 -7 -18 -45 -20 -62 -3 -9 9 -12 9 -12 0 0 -7 11 -17 24 -23 34 -16 66
3 66 39 0 34 -16 52 -47 52 -14 0 -23 6 -23 15 0 10 10 15 30 15 17 0 30 5 30
10 0 6 -16 10 -35 10 -27 0 -35 -4 -35 -17z"/>
<path d="M2812 1878 c-21 -21 -13 -37 24 -53 19 -8 33 -19 29 -25 -8 -14 -38
-13 -53 2 -9 9 -12 9 -12 0 0 -20 38 -34 60 -22 30 16 25 46 -10 59 -41 14
-40 35 1 27 27 -5 30 -4 19 9 -15 18 -42 19 -58 3z"/>
<path d="M2130 1875 c0 -3 5 -14 12 -24 9 -15 8 -24 -5 -45 -14 -21 -15 -26
-3 -26 7 0 17 7 20 16 6 16 8 16 24 0 28 -24 36 -19 17 10 -15 23 -15 27 0 50
18 28 10 32 -17 8 -16 -16 -18 -16 -24 0 -6 15 -24 23 -24 11z"/>
<path d="M2318 1853 c-21 -9 -38 -19 -38 -23 0 -4 23 -17 50 -28 28 -12 50
-17 50 -12 0 5 -16 14 -35 20 -19 6 -35 15 -35 18 0 4 17 14 38 24 47 20 20
21 -30 1z"/>
<path d="M1844 1818 l-29 -33 33 29 c30 28 37 36 29 36 -2 0 -16 -15 -33 -32z"/>
<path d="M2580 1793 c0 -5 5 -15 10 -23 8 -12 10 -11 10 8 0 12 -4 22 -10 22
-5 0 -10 -3 -10 -7z"/>
<path d="M1768 1748 c-19 -24 -47 -65 -63 -93 -16 -27 -29 -51 -30 -52 -1 -2
-257 -35 -570 -73 -313 -39 -575 -76 -582 -82 -10 -8 -13 -129 -13 -612 l0
-602 44 -43 43 -43 584 73 c483 61 586 76 601 91 16 16 18 41 18 257 0 149 -4
242 -10 246 -7 4 -10 -80 -10 -244 0 -171 -3 -252 -11 -257 -6 -3 -270 -39
-587 -79 -414 -53 -580 -71 -590 -63 -10 9 -12 133 -10 608 2 329 0 596 -4
593 -5 -2 -8 -268 -8 -590 l0 -586 -25 23 -25 23 0 595 0 595 27 -24 c20 -17
23 -18 10 -3 -19 23 -22 44 -7 44 6 0 247 29 536 65 289 36 535 65 547 65 20
0 20 -1 -4 -27 -15 -18 -10 -15 14 7 21 19 52 59 69 90 17 30 47 74 66 98 19
23 32 42 29 42 -2 0 -20 -19 -39 -42z"/>
<path d="M1535 1502 c-5 -4 -26 -25 -45 -47 l-35 -40 50 45 c27 25 52 46 54
48 2 1 0 2 -5 2 -5 0 -13 -4 -19 -8z"/>
<path d="M1859 1368 l-84 -93 3 -177 c1 -108 6 -178 12 -178 6 0 10 72 10 186
l0 186 76 84 c42 46 74 84 72 84 -3 0 -43 -42 -89 -92z"/>
<path d="M1509 1402 c5 -10 18 -25 27 -33 11 -9 9 -2 -6 19 -26 35 -36 42 -21
14z"/>
<path d="M1375 1380 c-3 -5 1 -10 9 -10 8 0 18 5 21 10 3 6 -1 10 -9 10 -8 0
-18 -4 -21 -10z"/>
<path d="M1465 1340 c10 -11 20 -20 23 -20 3 0 -3 9 -13 20 -10 11 -20 20 -23
20 -3 0 3 -9 13 -20z"/>
<path d="M1240 1318 c-30 -50 -26 -79 18 -119 l37 -34 -32 35 c-33 36 -41 72
-24 99 7 11 10 10 15 -6 4 -11 18 -31 33 -44 l27 -24 -28 34 c-20 25 -27 43
-24 63 6 36 2 35 -22 -4z"/>
<path d="M2201 1299 c-24 -24 -31 -39 -31 -69 0 -48 15 -82 43 -99 17 -11 16
-8 -6 18 -47 56 -28 145 37 171 16 7 17 9 4 9 -9 1 -30 -13 -47 -30z"/>
<path d="M2330 1312 c50 -25 70 -83 46 -134 -10 -21 -31 -43 -49 -52 -18 -8
-25 -16 -16 -16 27 0 67 38 79 75 20 60 -26 145 -79 145 -9 0 0 -8 19 -18z"/>
<path d="M1494 1296 c4 -11 -1 -28 -11 -40 -17 -21 -17 -21 6 0 19 18 21 25
11 40 -11 18 -11 18 -6 0z"/>
<path d="M2850 1272 c-59 -60 -26 -152 55 -152 47 0 95 45 95 89 0 41 -36 80
-82 88 -32 5 -41 1 -68 -25z"/>
<path d="M2270 1274 c0 -3 7 -12 15 -20 16 -17 18 -14 9 10 -6 15 -24 23 -24
10z"/>
<path d="M1734 1248 l-19 -23 23 19 c21 18 27 26 19 26 -2 0 -12 -10 -23 -22z"/>
<path d="M2246 1208 c-12 -31 -13 -39 -2 -28 12 14 31 70 23 70 -2 0 -11 -19
-21 -42z"/>
<path d="M742 1218 c-9 -9 -12 -111 -12 -434 0 -232 3 -429 6 -438 3 -9 10
-13 15 -10 5 3 9 0 9 -5 0 -6 7 -11 16 -11 11 0 14 5 10 16 -3 9 -6 18 -6 20
0 3 -5 2 -11 -2 -6 -3 -15 0 -20 7 -5 8 -9 203 -9 433 l0 419 25 -23 c14 -13
25 -18 25 -12 0 7 -4 12 -8 12 -5 0 -13 9 -18 20 -7 17 -12 18 -22 8z"/>
<path d="M2300 1217 c0 -7 7 -22 15 -33 13 -17 14 -16 4 14 -11 33 -19 41 -19
19z"/>
<path d="M1648 1193 c-2 -5 -1 -69 2 -143 l5 -135 5 143 c4 122 1 165 -12 135z"/>
<path d="M2898 1068 c-7 -21 3 -128 12 -128 8 0 17 95 12 124 -4 19 -18 21
-24 4z"/>
<path d="M2225 968 c-32 -17 -45 -39 -45 -76 0 -46 16 -71 54 -87 26 -11 41
-12 68 -3 l36 11 -20 33 c-23 39 -19 73 12 104 19 19 19 20 2 20 -10 0 -19 -6
-19 -12 -1 -7 -7 -27 -14 -44 -10 -26 -10 -36 4 -62 18 -36 10 -45 -36 -44
-43 1 -77 37 -77 82 0 45 25 70 78 80 34 7 35 8 7 9 -16 0 -39 -5 -50 -11z"/>
<path d="M2520 972 c28 -6 34 -11 31 -27 -6 -33 -4 -89 3 -112 17 -47 -84 -31
-109 18 -21 39 -19 53 10 87 l25 30 -25 0 c-14 0 -22 -4 -20 -8 3 -5 0 -21 -6
-37 -7 -20 -7 -39 2 -71 6 -23 14 -41 16 -38 3 2 19 -2 37 -9 26 -11 41 -12
69 -3 l36 11 -19 25 c-25 31 -25 72 -1 104 13 16 16 25 8 26 -7 1 -30 4 -52 6
-37 4 -38 4 -5 -2z"/>
<path d="M2699 946 c25 -34 27 -72 5 -106 l-16 -25 21 24 c29 32 27 74 -5 108
l-26 28 21 -29z"/>
<path d="M1961 928 c1 -25 3 -27 6 -10 3 16 9 22 20 18 13 -5 14 -4 3 9 -20
24 -30 18 -29 -17z"/>
<path d="M1213 885 c0 -22 2 -30 4 -17 2 12 2 30 0 40 -3 9 -5 -1 -4 -23z"/>
<path d="M1280 870 c-12 -16 -19 -30 -16 -30 2 0 14 14 26 30 12 17 19 30 16
30 -2 0 -14 -13 -26 -30z"/>
<path d="M1440 855 c0 -19 3 -35 8 -35 4 0 7 16 7 35 0 19 -3 35 -7 35 -5 0
-8 -16 -8 -35z"/>
<path d="M2061 867 c-13 -21 -12 -21 5 -5 10 10 16 20 13 22 -3 3 -11 -5 -18
-17z"/>
<path d="M1130 856 c0 -2 8 -10 18 -17 15 -13 16 -12 3 4 -13 16 -21 21 -21
13z"/>
<path d="M2014 828 l-19 -23 23 19 c12 11 22 21 22 23 0 8 -8 2 -26 -19z"/>
<path d="M2786 832 c-3 -6 -1 -14 5 -17 15 -10 25 3 12 16 -7 7 -13 7 -17 1z"/>
<path d="M2840 825 c0 -8 5 -15 10 -15 6 0 10 7 10 15 0 8 -4 15 -10 15 -5 0
-10 -7 -10 -15z"/>
<path d="M2896 831 c-4 -7 -5 -15 -2 -18 9 -9 19 4 14 18 -4 11 -6 11 -12 0z"/>
<path d="M1970 804 c0 -8 5 -12 10 -9 6 4 8 11 5 16 -9 14 -15 11 -15 -7z"/>
<path d="M1203 795 c-3 -9 -3 -19 1 -22 3 -4 6 1 6 10 0 22 17 22 23 0 4 -14
5 -12 6 5 1 25 -26 31 -36 7z"/>
<path d="M1650 618 c-3 -108 -2 -194 3 -189 4 4 6 93 5 197 l-3 189 -5 -197z"/>
<path d="M1280 725 c13 -14 26 -25 28 -25 3 0 -5 11 -18 25 -13 14 -26 25 -28
25 -3 0 5 -11 18 -25z"/>
<path d="M1146 702 l-19 -27 24 22 c12 12 21 24 18 27 -2 2 -13 -8 -23 -22z"/>
<path d="M1213 685 c0 -22 2 -30 4 -17 2 12 2 30 0 40 -3 9 -5 -1 -4 -23z"/>
<path d="M1608 413 c7 -3 16 -2 19 1 4 3 -2 6 -13 5 -11 0 -14 -3 -6 -6z"/>
<path d="M1528 403 c7 -3 16 -2 19 1 4 3 -2 6 -13 5 -11 0 -14 -3 -6 -6z"/>
<path d="M1448 393 c7 -3 16 -2 19 1 4 3 -2 6 -13 5 -11 0 -14 -3 -6 -6z"/>
<path d="M1368 383 c7 -3 16 -2 19 1 4 3 -2 6 -13 5 -11 0 -14 -3 -6 -6z"/>
<path d="M1288 373 c7 -3 16 -2 19 1 4 3 -2 6 -13 5 -11 0 -14 -3 -6 -6z"/>
<path d="M1208 363 c7 -3 16 -2 19 1 4 3 -2 6 -13 5 -11 0 -14 -3 -6 -6z"/>
<path d="M1128 353 c7 -3 16 -2 19 1 4 3 -2 6 -13 5 -11 0 -14 -3 -6 -6z"/>
<path d="M1048 343 c7 -3 16 -2 19 1 4 3 -2 6 -13 5 -11 0 -14 -3 -6 -6z"/>
<path d="M968 333 c7 -3 16 -2 19 1 4 3 -2 6 -13 5 -11 0 -14 -3 -6 -6z"/>
<path d="M888 323 c7 -3 16 -2 19 1 4 3 -2 6 -13 5 -11 0 -14 -3 -6 -6z"/>
<path d="M808 313 c7 -3 16 -2 19 1 4 3 -2 6 -13 5 -11 0 -14 -3 -6 -6z"/>
</g>
</svg>
