<?xml version="1.0" standalone="no"?>
<!DOCTYPE svg PUBLIC "-//W3C//DTD SVG 20010904//EN"
 "http://www.w3.org/TR/2001/REC-SVG-20010904/DTD/svg10.dtd">
<svg version="1.0" xmlns="http://www.w3.org/2000/svg"
 width="247.000000pt" height="106.000000pt" viewBox="0 0 247.000000 106.000000"
 preserveAspectRatio="xMidYMid meet">
<metadata>
Created by potrace 1.15, written by Peter Selinger 2001-2017
</metadata>
<g transform="translate(0.000000,106.000000) scale(0.100000,-0.100000)"
fill="#000000" stroke="none">
<path d="M390 1041 c-264 -84 -418 -314 -382 -570 28 -194 131 -343 287 -412
124 -55 92 -53 915 -56 860 -4 843 -5 989 68 171 85 271 255 271 459 0 250
-156 452 -397 514 -53 14 -163 16 -844 15 -722 0 -788 -1 -839 -18z m1748
-145 c117 -62 192 -169 215 -303 22 -129 -29 -283 -122 -365 -59 -52 -105 -75
-198 -99 -72 -18 -117 -19 -807 -19 -817 0 -801 -1 -922 71 -152 92 -229 296
-175 468 34 110 103 196 194 243 94 48 73 47 932 45 l810 -2 73 -39z"/>
<path d="M1831 841 c-170 -64 -257 -246 -198 -418 23 -66 94 -146 161 -181 45
-24 62 -27 146 -27 84 0 101 3 146 27 28 15 72 50 97 78 112 124 109 310 -8
438 -80 89 -230 125 -344 83z m207 -105 c41 -21 86 -68 106 -109 23 -50 21
-140 -5 -194 -79 -163 -319 -163 -398 0 -59 122 7 276 135 317 39 13 125 5
162 -14z"/>
<path d="M382 819 c-146 -73 -210 -223 -162 -380 19 -63 30 -80 83 -133 84
-83 124 -96 290 -96 l127 0 0 45 0 45 -112 0 c-123 0 -163 12 -226 65 -28 23
-72 91 -72 110 0 3 68 5 150 5 l150 0 0 45 0 45 -151 0 -151 0 7 28 c11 47 53
100 102 129 43 25 58 28 170 31 l123 4 0 44 0 44 -133 0 c-129 0 -136 -1 -195
-31z"/>
<path d="M770 530 l0 -320 175 0 175 0 0 45 0 45 -120 0 -120 0 0 275 0 275
-55 0 -55 0 0 -320z"/>
<path d="M1170 530 l0 -320 55 0 55 0 0 122 0 123 123 -123 122 -122 82 0 83
0 -161 157 -160 157 163 163 163 163 -70 0 -70 0 -130 -130 c-71 -71 -133
-130 -137 -130 -5 0 -8 59 -8 130 l0 130 -55 0 -55 0 0 -320z"/>
</g>
</svg>
