<?xml version="1.0" standalone="no"?>
<!DOCTYPE svg PUBLIC "-//W3C//DTD SVG 20010904//EN"
 "http://www.w3.org/TR/2001/REC-SVG-20010904/DTD/svg10.dtd">
<svg version="1.0" xmlns="http://www.w3.org/2000/svg"
 width="260.000000pt" height="198.000000pt" viewBox="0 0 260.000000 198.000000"
 preserveAspectRatio="xMidYMid meet">

<g transform="translate(0.000000,198.000000) scale(0.100000,-0.100000)"
fill="#000000" stroke="none">
<path d="M223 1835 c-17 -9 -38 -31 -46 -48 -17 -37 -67 -297 -67 -350 0 -20
27 -161 60 -314 98 -459 158 -746 165 -788 4 -22 16 -55 26 -73 10 -18 19 -40
19 -48 0 -31 32 -76 63 -89 25 -10 220 -13 923 -16 l891 -4 42 35 c112 94 105
84 165 261 31 92 56 178 56 193 0 22 -115 347 -322 906 -27 74 -61 168 -75
207 -27 79 -51 106 -112 124 -24 7 -322 12 -896 15 -785 5 -863 4 -892 -11z
m1779 -11 c60 -14 86 -51 144 -209 30 -82 72 -197 93 -255 22 -58 62 -170 91
-250 29 -80 56 -154 60 -165 37 -86 120 -329 120 -349 0 -14 -25 -99 -55 -188
-48 -145 -59 -167 -92 -196 l-38 -33 -893 0 c-571 1 -910 5 -940 12 -86 19
-129 61 -146 144 -13 65 -110 525 -166 788 -33 153 -60 294 -60 314 0 57 51
316 67 344 9 14 27 34 42 43 24 16 86 17 886 12 473 -3 872 -8 887 -12z
m-1527 -1639 c51 -13 181 -15 945 -15 l885 -1 -31 -28 -32 -29 -878 5 c-583 3
-888 8 -907 15 -15 6 -36 23 -47 38 -23 33 -27 59 -7 42 7 -6 40 -18 72 -27z"/>
<path d="M192 1612 c6 -26 13 -63 18 -82 4 -19 24 -111 44 -205 20 -93 49
-231 65 -305 16 -74 35 -164 41 -200 7 -36 16 -79 21 -96 24 -78 28 -144 13
-187 -15 -41 -22 -123 -11 -133 3 -3 5 16 6 43 0 26 7 67 15 90 15 43 11 109
-13 187 -5 17 -14 60 -21 96 -6 36 -25 126 -41 200 -16 74 -45 212 -65 305
-20 94 -41 188 -45 210 -5 22 -12 57 -16 78 -3 21 -9 40 -13 42 -4 2 -3 -17 2
-43z"/>
<path d="M441 608 c-1 -22 21 -43 73 -71 l41 -22 945 -3 c828 -2 948 -1 965
12 11 9 15 16 8 16 -6 0 -15 -5 -18 -10 -8 -13 -1849 -13 -1895 0 -43 12 -96
49 -109 75 -8 16 -10 17 -10 3z"/>
<path d="M362 370 c0 -19 2 -27 5 -17 2 9 2 25 0 35 -3 9 -5 1 -5 -18z"/>
<path d="M2364 255 c-3 -8 -4 -20 -2 -27 3 -7 7 -1 10 15 6 29 1 36 -8 12z"/>
<path d="M2324 222 c3 -5 0 -13 -6 -15 -9 -4 -10 -6 -1 -6 17 -1 25 16 12 25
-7 4 -9 3 -5 -4z"/>
</g>
</svg>
