<?xml version="1.0" standalone="no"?>
<!DOCTYPE svg PUBLIC "-//W3C//DTD SVG 20010904//EN"
 "http://www.w3.org/TR/2001/REC-SVG-20010904/DTD/svg10.dtd">
<svg version="1.0" xmlns="http://www.w3.org/2000/svg"
 width="467.000000pt" height="501.000000pt" viewBox="0 0 467.000000 501.000000"
 preserveAspectRatio="xMidYMid meet">

<g transform="translate(0.000000,501.000000) scale(0.100000,-0.100000)"
fill="#000000" stroke="none">
<path d="M1161 4813 c-52 -63 -73 -163 -51 -243 14 -49 66 -130 85 -130 22 0
19 15 -14 61 -35 47 -54 124 -45 180 4 22 22 65 41 96 41 68 30 92 -16 36z"/>
<path d="M1555 4840 c-3 -5 8 -27 24 -50 68 -94 63 -225 -12 -308 -17 -18 -18
-25 -8 -35 17 -16 65 40 86 101 29 86 17 173 -35 255 -29 46 -43 56 -55 37z"/>
<path d="M1205 4747 c-43 -74 -28 -199 29 -246 27 -23 30 14 4 49 -32 44 -33
141 0 187 26 36 28 53 7 53 -8 0 -26 -20 -40 -43z"/>
<path d="M1500 4780 c0 -5 11 -26 25 -46 34 -50 34 -123 0 -182 -28 -49 -24
-73 7 -45 64 57 71 178 16 255 -19 27 -48 38 -48 18z"/>
<path d="M1300 4745 c0 -11 12 -15 50 -15 28 0 50 -3 50 -6 0 -3 -25 -35 -55
-70 -78 -92 -74 -104 35 -104 62 0 90 7 90 21 0 5 -27 9 -60 9 -36 0 -60 4
-60 11 0 6 25 40 55 76 31 36 54 70 52 77 -2 6 -34 12 -80 14 -64 2 -77 0 -77
-13z"/>
<path d="M767 4734 c-17 -18 -3 -33 46 -49 114 -37 197 -135 216 -253 6 -35 8
-76 5 -92 -7 -33 10 -47 33 -29 13 11 15 28 10 90 -9 131 -76 239 -184 296
-62 33 -115 48 -126 37z"/>
<path d="M747 4623 c-14 -14 -6 -23 41 -43 91 -40 146 -125 140 -213 -2 -41 4
-52 27 -44 19 8 21 81 3 139 -26 89 -172 200 -211 161z"/>
<path d="M367 4508 c-51 -14 -110 -69 -105 -100 5 -36 44 -50 87 -31 98 42
135 35 201 -33 46 -48 40 -50 -17 -8 -69 51 -86 19 -21 -39 47 -41 20 -35 -40
10 -31 23 -62 25 -62 5 0 -6 16 -22 35 -36 55 -42 41 -52 -15 -12 -28 20 -54
36 -59 36 -23 0 -21 -24 5 -51 39 -40 18 -36 -55 11 -54 35 -69 40 -121 40
-33 0 -60 2 -60 5 0 3 7 35 16 70 l16 64 42 3 c28 2 41 8 41 18 0 11 -13 16
-49 18 -27 2 -53 -1 -57 -5 -14 -14 -61 -184 -55 -199 4 -10 27 -14 85 -14 44
0 83 -5 86 -10 4 -6 30 -24 58 -40 49 -28 105 -39 121 -23 4 4 22 6 41 5 23
-2 36 2 43 14 5 9 15 14 23 12 18 -7 49 9 49 25 0 7 9 18 20 25 28 17 25 36
-15 80 -85 94 -166 118 -249 74 -51 -28 -68 -16 -29 19 42 37 93 44 184 23 40
-9 114 -19 162 -21 61 -4 87 -9 84 -17 -2 -6 -12 -37 -21 -68 -15 -54 -19 -58
-47 -58 -24 0 -30 -4 -27 -17 4 -22 69 -30 85 -11 15 18 64 189 57 199 -3 5
-47 9 -97 9 -51 0 -112 6 -137 14 -65 20 -159 26 -203 14z"/>
<path d="M1173 4139 c-70 -14 -117 -57 -141 -128 -16 -44 -17 -1141 -2 -1141
7 0 10 193 10 558 0 519 2 560 19 597 10 22 28 48 39 58 52 47 40 46 1042 44
1063 -2 983 4 1038 -79 l27 -42 3 -905 c2 -498 0 -934 -3 -968 -7 -71 -33
-115 -84 -150 l-34 -23 -959 0 c-1076 0 -1005 -5 -1056 73 l-27 40 -5 343 c-3
188 -8 346 -12 350 -12 12 -9 -645 2 -688 14 -50 55 -97 105 -119 38 -18 90
-19 991 -19 726 0 953 3 962 12 7 7 12 9 12 5 0 -4 13 -1 29 8 30 15 73 65 85
99 3 10 6 452 6 983 l0 964 -22 41 c-13 22 -41 50 -64 64 l-41 24 -946 3
c-520 1 -959 -1 -974 -4z"/>
<path d="M1143 4084 c-37 -18 -70 -66 -74 -104 -1 -14 -1 -273 -1 -576 2 -543
2 -552 22 -557 20 -5 20 0 20 569 l0 574 29 32 29 33 941 3 c1021 3 982 4
1013 -51 10 -17 14 -212 16 -912 2 -490 0 -919 -3 -954 -6 -50 -12 -69 -32
-87 l-26 -24 -644 0 -644 0 3 -22 3 -23 640 0 c625 0 641 0 675 20 74 44 70
-21 70 1040 0 930 0 951 -20 983 -11 18 -34 41 -52 52 -32 20 -52 20 -983 20
-850 0 -953 -2 -982 -16z"/>
<path d="M1658 4023 c261 -2 684 -2 940 0 257 1 44 2 -473 2 -517 0 -727 -1
-467 -2z"/>
<path d="M1159 4003 c-13 -16 -12 -17 4 -4 9 7 17 15 17 17 0 8 -8 3 -21 -13z"/>
<path d="M3081 4003 c7 -12 15 -20 18 -17 3 2 -3 12 -13 22 -17 16 -18 16 -5
-5z"/>
<path d="M1145 3405 c0 -319 1 -451 2 -293 2 158 2 419 0 580 -1 161 -2 32 -2
-287z"/>
<path d="M3100 3515 l0 -455 -227 0 c-126 0 -232 4 -238 8 -5 4 -32 40 -59 79
-123 185 -310 290 -536 301 -86 4 -121 1 -190 -17 -87 -21 -206 -75 -249 -111
-32 -28 -19 -37 16 -12 55 38 156 84 231 103 217 55 465 -14 625 -175 40 -39
88 -100 107 -134 l35 -61 196 -1 c140 0 200 -4 212 -12 16 -12 17 -37 15 -273
l-3 -260 -209 -5 -209 -5 -39 -64 c-70 -116 -154 -196 -268 -255 -161 -84
-311 -95 -530 -40 -20 5 -23 4 -13 -6 13 -14 192 -59 238 -60 35 0 145 24 231
51 133 42 264 145 346 270 l51 79 233 0 234 0 3 -177 c1 -98 4 242 5 755 1
512 0 932 -3 932 -3 0 -5 -205 -5 -455z m-13 -495 c9 -18 13 -91 13 -260 0
-246 -6 -281 -44 -288 -15 -3 -17 -1 -10 14 5 11 9 134 9 274 0 140 -4 263 -9
274 -14 29 26 16 41 -14z"/>
<path d="M1476 3680 c-1 -6 0 -98 2 -152 l2 -38 135 0 135 0 0 98 0 97 -136 0
c-75 0 -137 -2 -138 -5z m254 -95 l0 -85 -120 0 -120 0 0 85 0 85 120 0 120 0
0 -85z"/>
<path d="M2504 3681 c-2 -2 -4 -46 -4 -98 l0 -93 140 0 141 0 -3 96 -3 95
-133 2 c-74 1 -136 0 -138 -2z m256 -96 l0 -85 -120 0 -120 0 0 85 0 85 120 0
120 0 0 -85z"/>
<path d="M1322 3342 c-2 -23 -11 -41 -32 -59 -35 -29 -38 -60 -10 -91 27 -29
39 -28 50 6 5 15 16 39 24 54 14 25 13 29 -4 41 -10 7 -20 28 -23 47 l-4 35
-1 -33z"/>
<path d="M1215 3314 c-9 -14 -15 -27 -13 -30 2 -2 12 10 22 26 21 37 15 40 -9
4z"/>
<path d="M1463 3303 c-33 -6 -80 -66 -98 -125 -55 -186 32 -398 260 -637 92
-95 300 -271 323 -271 22 0 12 19 -25 47 -204 151 -384 340 -470 493 -65 115
-90 265 -62 361 18 57 61 105 96 104 34 0 54 -36 80 -139 13 -55 21 -70 44
-81 15 -8 36 -25 46 -37 31 -39 132 -121 267 -217 145 -103 182 -125 191 -112
3 5 -52 49 -121 97 -154 105 -288 212 -327 259 -16 19 -35 35 -42 35 -8 0 -16
8 -18 18 -58 208 -67 220 -144 205z"/>
<path d="M1191 3235 c-1 -36 28 -105 44 -105 3 0 -2 12 -12 27 -10 14 -20 47
-24 72 l-6 46 -2 -40z"/>
<path d="M1446 3165 c14 -97 46 -142 96 -132 21 4 21 4 -4 6 -33 1 -65 41 -73
90 -9 53 -26 87 -19 36z"/>
<path d="M1327 2875 c-10 -57 -9 -103 2 -109 5 -4 11 21 13 54 4 75 -6 111
-15 55z"/>
<path d="M1755 2840 c-4 -12 -5 -24 -2 -27 3 -2 8 5 12 17 4 12 5 24 2 27 -3
2 -8 -5 -12 -17z"/>
<path d="M2795 2853 c-31 -8 -67 -45 -62 -65 3 -9 0 -20 -7 -23 -8 -4 -8 -6 0
-10 7 -3 10 -14 7 -23 -2 -10 7 -28 22 -42 21 -20 37 -25 75 -25 83 0 129 67
95 139 -22 46 -69 64 -130 49z m66 -13 c28 -16 23 -31 -8 -24 -24 6 -25 5 -12
-8 7 -9 19 -14 25 -11 6 2 11 -9 12 -29 1 -32 0 -32 -15 -13 l-16 20 8 -20 c4
-11 9 -26 12 -33 3 -8 0 -10 -11 -6 -9 3 -16 10 -16 15 0 5 -5 9 -10 9 -6 0
-5 -8 2 -20 7 -11 19 -20 26 -20 15 0 32 41 32 76 0 14 4 22 10 19 14 -9 12 8
-2 25 -11 12 -10 12 4 1 19 -14 15 -70 -9 -111 l-14 -25 20 24 c12 13 21 19
21 14 0 -29 -71 -58 -115 -47 -27 7 -35 34 -10 34 8 0 15 5 15 11 0 5 -4 7
-10 4 -5 -3 -10 -3 -10 2 0 4 -3 18 -6 31 -4 14 -2 22 6 22 7 0 10 -7 6 -15
-3 -8 -1 -15 4 -15 14 0 12 24 -2 38 -20 20 1 26 23 6 22 -19 22 -19 8 4 -8
12 -20 22 -27 22 -15 0 -32 -41 -32 -76 0 -14 -4 -22 -10 -19 -14 9 -12 -8 3
-25 10 -12 9 -12 -3 -3 -18 14 -20 107 -2 125 7 7 12 9 12 4 0 -4 10 0 22 8
26 19 42 20 69 6z"/>
<path d="M2755 2809 c-4 -6 -5 -12 -2 -15 2 -3 7 2 10 11 7 17 1 20 -8 4z"/>
<path d="M1795 2820 c-4 -12 -5 -24 -2 -27 3 -2 8 5 12 17 4 12 5 24 2 27 -3
2 -8 -5 -12 -17z"/>
<path d="M1105 2738 c3 -13 16 -81 30 -152 13 -71 26 -131 29 -133 3 -3 23 10
46 28 47 38 28 49 150 -91 41 -47 83 -95 94 -108 l20 -22 -43 -37 -43 -37 152
-53 c84 -29 154 -52 156 -50 3 3 -50 283 -59 310 -1 4 -22 -9 -45 -29 -24 -20
-44 -35 -46 -33 -1 2 -51 60 -111 128 l-108 125 43 37 c32 28 40 40 30 44 -47
17 -285 95 -292 95 -5 0 -6 -10 -3 -22z"/>
<path d="M1068 2325 c-1 -110 1 -215 5 -233 12 -48 55 -92 102 -102 53 -12
562 -13 550 -1 -6 5 -34 16 -64 25 -42 12 -102 16 -268 16 -128 0 -222 4 -234
10 -38 21 -49 62 -49 192 -1 81 -7 152 -20 208 l-18 85 -4 -200z"/>
<path d="M1142 2219 c-2 -92 1 -119 14 -135 8 -10 12 -12 7 -4 -4 8 -11 69
-14 135 l-5 120 -2 -116z"/>
<path d="M1666 1811 c-10 -10 -13 -21 -8 -24 4 -4 16 3 25 14 14 16 21 17 37
9 26 -14 25 -35 0 -53 -20 -14 -19 -14 5 -25 27 -12 33 -40 13 -60 -17 -17
-47 -15 -54 3 -7 18 -37 20 -32 3 3 -7 17 -20 31 -28 24 -13 30 -13 55 0 29
17 42 64 23 83 -5 5 -7 23 -4 38 3 17 0 35 -7 44 -17 21 -64 19 -84 -4z"/>
<path d="M2264 1793 c-27 -64 0 -153 48 -153 37 0 58 36 58 98 0 67 -18 92
-64 92 -22 0 -30 -7 -42 -37z m81 -6 c19 -73 -13 -148 -49 -118 -16 14 -24
120 -9 134 16 17 53 6 58 -16z"/>
<path d="M2496 1822 c-9 -15 -19 -92 -12 -92 3 0 15 6 26 12 25 16 54 1 58
-31 7 -43 -46 -71 -66 -35 -5 9 -15 15 -22 12 -21 -7 25 -48 54 -48 34 0 69
46 61 80 -8 32 -34 52 -62 47 -19 -3 -23 0 -23 19 0 21 5 24 40 24 22 0 40 5
40 10 0 12 -87 14 -94 2z"/>
<path d="M2090 1775 c-30 -13 -56 -29 -58 -37 -3 -16 105 -65 116 -53 4 4 3 9
-3 12 -5 2 -28 12 -50 22 l-40 19 48 20 c26 12 47 26 47 32 0 5 -1 10 -2 9 -2
0 -28 -11 -58 -24z"/>
<path d="M1810 1783 c0 -3 7 -15 17 -25 15 -17 15 -19 -2 -38 -24 -26 -11 -39
15 -15 19 17 21 17 40 0 11 -10 23 -15 27 -12 3 4 -2 16 -12 27 -17 19 -17 21
0 40 24 26 11 39 -15 15 -19 -17 -21 -17 -38 -2 -19 18 -32 22 -32 10z"/>
<path d="M2701 1763 c-13 -26 1 -45 41 -59 18 -6 33 -17 33 -25 0 -20 -34 -23
-54 -5 -23 21 -36 8 -14 -16 30 -33 93 -16 93 27 0 20 -8 26 -40 36 -40 12
-52 32 -26 42 7 3 24 -1 36 -10 20 -14 22 -14 18 3 -5 27 -73 32 -87 7z"/>
<path d="M2414 1654 c3 -9 6 -23 6 -32 0 -15 2 -15 10 -2 15 23 12 50 -6 50
-11 0 -14 -5 -10 -16z"/>
<path d="M2790 1485 c0 -103 -1 -105 -20 -95 -28 15 -25 1 6 -31 l26 -28 24
29 c25 29 34 54 12 32 -24 -24 -28 -10 -28 93 0 63 -4 105 -10 105 -6 0 -10
-42 -10 -105z"/>
<path d="M2617 1241 c-58 -37 -87 -91 -87 -161 0 -63 18 -106 61 -146 60 -55
133 -68 204 -35 39 17 41 17 80 0 65 -30 144 -20 191 23 21 19 22 19 58 -6 20
-13 50 -28 67 -31 48 -11 116 4 148 31 l29 24 37 -24 c75 -51 162 -46 227 12
50 45 68 85 68 152 0 117 -85 196 -201 188 -42 -3 -66 -11 -92 -31 -22 -16
-38 -23 -42 -17 -14 22 -86 50 -130 50 -50 0 -103 -18 -123 -43 -12 -14 -18
-13 -60 14 -55 35 -127 39 -182 12 -33 -17 -37 -17 -70 -1 -56 28 -127 24
-183 -11z m385 8 c85 -23 142 -129 118 -218 -13 -49 -58 -104 -100 -121 -36
-15 -132 -9 -154 9 -14 12 -14 16 3 40 48 69 51 159 5 227 -14 20 -23 38 -20
41 7 8 80 32 96 33 8 0 32 -5 52 -11z m609 -24 c84 -55 100 -184 33 -265 -36
-42 -74 -60 -129 -60 -48 0 -113 24 -121 45 -3 6 2 28 11 48 20 48 19 128 -2
172 -15 32 -15 37 -1 51 47 47 145 52 209 9z m-792 -4 c39 -28 70 -91 71 -143
0 -97 -77 -178 -170 -178 -179 0 -240 235 -86 332 44 27 139 21 185 -11z m501
7 c92 -63 111 -176 45 -264 -57 -75 -189 -86 -244 -20 -10 12 -9 21 4 46 21
41 21 129 -1 175 -10 21 -13 40 -8 45 45 44 151 54 204 18z"/>
<path d="M3800 995 c0 -8 5 -15 10 -15 6 0 10 7 10 15 0 8 -4 15 -10 15 -5 0
-10 -7 -10 -15z"/>
<path d="M3890 995 c0 -8 5 -15 10 -15 6 0 10 7 10 15 0 8 -4 15 -10 15 -5 0
-10 -7 -10 -15z"/>
<path d="M3980 995 c0 -8 5 -15 10 -15 6 0 10 7 10 15 0 8 -4 15 -10 15 -5 0
-10 -7 -10 -15z"/>
<path d="M4000 814 c0 -104 0 -105 -22 -98 -21 6 -21 6 3 -24 l24 -30 28 26
c32 30 36 47 7 32 -19 -10 -20 -8 -20 95 0 63 -4 105 -10 105 -6 0 -10 -42
-10 -106z"/>
<path d="M3945 461 c-110 -50 -145 -182 -74 -280 37 -52 81 -75 144 -75 63 0
107 23 144 75 71 98 36 230 -74 280 -51 23 -89 23 -140 0z"/>
</g>
</svg>
