<?xml version="1.0" standalone="no"?>
<!DOCTYPE svg PUBLIC "-//W3C//DTD SVG 20010904//EN"
 "http://www.w3.org/TR/2001/REC-SVG-20010904/DTD/svg10.dtd">
<svg version="1.0" xmlns="http://www.w3.org/2000/svg"
 width="123.000000pt" height="146.000000pt" viewBox="0 0 123.000000 146.000000"
 preserveAspectRatio="xMidYMid meet">

<g transform="translate(0.000000,146.000000) scale(0.100000,-0.100000)"
fill="#000000" stroke="none">
<path d="M685 1278 c-168 -97 -217 -121 -243 -119 -25 1 -62 -14 -145 -61
-166 -93 -157 -76 -157 -289 0 -108 4 -180 10 -184 6 -4 10 -100 10 -256 0
-137 4 -249 9 -249 5 0 11 -13 14 -28 4 -17 16 -33 31 -40 24 -11 54 4 411
211 l385 222 0 441 0 442 -26 17 c-20 13 -32 15 -49 7 -13 -6 -26 -7 -32 -1
-5 5 -93 -40 -218 -113z m284 77 c-13 -8 -183 -106 -378 -219 -303 -176 -357
-204 -374 -194 -20 10 -20 11 -1 21 10 6 180 104 378 218 310 180 361 207 379
197 20 -10 20 -11 -4 -23z m-76 14 c-5 -5 -167 -101 -359 -212 l-349 -202 3
-412 c1 -274 -1 -413 -8 -413 -12 0 -14 819 -2 836 4 6 26 21 49 34 23 13 39
28 36 33 -3 6 -1 7 5 3 7 -4 21 -1 33 7 20 14 20 16 2 26 -10 6 -13 11 -7 11
5 0 15 -5 21 -11 10 -10 150 66 498 270 68 39 100 52 78 30z m95 -451 l-3
-432 -369 -214 c-285 -164 -375 -212 -393 -207 l-23 5 0 435 c0 382 2 434 15
429 13 -5 15 -60 17 -398 l3 -391 5 390 5 390 365 212 c201 117 368 213 373
213 4 0 6 -194 5 -432z m-793 75 c-23 -16 -38 -17 -32 0 2 6 12 11 22 9 11 -2
14 1 9 9 -5 8 -3 10 6 4 10 -6 9 -11 -5 -22z"/>
<path d="M615 1001 l-250 -147 -3 -292 c-2 -274 -1 -292 15 -292 10 1 128 65
263 143 l245 143 3 264 c3 255 -1 331 -16 329 -4 0 -119 -67 -257 -148z m265
-166 l0 -272 -232 -134 c-127 -74 -235 -136 -240 -137 -4 -2 -8 119 -8 270 l0
273 234 135 c129 74 233 136 231 138 -2 2 -110 -58 -242 -134 l-238 -137 3
-274 c2 -182 -1 -273 -8 -273 -7 0 -10 93 -10 275 l0 275 27 17 c14 10 124 75
242 144 156 92 219 124 229 117 9 -8 12 -77 12 -283z"/>
<path d="M745 991 c22 -4 50 -13 63 -19 12 -7 22 -10 22 -8 0 13 -62 36 -92
35 -32 -1 -32 -2 7 -8z"/>
<path d="M537 878 c-40 -50 -77 -108 -77 -123 0 -5 12 10 27 35 14 25 36 56
47 70 34 39 49 60 43 60 -3 0 -21 -19 -40 -42z"/>
<path d="M740 825 c-13 -13 -51 -39 -86 -57 -34 -18 -58 -35 -52 -39 5 -3 -5
-11 -24 -18 -30 -10 -31 -9 -14 4 24 18 7 20 -18 2 -14 -10 -16 -26 -14 -97 3
-82 4 -85 26 -83 32 4 137 57 183 94 l39 31 0 88 c0 49 -4 91 -9 94 -4 3 -18
-6 -31 -19z m-5 -25 c-22 -24 -99 -70 -117 -70 -7 0 12 14 42 31 30 16 62 36
70 44 22 22 26 18 5 -5z m35 -56 c0 -63 -2 -68 -35 -100 -34 -31 -149 -94
-174 -94 -8 0 -11 22 -9 71 l3 71 58 24 c32 13 80 39 105 58 26 20 48 36 50
36 1 0 2 -30 2 -66z"/>
<path d="M795 608 c-15 -24 -43 -63 -62 -88 l-35 -45 44 47 c38 42 95 128 85
128 -3 0 -17 -19 -32 -42z"/>
<path d="M637 492 c-18 -20 -23 -52 -8 -52 14 0 52 51 45 61 -8 14 -19 11 -37
-9z"/>
<path d="M460 442 c0 -16 56 -34 91 -29 33 4 32 4 -6 5 -22 1 -51 9 -63 18
-12 8 -22 11 -22 6z"/>
</g>
</svg>
