<svg id="svg" xmlns="http://www.w3.org/2000/svg" xmlns:xlink="http://www.w3.org/1999/xlink" width="400" height="520.2185792349726" viewBox="0, 0, 400,520.2185792349726"><g id="svgg"><path id="path0" d="M327.067 25.241 L 321.347 28.575 317.047 26.159 C 311.243 22.897,317.563 19.705,234.015 68.093 L 159.287 111.372 154.234 108.865 C 144.095 103.835,147.411 102.294,63.530 151.024 C 54.814 156.087,52.742 157.858,49.617 162.913 L 45.945 168.852 45.856 232.098 C 45.767 294.536,45.795 295.374,48.020 297.742 C 50.257 300.124,50.273 300.766,50.273 387.723 L 50.273 475.305 55.142 478.654 C 60.005 482.001,60.011 482.012,60.333 489.325 L 60.656 496.645 69.292 501.481 C 76.298 505.404,78.424 506.133,80.559 505.344 C 85.105 503.664,351.762 349.242,352.300 347.978 C 352.581 347.317,352.532 275.906,352.191 189.288 L 351.571 31.801 343.516 26.829 C 333.999 20.956,334.357 20.991,327.067 25.241 M342.814 30.610 L 347.632 33.666 341.302 37.470 C 327.779 45.598,80.078 188.970,79.016 189.284 C 77.815 189.640,64.513 182.382,64.493 181.359 C 64.478 180.604,311.800 36.999,324.590 30.336 C 334.700 25.070,334.062 25.061,342.814 30.610 M314.934 29.055 C 316.776 30.008,317.859 31.194,317.339 31.692 C 313.026 35.822,61.685 180.074,60.214 179.263 C 53.692 175.669,53.738 175.484,62.386 170.522 C 66.844 167.964,73.689 164.013,77.596 161.742 C 81.503 159.470,90.601 154.189,97.814 150.004 C 105.027 145.820,121.635 136.177,134.720 128.575 C 147.805 120.974,158.943 114.754,159.470 114.754 C 159.998 114.754,194.292 95.108,235.679 71.097 C 277.067 47.085,311.076 27.413,311.256 27.381 C 311.437 27.349,313.091 28.102,314.934 29.055 M348.587 191.530 L 348.540 346.995 214.578 424.370 C 140.899 466.927,80.469 501.598,80.289 501.418 C 79.281 500.410,79.517 192.177,80.526 191.168 C 81.966 189.728,346.709 36.129,347.814 36.093 C 348.265 36.078,348.613 106.025,348.587 191.530 M153.219 112.132 C 155.769 113.451,156.235 114.109,155.109 114.805 C 153.883 115.563,148.961 113.492,145.446 110.739 C 143.891 109.521,150.439 110.695,153.219 112.132 M147.703 114.194 C 150.319 115.690,151.721 116.897,150.820 116.877 C 148.462 116.825,138.988 111.584,141.145 111.525 C 142.136 111.498,145.087 112.699,147.703 114.194 M214.676 164.973 L 125.137 217.266 124.858 321.321 C 124.593 420.180,124.675 425.333,126.497 424.547 C 127.552 424.091,129.891 423.628,131.694 423.518 C 134.465 423.349,296.452 330.897,307.459 323.204 L 310.546 321.046 309.785 221.452 C 309.038 123.858,308.979 121.810,306.832 119.455 C 305.627 118.133,304.928 116.304,305.278 115.391 C 306.798 111.432,299.716 115.308,214.676 164.973 M144.428 115.932 C 148.702 118.112,148.791 118.263,146.681 119.741 C 144.728 121.109,143.922 120.968,139.455 118.471 C 130.934 113.708,135.501 111.377,144.428 115.932 M138.251 119.701 C 140.656 121.182,141.989 122.396,141.213 122.399 C 139.604 122.405,131.148 118.259,131.148 117.464 C 131.148 116.238,134.179 117.193,138.251 119.701 M303.845 120.071 L 307.197 122.109 223.271 170.484 C 177.111 197.089,138.012 219.627,136.384 220.567 C 133.384 222.299,127.323 220.717,128.117 218.410 C 128.445 217.457,298.387 118.033,299.687 118.033 C 300.131 118.033,302.002 118.950,303.845 120.071 M134.684 121.443 C 138.911 123.599,139.085 123.863,137.199 125.242 C 135.438 126.529,134.483 126.348,129.913 123.861 C 121.507 119.286,125.996 117.011,134.684 121.443 M128.415 125.108 C 130.820 126.589,132.295 127.794,131.694 127.785 C 129.830 127.759,120.667 122.506,122.404 122.459 C 123.306 122.435,126.011 123.627,128.415 125.108 M308.197 222.308 L 308.197 321.119 222.946 370.432 C 176.059 397.553,136.960 420.026,136.061 420.372 C 134.617 420.926,134.431 409.471,134.471 322.248 L 134.516 223.497 221.083 173.558 C 268.695 146.092,307.773 123.592,307.923 123.558 C 308.074 123.525,308.197 167.962,308.197 222.308 M124.848 126.907 C 129.069 129.061,129.247 129.329,127.370 130.702 C 125.615 131.985,124.664 131.794,120.131 129.245 C 111.888 124.612,116.179 122.485,124.848 126.907 M118.182 130.131 C 120.621 131.375,122.371 132.638,122.071 132.938 C 121.771 133.238,119.141 132.243,116.227 130.727 C 113.313 129.211,111.563 127.948,112.339 127.920 C 113.114 127.892,115.744 128.887,118.182 130.131 M115.231 132.439 C 119.840 134.678,120.010 134.913,118.024 136.304 C 116.171 137.602,115.230 137.397,110.415 134.647 C 102.081 129.887,106.144 128.024,115.231 132.439 M109.451 136.052 C 112.067 137.548,113.470 138.755,112.568 138.735 C 110.210 138.683,100.737 133.442,102.894 133.383 C 103.884 133.356,106.835 134.557,109.451 136.052 M106.054 137.727 C 111.003 140.252,111.136 140.503,108.321 142.010 C 106.728 142.863,104.984 142.417,100.662 140.053 C 92.287 135.473,97.353 133.288,106.054 137.727 M100.000 141.559 C 102.404 143.039,103.737 144.254,102.962 144.257 C 101.353 144.263,92.896 140.117,92.896 139.322 C 92.896 138.096,95.928 139.050,100.000 141.559 M96.432 143.301 C 100.625 145.440,100.821 145.730,98.983 147.074 C 96.729 148.723,85.637 144.096,86.909 142.038 C 87.960 140.338,91.561 140.816,96.432 143.301 M90.164 146.966 C 95.888 150.492,93.427 150.527,87.270 147.008 C 84.654 145.512,83.251 144.285,84.153 144.281 C 85.055 144.277,87.760 145.485,90.164 146.966 M86.816 148.832 C 91.461 151.089,91.608 151.297,89.572 152.723 C 87.678 154.050,86.774 153.877,81.994 151.275 C 73.320 146.554,77.631 144.370,86.816 148.832 M79.931 151.989 C 82.370 153.233,84.119 154.496,83.819 154.796 C 83.519 155.096,80.890 154.101,77.976 152.585 C 75.062 151.069,73.312 149.806,74.087 149.778 C 74.863 149.750,77.492 150.745,79.931 151.989 M77.526 154.547 C 82.202 156.992,82.288 157.128,79.962 158.373 C 77.922 159.465,76.721 159.197,72.166 156.637 C 63.772 151.918,68.772 149.969,77.526 154.547 M71.200 157.910 C 73.816 159.406,75.219 160.613,74.317 160.593 C 71.959 160.541,62.486 155.300,64.643 155.241 C 65.633 155.213,68.584 156.415,71.200 157.910 M67.778 159.997 L 72.391 162.617 61.878 168.804 L 51.366 174.991 51.366 181.549 C 51.366 185.643,50.955 187.853,50.273 187.432 C 47.686 185.833,48.974 171.382,51.639 172.103 L 54.098 172.769 51.694 171.348 L 49.291 169.927 52.465 164.827 C 57.521 156.704,60.388 155.800,67.778 159.997 M56.831 160.065 C 56.831 160.365,58.798 161.615,61.202 162.842 C 63.607 164.068,65.574 164.826,65.574 164.525 C 65.574 164.225,63.607 162.975,61.202 161.749 C 58.798 160.522,56.831 159.764,56.831 160.065 M61.189 329.781 C 61.196 411.079,60.909 477.596,60.551 477.596 C 60.193 477.596,58.472 476.579,56.726 475.335 L 53.552 473.075 53.552 325.052 L 53.552 177.029 57.364 179.498 L 61.175 181.967 61.189 329.781 M70.660 187.485 L 77.596 191.364 77.596 346.502 C 77.596 431.827,77.402 501.639,77.166 501.639 C 76.929 501.639,73.856 500.022,70.335 498.046 L 63.934 494.452 63.223 485.204 C 62.288 473.039,62.083 183.607,63.010 183.607 C 63.403 183.607,66.845 185.352,70.660 187.485 M51.366 196.175 C 51.366 197.678,50.874 198.907,50.273 198.907 C 49.672 198.907,49.180 197.678,49.180 196.175 C 49.180 194.672,49.672 193.443,50.273 193.443 C 50.874 193.443,51.366 194.672,51.366 196.175 M51.366 207.715 C 51.366 208.881,50.874 209.836,50.273 209.836 C 49.672 209.836,49.180 208.578,49.180 207.039 C 49.180 205.453,49.653 204.535,50.273 204.918 C 50.874 205.290,51.366 206.548,51.366 207.715 M51.366 256.413 C 51.366 282.729,50.994 296.074,50.273 295.628 C 49.577 295.198,49.180 280.477,49.180 255.062 C 49.180 228.747,49.552 215.401,50.273 215.847 C 50.970 216.277,51.366 230.998,51.366 256.413 M129.457 222.033 L 132.240 223.302 132.240 322.529 L 132.240 421.756 128.969 419.895 L 125.697 418.033 125.690 319.399 C 125.686 265.150,125.906 220.765,126.178 220.765 C 126.450 220.765,127.926 221.336,129.457 222.033 M191.747 229.828 C 179.861 242.066,166.987 269.119,167.267 281.270 C 167.296 282.555,168.472 279.180,169.879 273.770 C 175.306 252.901,183.515 237.998,195.614 227.049 C 199.434 223.593,202.106 220.765,201.553 220.765 C 201.000 220.765,196.588 224.843,191.747 229.828 M272.407 233.333 C 272.419 235.738,272.643 236.593,272.904 235.233 C 273.166 233.874,273.156 231.906,272.882 230.862 C 272.609 229.817,272.395 230.929,272.407 233.333 M273.637 251.366 C 273.637 258.279,273.815 261.107,274.032 257.650 C 274.249 254.194,274.249 248.538,274.032 245.082 C 273.815 241.626,273.637 244.454,273.637 251.366 M272.407 268.306 C 272.419 270.710,272.643 271.565,272.904 270.206 C 273.166 268.846,273.156 266.879,272.882 265.834 C 272.609 264.789,272.395 265.902,272.407 268.306 M226.241 274.849 C 224.294 277.195,225.704 280.485,227.882 278.678 C 229.635 277.223,230.124 273.224,228.549 273.224 C 228.022 273.224,226.983 273.955,226.241 274.849 M270.553 277.110 C 270.141 279.303,270.023 281.316,270.290 281.583 C 270.557 281.851,271.113 280.275,271.524 278.081 C 271.935 275.888,272.054 273.875,271.786 273.608 C 271.519 273.341,270.964 274.917,270.553 277.110 M267.293 289.358 C 263.628 301.138,254.590 317.411,246.760 326.330 C 244.961 328.379,243.909 330.053,244.422 330.050 C 248.922 330.028,272.613 286.457,269.707 283.550 C 269.452 283.295,268.365 285.909,267.293 289.358 M166.396 287.978 C 166.408 290.383,166.632 291.237,166.893 289.878 C 167.155 288.519,167.145 286.551,166.871 285.506 C 166.598 284.461,166.384 285.574,166.396 287.978 M165.459 307.650 C 165.460 316.066,165.632 319.364,165.840 314.980 C 166.048 310.595,166.046 303.710,165.837 299.679 C 165.627 295.648,165.457 299.235,165.459 307.650 " stroke="none" fill="#000000" fill-rule="evenodd"></path></g></svg>