<?xml version="1.0" standalone="no"?>
<!DOCTYPE svg PUBLIC "-//W3C//DTD SVG 20010904//EN"
 "http://www.w3.org/TR/2001/REC-SVG-20010904/DTD/svg10.dtd">
<svg version="1.0" xmlns="http://www.w3.org/2000/svg"
 width="126.000000pt" height="179.000000pt" viewBox="0 0 126.000000 179.000000"
 preserveAspectRatio="xMidYMid meet">

<g transform="translate(0.000000,179.000000) scale(0.100000,-0.100000)"
fill="#000000" stroke="none">
<path d="M1057 1729 c-10 -6 -29 -8 -41 -5 -17 4 -89 -33 -282 -145 -241 -139
-262 -149 -297 -143 -34 5 -51 -2 -180 -76 -78 -45 -154 -95 -169 -111 l-28
-29 0 -220 c0 -135 4 -221 10 -225 6 -4 10 -122 10 -321 0 -270 2 -315 15
-320 8 -4 15 -17 15 -29 0 -26 42 -65 69 -65 9 1 227 123 486 273 l470 273 3
556 2 557 -29 20 c-33 24 -30 24 -54 10z m44 -20 c11 -5 17 -14 14 -20 -4 -5
-1 -9 4 -9 8 0 11 -167 11 -542 l-1 -543 -460 -265 c-252 -146 -464 -266 -469
-268 -6 -2 -11 127 -12 360 l-3 363 -2 -362 c-3 -372 -4 -378 -41 -355 -10 7
-12 124 -10 556 l3 547 23 -21 22 -21 23 22 22 21 -22 -11 c-23 -12 -63 -1
-63 17 0 4 -10 8 -21 9 -17 2 -19 -1 -10 -10 13 -13 16 -1037 3 -1037 -5 0
-12 235 -16 521 -7 494 -6 522 11 542 10 11 12 17 5 13 -22 -13 -34 5 -16 25
19 21 39 25 50 8 4 -8 -1 -9 -16 -4 -20 6 -21 5 -9 -8 16 -18 4 -23 192 85 75
44 135 84 132 89 -4 5 0 6 8 3 8 -3 131 63 274 146 231 133 307 170 289 141
-4 -5 3 -7 14 -4 11 3 23 9 26 14 7 12 21 11 45 -2z m-686 -309 c3 -5 2 -10
-4 -10 -5 0 -13 5 -16 10 -3 6 -2 10 4 10 5 0 13 -4 16 -10z m-35 -20 c0 -5
-7 -7 -15 -4 -8 4 -15 8 -15 10 0 2 7 4 15 4 8 0 15 -4 15 -10z m-30 -21 c0
-4 -7 -6 -15 -3 -8 4 -15 10 -15 15 0 4 7 6 15 3 8 -4 15 -10 15 -15z m-39
-17 c-7 -2 -18 1 -23 6 -8 8 -4 9 13 5 13 -4 18 -8 10 -11z m-36 -20 c-3 -3
-11 0 -18 7 -9 10 -8 11 6 5 10 -3 15 -9 12 -12z m-25 -18 c0 -2 -7 -4 -15 -4
-8 0 -15 4 -15 10 0 5 7 7 15 4 8 -4 15 -8 15 -10z m-40 -14 c13 -8 13 -10 -2
-10 -9 0 -20 5 -23 10 -8 13 5 13 25 0z m-30 -20 c13 -8 13 -10 -2 -10 -9 0
-20 5 -23 10 -8 13 5 13 25 0z"/>
<path d="M943 1659 c-29 -17 -53 -33 -53 -36 0 -5 89 44 105 58 16 16 1 9 -52
-22z"/>
<path d="M1043 1649 c-29 -17 -53 -33 -53 -36 0 -5 89 44 105 58 16 16 1 9
-52 -22z"/>
<path d="M848 1604 c-38 -20 -36 -28 2 -9 17 9 30 18 30 20 0 7 -1 6 -32 -11z"/>
<path d="M948 1594 c-38 -20 -36 -28 2 -9 17 9 30 18 30 20 0 7 -1 6 -32 -11z"/>
<path d="M784 1564 c-18 -14 -18 -15 4 -4 12 6 22 13 22 15 0 8 -5 6 -26 -11z"/>
<path d="M884 1554 c-18 -14 -18 -15 4 -4 12 6 22 13 22 15 0 8 -5 6 -26 -11z"/>
<path d="M728 1534 c-38 -20 -36 -28 2 -9 17 9 30 18 30 20 0 7 -1 6 -32 -11z"/>
<path d="M828 1524 c-38 -20 -36 -28 2 -9 17 9 30 18 30 20 0 7 -1 6 -32 -11z"/>
<path d="M633 1479 c-29 -17 -53 -33 -53 -36 0 -5 89 44 105 58 16 16 1 9 -52
-22z"/>
<path d="M758 1484 c-38 -20 -36 -28 2 -9 17 9 30 18 30 20 0 7 -1 6 -32 -11z"/>
<path d="M694 1444 c-18 -14 -18 -15 4 -4 12 6 22 13 22 15 0 8 -5 6 -26 -11z"/>
<path d="M538 1424 c-38 -20 -36 -28 2 -9 17 9 30 18 30 20 0 7 -1 6 -32 -11z"/>
<path d="M638 1414 c-38 -20 -36 -28 2 -9 17 9 30 18 30 20 0 7 -1 6 -32 -11z"/>
<path d="M653 1236 l-313 -181 0 -368 c0 -206 4 -367 9 -365 5 2 149 84 320
183 l311 180 0 368 c0 202 -3 367 -7 366 -5 -1 -149 -83 -320 -183z m305 -197
l-3 -351 -127 -74 c-70 -41 -132 -74 -138 -74 -5 0 -10 -4 -10 -10 0 -5 -3 -9
-7 -9 -18 3 -31 -2 -53 -21 -29 -25 -245 -150 -260 -150 -7 0 -9 110 -8 347
l3 348 295 172 c162 94 298 172 303 172 4 1 6 -157 5 -350z"/>
<path d="M726 1050 c38 -8 104 -48 104 -61 0 -5 6 -9 13 -9 27 0 50 -28 62
-76 8 -27 14 -39 14 -26 2 43 -27 90 -70 118 -23 14 -52 35 -63 45 -12 12 -33
19 -55 18 l-36 -1 31 -8z"/>
<path d="M622 1005 c-42 -37 -102 -143 -101 -179 0 -12 6 -5 13 19 21 65 45
105 93 151 54 53 52 57 -5 9z"/>
<path d="M724 935 c-43 -44 -94 -133 -93 -165 0 -8 9 7 19 34 26 66 67 123
109 152 20 13 30 24 23 24 -7 0 -33 -20 -58 -45z"/>
<path d="M901 838 c0 -9 -4 -25 -7 -35 -5 -17 -5 -17 6 0 6 10 9 25 7 35 -4
15 -5 15 -6 0z"/>
<path d="M512 780 c0 -14 2 -19 5 -12 2 6 2 18 0 25 -3 6 -5 1 -5 -13z"/>
<path d="M861 740 c-12 -21 -41 -56 -64 -76 -23 -20 -33 -32 -22 -26 36 19
124 126 113 138 -3 2 -14 -14 -27 -36z"/>
<path d="M521 734 c0 -11 3 -14 6 -6 3 7 2 16 -1 19 -3 4 -6 -2 -5 -13z"/>
<path d="M624 702 c2 -38 8 -57 22 -67 31 -23 47 -17 19 8 -16 13 -29 39 -35
67 l-9 45 3 -53z"/>
<path d="M530 701 c0 -11 68 -47 75 -39 3 3 -12 15 -35 27 -22 11 -40 17 -40
12z"/>
<path d="M728 623 c7 -3 16 -2 19 1 4 3 -2 6 -13 5 -11 0 -14 -3 -6 -6z"/>
<path d="M474 1384 c-18 -14 -18 -15 4 -4 12 6 22 13 22 15 0 8 -5 6 -26 -11z"/>
<path d="M543 1359 c-29 -17 -53 -33 -53 -36 0 -5 89 44 105 58 16 16 1 9 -52
-22z"/>
<path d="M418 1354 c-38 -20 -36 -28 2 -9 17 9 30 18 30 20 0 7 -1 6 -32 -11z"/>
<path d="M348 1314 c-38 -20 -36 -28 2 -9 17 9 30 18 30 20 0 7 -1 6 -32 -11z"/>
<path d="M448 1304 c-38 -20 -36 -28 2 -9 17 9 30 18 30 20 0 7 -1 6 -32 -11z"/>
<path d="M284 1274 c-18 -14 -18 -15 4 -4 12 6 22 13 22 15 0 8 -5 6 -26 -11z"/>
<path d="M384 1264 c-18 -14 -18 -15 4 -4 12 6 22 13 22 15 0 8 -5 6 -26 -11z"/>
<path d="M228 1244 c-38 -20 -36 -28 2 -9 17 9 30 18 30 20 0 7 -1 6 -32 -11z"/>
<path d="M328 1234 c-38 -20 -36 -28 2 -9 17 9 30 18 30 20 0 7 -1 6 -32 -11z"/>
<path d="M164 1204 c-18 -14 -18 -15 4 -4 12 6 22 13 22 15 0 8 -5 6 -26 -11z"/>
<path d="M258 1194 c-38 -20 -36 -28 2 -9 17 9 30 18 30 20 0 7 -1 6 -32 -11z"/>
</g>
</svg>
