<?xml version="1.0" standalone="no"?>
<!DOCTYPE svg PUBLIC "-//W3C//DTD SVG 20010904//EN"
 "http://www.w3.org/TR/2001/REC-SVG-20010904/DTD/svg10.dtd">
<svg version="1.0" xmlns="http://www.w3.org/2000/svg"
 width="431.000000pt" height="481.000000pt" viewBox="0 0 431.000000 481.000000"
 preserveAspectRatio="xMidYMid meet">
<metadata>
Created by potrace 1.16, written by Peter Selinger 2001-2019
</metadata>
<g transform="translate(0.000000,481.000000) scale(0.100000,-0.100000)"
fill="#000000" stroke="none">
<path d="M1385 4531 c-671 -97 -1230 -183 -1242 -189 l-23 -13 0 -1829 0
-1830 145 -220 c80 -121 145 -224 145 -229 0 -18 80 -80 117 -90 21 -6 66 -11
100 -11 62 0 2148 296 2276 323 42 9 78 24 93 38 l24 22 0 1845 0 1844 -30 30
c-16 16 -30 37 -30 46 0 20 -229 375 -263 410 -13 12 -39 24 -58 26 -18 3
-583 -75 -1254 -173z m1284 116 c34 -42 249 -382 245 -389 -3 -4 -41 -8 -84
-8 -99 0 -2284 -313 -2336 -335 -81 -34 -83 -32 -200 148 -126 192 -142 223
-126 239 11 11 2361 355 2443 357 28 1 51 -4 58 -12z m229 -426 c9 -5 29 -14
45 -20 22 -9 27 -17 27 -44 0 -28 -5 -36 -36 -50 -44 -22 -2223 -337 -2322
-337 -101 1 -191 48 -166 88 28 44 63 51 1176 212 1040 150 1233 173 1276 151z
m-2623 -166 c77 -118 114 -167 131 -171 l24 -6 0 -1796 c0 -1068 -3 -1792 -9
-1787 -5 6 -66 97 -135 204 l-126 194 0 1763 c0 970 2 1764 4 1764 2 0 52 -74
111 -165z m2689 -3544 c-11 -12 -117 -40 -157 -41 -16 0 -17 90 -15 1792 l3
1792 67 12 c37 7 75 17 85 23 17 9 18 -66 23 -1777 4 -1326 2 -1790 -6 -1801z
m-194 1750 c0 -1074 -4 -1792 -9 -1795 -8 -5 -2015 -296 -2041 -296 -7 0 -10
645 -10 1793 l0 1793 1013 146 c556 80 1020 146 1030 147 16 1 17 -90 17
-1788z m-2147 1489 l67 0 0 -1795 0 -1795 -52 0 c-70 0 -121 15 -158 46 l-30
26 0 1777 0 1778 53 -18 c29 -11 81 -18 120 -19z"/>
<path d="M3620 4540 c-135 -21 -253 -41 -263 -45 -10 -4 -23 -19 -28 -32 -5
-15 -9 -754 -9 -1839 l0 -1815 90 -138 c49 -76 101 -144 115 -151 21 -11 63
-8 311 29 284 41 317 49 341 80 10 12 12 421 13 1837 0 1768 -1 1822 -19 1845
-10 13 -46 70 -80 126 -34 56 -74 111 -88 123 -36 28 -89 25 -383 -20z m367
-22 c24 -28 113 -175 113 -188 0 -6 -15 -10 -34 -10 -63 0 -519 -70 -547 -84
l-28 -14 -66 100 c-36 55 -65 104 -65 108 0 22 52 35 282 70 308 46 318 47
345 18z m-557 -238 l60 -89 -2 -1777 -3 -1777 -59 88 -59 89 -5 1778 c-3 978
-2 1778 1 1778 4 0 34 -40 67 -90z m702 3 c39 -36 37 -36 -256 -79 -265 -38
-323 -41 -352 -19 -19 15 -19 15 0 30 10 8 37 17 60 20 22 4 124 19 226 34
224 34 296 37 322 14z m18 -1837 l0 -1785 -22 -15 c-12 -9 -26 -16 -30 -16 -5
0 -8 806 -8 1790 l0 1791 23 9 c12 5 25 9 30 9 4 1 7 -802 7 -1783z m-82 -28
l-3 -1792 -190 -27 c-104 -15 -207 -30 -227 -33 l-38 -6 0 1785 c0 1183 -3
1785 -10 1785 -7 0 -10 -603 -10 -1790 0 -1260 -3 -1790 -11 -1790 -15 0 -53
21 -61 34 -4 6 -8 816 -8 1799 0 1764 0 1788 19 1777 31 -16 102 -11 301 19
102 16 197 29 213 30 l27 1 -2 -1792z"/>
</g>
</svg>
