<?xml version="1.0" standalone="no"?>
<!DOCTYPE svg PUBLIC "-//W3C//DTD SVG 20010904//EN"
 "http://www.w3.org/TR/2001/REC-SVG-20010904/DTD/svg10.dtd">
<svg version="1.0" xmlns="http://www.w3.org/2000/svg"
 width="776.000000pt" height="719.000000pt" viewBox="0 0 776.000000 719.000000"
 preserveAspectRatio="xMidYMid meet">
<metadata>
Created by potrace 1.16, written by Peter Selinger 2001-2019
</metadata>
<g transform="translate(0.000000,719.000000) scale(0.100000,-0.100000)"
fill="#000000" stroke="none">
<path d="M1539 7008 c-59 -80 -73 -124 -73 -228 -1 -82 3 -103 25 -150 29 -63
74 -120 94 -120 27 0 26 21 -4 57 -96 121 -101 275 -12 403 21 30 36 61 34 68
-9 23 -33 12 -64 -30z"/>
<path d="M2064 7036 c-3 -8 8 -32 25 -53 90 -112 93 -284 6 -398 -39 -51 -44
-75 -16 -75 37 0 101 107 120 202 21 99 -10 221 -75 296 -38 45 -51 51 -60 28z"/>
<path d="M1610 6933 c-52 -81 -63 -163 -35 -244 18 -51 61 -109 80 -109 26 0
26 20 0 54 -68 90 -66 202 6 294 19 25 16 52 -7 52 -8 0 -28 -21 -44 -47z"/>
<path d="M1994 6965 c-3 -7 5 -29 19 -47 32 -43 47 -91 47 -147 0 -49 -26
-117 -53 -140 -24 -19 -22 -51 3 -51 28 0 76 78 90 146 17 80 -3 161 -56 223
-28 34 -42 39 -50 16z"/>
<path d="M1720 6915 c0 -17 24 -24 94 -27 l49 -3 -77 -92 c-104 -124 -103
-128 44 -128 96 0 115 3 115 15 0 12 -18 16 -83 20 l-83 5 75 90 c44 53 76 99
76 113 0 21 -3 22 -105 22 -86 0 -105 -3 -105 -15z"/>
<path d="M1016 6894 c-24 -24 -9 -40 54 -57 84 -24 175 -90 227 -165 54 -80
73 -144 73 -253 0 -73 3 -88 17 -93 30 -12 43 21 43 105 0 217 -138 401 -347
462 -46 14 -54 14 -67 1z"/>
<path d="M2762 6826 l-37 -34 -3 -1497 c-2 -1645 -6 -1537 58 -1570 25 -13 91
-15 462 -13 l433 3 -427 2 -428 3 0 71 0 71 21 -23 20 -24 -15 25 c-13 22 -15
203 -16 1515 l-2 1490 936 3 936 2 0 -69 0 -70 -25 24 c-13 14 -32 25 -42 25
-11 -1 -6 -6 13 -14 17 -8 34 -21 38 -31 3 -9 6 -535 6 -1168 0 -727 4 -1158
10 -1167 6 -10 10 420 10 1223 0 680 3 1237 8 1237 10 -1 34 -21 52 -44 13
-17 16 -189 20 -1365 l5 -1346 3 1343 c2 1184 0 1346 -13 1372 -33 63 19 60
-1030 60 l-955 0 -38 -34z m48 -1541 c0 -1077 -3 -1555 -10 -1555 -19 0 -57
49 -64 81 -11 58 -7 2925 5 2956 11 30 47 73 61 73 4 0 8 -700 8 -1555z"/>
<path d="M984 6745 c-9 -22 2 -32 58 -51 74 -24 151 -103 172 -174 9 -30 16
-78 16 -107 0 -41 4 -55 16 -60 52 -20 57 124 8 224 -14 30 -45 72 -67 94 -73
70 -189 113 -203 74z"/>
<path d="M495 6601 c-72 -19 -138 -73 -150 -123 -5 -19 -1 -32 14 -47 28 -28
80 -27 141 4 58 30 114 32 155 7 43 -27 131 -109 124 -116 -3 -3 -31 12 -63
35 -96 69 -133 33 -41 -40 30 -24 53 -46 50 -49 -3 -3 -36 16 -74 41 -37 26
-75 47 -84 47 -36 0 -29 -25 21 -71 29 -26 52 -50 52 -54 0 -9 -40 14 -89 52
-77 59 -114 29 -46 -37 19 -18 33 -35 31 -37 -6 -7 -97 42 -151 81 -47 34 -54
36 -127 36 -43 0 -78 2 -78 4 0 1 4 16 9 32 5 16 17 55 26 87 l16 57 55 0 c52
0 55 1 52 23 -3 20 -9 22 -75 25 l-72 3 -25 -83 c-41 -135 -50 -174 -43 -191
5 -14 22 -17 102 -17 90 0 99 -2 138 -29 107 -73 199 -100 226 -67 10 11 19
12 42 4 26 -9 35 -7 59 11 16 11 43 21 60 21 24 0 33 6 43 28 6 15 20 33 29
40 35 26 22 66 -39 127 -116 113 -193 134 -304 81 -55 -25 -79 -32 -79 -20 0
19 26 47 63 66 54 28 160 28 271 -1 53 -14 110 -21 173 -21 108 0 104 6 71
-106 -20 -71 -22 -74 -52 -74 -40 0 -59 -13 -54 -36 3 -16 12 -19 63 -19 l60
0 38 127 c22 71 37 135 33 143 -4 12 -27 15 -121 15 -86 0 -134 5 -188 20 -80
23 -215 34 -262 21z"/>
<path d="M3470 6234 l0 -321 -83 -41 c-162 -80 -284 -194 -378 -354 l-51 -88
-59 0 -59 0 0 -325 0 -325 55 0 55 0 39 -78 c52 -104 138 -210 229 -283 82
-66 137 -97 257 -144 78 -31 80 -32 83 -68 l3 -37 205 0 204 0 0 39 0 38 68
23 c224 75 411 243 511 458 l24 52 54 0 53 0 0 325 0 325 -60 0 -60 0 -26 53
c-80 157 -214 293 -372 375 l-102 53 0 322 0 322 -295 0 -295 0 0 -321z m580
-12 l0 -319 83 -41 c97 -48 197 -121 257 -189 49 -55 130 -175 149 -221 13
-31 16 -32 72 -32 l59 0 0 -315 0 -315 -50 0 -50 0 -36 -72 c-45 -89 -130
-203 -192 -259 -100 -89 -245 -169 -354 -195 -25 -5 -28 -11 -28 -45 l0 -39
-195 0 -195 0 0 39 c0 35 -3 39 -30 45 -52 10 -177 66 -242 108 -127 82 -260
238 -318 373 -19 45 -19 45 -70 45 l-50 0 0 315 0 315 58 0 57 1 23 49 c77
164 228 312 405 396 l77 36 0 319 0 319 285 0 285 0 0 -318z"/>
<path d="M3190 5090 l0 -570 575 0 575 0 0 533 0 533 -38 37 -38 37 -537 0
-537 0 0 -570z m1109 525 l31 -36 0 -524 0 -525 -565 0 -565 0 0 560 0 560
534 0 534 0 31 -35z"/>
<path d="M2960 6060 l0 -140 180 0 180 0 0 140 0 140 -180 0 -180 0 0 -140z
m350 -20 l0 -110 -170 0 -170 0 0 110 0 110 170 0 170 0 0 -110z"/>
<path d="M4200 6060 l0 -140 180 0 180 0 0 140 0 140 -180 0 -180 0 0 -140z
m350 -20 l0 -110 -170 0 -170 0 0 110 0 110 170 0 170 0 0 -110z"/>
<path d="M4505 4381 c-50 -30 -113 -109 -135 -170 -99 -263 -5 -551 279 -853
80 -86 149 -144 158 -134 4 3 -45 59 -108 123 -233 238 -339 444 -339 657 0
141 41 250 122 329 38 36 43 38 96 35 54 -3 57 -5 79 -43 12 -21 34 -89 49
-150 33 -135 36 -142 74 -150 16 -4 30 -10 30 -13 0 -15 90 -115 146 -163 52
-45 189 -144 266 -193 15 -10 29 -13 32 -7 3 5 -49 48 -117 95 -147 102 -222
168 -282 246 -27 35 -54 60 -67 62 -20 3 -27 18 -55 125 -35 134 -63 197 -92
213 -31 16 -103 12 -136 -9z"/>
<path d="M3710 3864 c0 -25 89 -476 95 -482 2 -2 33 21 68 52 l65 57 171 -195
c94 -108 171 -199 170 -203 0 -4 -27 -30 -60 -58 -32 -27 -59 -53 -59 -56 0
-7 472 -171 476 -166 5 5 -88 481 -95 490 -4 4 -36 -18 -71 -48 -35 -30 -65
-53 -67 -51 -2 2 -80 90 -173 197 l-169 194 66 61 67 61 -225 75 c-123 42
-232 79 -241 83 -13 5 -18 2 -18 -11z"/>
<path d="M4142 2604 c-25 -17 -30 -54 -8 -54 8 0 17 9 21 19 8 26 39 35 65 21
31 -16 23 -61 -12 -78 -36 -17 -35 -26 5 -37 27 -8 33 -15 35 -43 4 -42 -12
-62 -49 -62 -19 0 -34 8 -45 25 -9 14 -23 25 -30 25 -22 0 -16 -29 11 -55 35
-36 88 -34 126 4 35 35 38 75 8 107 -20 21 -20 24 -5 46 22 31 20 45 -9 73
-28 29 -79 33 -113 9z"/>
<path d="M5030 2595 c-33 -35 -41 -151 -13 -205 31 -60 105 -66 140 -13 27 41
25 172 -3 210 -30 40 -90 44 -124 8z m90 -15 c20 -20 25 -55 20 -135 -3 -60
-16 -77 -53 -73 -27 3 -34 9 -45 43 -19 56 -9 144 19 168 27 22 35 21 59 -3z"/>
<path d="M5357 2613 c-3 -5 -10 -35 -16 -67 -13 -69 -4 -86 30 -62 31 21 55
20 79 -4 25 -25 26 -72 1 -94 -26 -24 -73 -17 -86 12 -5 12 -15 22 -22 22 -25
0 -23 -21 6 -50 75 -76 188 6 146 106 -16 39 -51 56 -95 48 -32 -7 -35 0 -24
44 6 19 13 22 60 22 41 0 54 4 54 15 0 12 -14 15 -64 15 -36 0 -67 -3 -69 -7z"/>
<path d="M5683 2540 c-30 -12 -40 -55 -19 -79 10 -11 37 -24 61 -30 50 -12 62
-25 45 -46 -19 -22 -66 -19 -84 6 -8 12 -19 18 -25 14 -33 -20 16 -65 69 -65
46 0 80 27 80 64 0 29 -13 40 -65 56 -50 16 -65 28 -58 46 7 19 72 19 79 -1 8
-19 34 -20 34 -1 0 36 -67 56 -117 36z"/>
<path d="M5473 1660 c-163 -94 -157 -325 10 -411 79 -41 175 -34 243 17 l31
23 58 -30 c76 -38 141 -39 214 -3 48 24 53 25 70 10 57 -52 178 -57 256 -11
l44 25 41 -21 c185 -96 390 75 325 271 -46 139 -218 200 -339 121 -28 -19 -29
-19 -63 5 -67 45 -184 46 -250 2 l-37 -25 -50 26 c-63 33 -142 34 -203 3 -23
-12 -45 -26 -48 -32 -4 -6 -17 -2 -33 11 -44 34 -91 49 -156 49 -49 0 -71 -6
-113 -30z m183 5 c147 -43 201 -229 103 -349 -83 -99 -259 -100 -334 -2 -78
103 -73 212 15 297 66 65 128 80 216 54z m681 -13 c163 -84 155 -311 -14 -396
-40 -20 -123 -21 -170 -1 -64 27 -65 30 -31 93 26 50 29 65 26 123 -3 52 -10
75 -31 109 -16 23 -27 43 -25 44 2 1 11 8 20 15 57 44 154 49 225 13z m-317
-5 c54 -28 104 -97 114 -157 21 -135 -112 -269 -243 -245 -40 7 -111 44 -111
57 0 5 10 28 22 51 30 59 30 147 0 209 -13 26 -20 53 -17 59 14 22 91 49 140
48 32 0 66 -8 95 -22z m626 -2 c82 -41 119 -108 112 -205 -11 -150 -172 -241
-304 -172 l-41 21 28 57 c22 43 29 71 29 113 0 55 -26 131 -49 145 -17 11 -3
26 43 47 58 26 122 24 182 -6z"/>
<path d="M7180 655 c-100 -32 -160 -117 -160 -225 0 -112 62 -195 169 -226
152 -45 295 65 295 226 0 70 -16 114 -63 163 -58 63 -158 89 -241 62z m137
-20 c84 -25 153 -117 153 -205 0 -124 -130 -235 -251 -215 -104 18 -186 123
-177 228 8 96 57 161 145 193 49 17 69 17 130 -1z"/>
</g>
</svg>
