<?xml version="1.0" standalone="no"?>
<!DOCTYPE svg PUBLIC "-//W3C//DTD SVG 20010904//EN"
 "http://www.w3.org/TR/2001/REC-SVG-20010904/DTD/svg10.dtd">
<svg version="1.0" xmlns="http://www.w3.org/2000/svg"
 width="100.000000pt" height="100.000000pt" viewBox="0 0 100.000000 100.000000"
 preserveAspectRatio="xMidYMid meet">
<metadata>
Created by potrace 1.10, written by Peter Selinger 2001-2011
</metadata>
<g transform="translate(0.000000,100.000000) scale(0.100000,-0.100000)"
fill="#000000" stroke="none">
<path d="M17 983 c-4 -3 -7 -224 -7 -490 l0 -483 490 0 490 0 -2 488 -3 487
-481 3 c-264 1 -484 -1 -487 -5z m963 -488 l0 -475 -480 0 -480 0 0 475 0 475
480 0 480 0 0 -475z"/>
<path d="M180 500 l0 -320 320 0 320 0 0 320 0 320 -320 0 -320 0 0 -320z
m630 -5 l0 -305 -310 0 -310 0 0 305 0 305 310 0 310 0 0 -305z"/>
<path d="M456 640 c-57 -18 -106 -85 -106 -147 0 -41 40 -103 80 -125 45 -24
115 -20 158 11 39 27 67 97 58 145 -8 44 -50 94 -93 112 -36 16 -55 16 -97 4z
m115 -26 c40 -20 73 -93 65 -140 -20 -102 -145 -146 -226 -78 -64 55 -57 172
14 215 38 23 106 25 147 3z"/>
<path d="M758 95 c-9 -21 -8 -28 7 -45 15 -17 31 -20 92 -20 85 0 113 11 113
43 0 39 -18 47 -112 47 -85 0 -89 -1 -100 -25z m27 5 c-3 -5 -2 -10 4 -10 5 0
13 5 16 10 4 6 37 9 78 8 64 -3 72 -5 75 -24 5 -35 -20 -45 -104 -42 -59 2
-79 7 -87 20 -8 12 -7 21 2 32 15 18 26 22 16 6z"/>
<path d="M821 83 c-1 -17 -7 -23 -23 -22 -21 0 -22 1 -4 8 19 7 19 8 -3 14
-17 4 -21 2 -19 -11 2 -12 15 -18 43 -20 22 -1 35 1 29 5 -7 4 -14 17 -17 28
-4 18 -5 18 -6 -2z"/>
<path d="M855 83 c3 -8 5 -18 5 -22 0 -4 19 -7 43 -7 36 1 42 4 45 24 2 12 -1
22 -6 22 -6 0 -8 -9 -5 -20 4 -13 0 -20 -9 -20 -21 0 -29 11 -18 25 7 9 0 12
-26 12 -26 0 -33 -4 -29 -14z m40 -21 c-8 -8 -25 10 -19 20 4 6 9 5 15 -3 4
-7 6 -15 4 -17z"/>
</g>
</svg>
