<?xml version="1.0" standalone="no"?>
<!DOCTYPE svg PUBLIC "-//W3C//DTD SVG 20010904//EN"
 "http://www.w3.org/TR/2001/REC-SVG-20010904/DTD/svg10.dtd">
<svg version="1.0" xmlns="http://www.w3.org/2000/svg"
 width="275.000000pt" height="291.000000pt" viewBox="0 0 275.000000 291.000000"
 preserveAspectRatio="xMidYMid meet">

<g transform="translate(0.000000,291.000000) scale(0.100000,-0.100000)"
fill="#000000" stroke="none">
<path d="M2043 2799 c-30 -19 -33 -19 -57 -4 -25 17 -29 15 -403 -203 l-378
-220 -117 61 -117 61 -36 -17 c-19 -9 -35 -21 -35 -26 0 -14 -394 -241 -418
-241 -35 0 -105 -49 -133 -94 -76 -118 -79 -127 -79 -243 l0 -108 -35 -19
c-61 -33 -47 -71 49 -131 l59 -38 -24 -18 c-13 -11 -35 -22 -49 -26 -14 -3
-36 -16 -49 -29 -30 -30 -23 -63 19 -87 25 -15 30 -24 30 -56 0 -32 8 -46 60
-100 33 -35 60 -67 60 -71 0 -5 20 -26 45 -48 l45 -40 0 -439 0 -440 25 -11
c21 -10 25 -18 25 -56 0 -43 1 -45 55 -75 l55 -31 775 452 775 452 0 902 0
902 -48 31 c-56 36 -57 36 -99 10z m80 -21 c18 -12 35 -27 39 -33 4 -5 8 -408
8 -895 l0 -885 -759 -443 c-417 -243 -763 -442 -770 -442 -6 0 -30 9 -51 20
l-40 20 0 891 0 891 45 -26 45 -27 759 443 c418 243 758 444 757 446 -2 2
-344 -195 -759 -437 l-755 -440 -41 22 c-23 12 -41 24 -41 27 0 9 1509 887
1528 890 2 0 18 -10 35 -22z m-144 -2 c10 -12 -5 -24 -81 -69 -51 -30 -376
-220 -722 -421 -581 -339 -632 -367 -655 -356 -28 13 -31 11 463 295 124 72
393 228 598 347 205 119 376 217 379 217 4 1 12 -5 18 -13z m-912 -352 c119
-63 123 -66 80 -91 -33 -20 -35 -20 -58 -2 l-24 18 35 15 35 14 -25 10 c-14 5
-43 17 -64 26 -22 9 -41 15 -43 13 -2 -2 20 -14 49 -27 l53 -22 -75 -35 c-90
-42 -251 -135 -303 -176 -36 -28 -41 -29 -75 -19 -20 6 -38 10 -40 7 -2 -2 16
-9 40 -15 23 -7 56 -17 73 -24 l29 -13 -71 -41 c-40 -23 -79 -45 -87 -48 -14
-5 -198 95 -211 115 -12 20 17 20 114 0 56 -11 107 -19 113 -17 6 2 -35 12
-90 23 -56 10 -102 21 -102 25 0 10 47 30 69 30 10 0 38 -7 61 -15 24 -8 45
-13 47 -11 2 2 -15 10 -38 18 l-43 14 195 113 c107 62 200 120 206 128 11 14
17 14 39 4 15 -6 29 -10 31 -7 2 2 -5 7 -16 11 -24 7 -28 25 -7 25 8 0 54 -21
103 -46z m12 -100 c20 -15 21 -18 7 -26 -21 -12 -74 21 -54 33 18 12 20 11 47
-7z m-49 -19 c17 -9 30 -17 30 -19 0 -4 -227 -139 -277 -165 -18 -9 -28 -9
-45 0 -33 17 -33 17 -3 41 25 20 255 158 263 158 2 0 16 -7 32 -15z m-549
-248 c92 -56 91 -53 31 -95 l-32 -23 -73 44 c-77 46 -86 60 -61 92 15 20 17
19 104 -27 118 -63 129 -61 15 3 -99 56 -104 59 -84 59 8 -1 53 -24 100 -53z
m-76 -83 c42 -25 74 -48 72 -51 -7 -6 -157 80 -157 90 0 12 6 9 85 -39z m-9
-21 l84 -48 0 -48 c0 -46 -1 -47 -22 -36 -66 35 -129 83 -143 107 -9 15 -14
19 -11 9 3 -10 2 -16 -3 -13 -7 5 -8 59 -2 74 3 6 20 -2 97 -45z m125 -33 c19
-10 19 -31 19 -855 0 -465 -3 -845 -7 -845 -29 1 -31 30 -38 863 -4 466 -4
847 0 847 3 0 15 -5 26 -10z m-129 -70 c51 -33 90 -60 85 -60 -8 0 -103 52
-152 83 l-30 19 22 -20 c23 -21 43 -61 43 -89 0 -9 -16 5 -35 30 -22 29 -34
55 -33 71 1 14 3 26 5 26 1 0 44 -27 95 -60z m88 -87 c0 -7 -25 3 -60 24 -33
19 -60 40 -60 45 0 5 27 -5 60 -24 33 -18 60 -38 60 -45z m-74 -64 c62 -38 76
-16 15 24 -36 24 -60 61 -48 73 3 3 28 -9 56 -26 l51 -32 0 -84 c0 -46 -3 -84
-6 -84 -15 0 -81 45 -101 69 -13 14 -23 20 -23 13 0 -7 -22 2 -56 23 -31 20
-58 34 -60 32 -2 -2 51 -37 118 -78 l123 -74 2 -42 c1 -24 -1 -43 -5 -43 -10
1 -108 90 -99 90 4 0 25 -11 47 -25 44 -28 64 -33 34 -9 -16 13 -16 15 -1 10
29 -9 19 1 -29 29 -25 15 -48 24 -51 21 -4 -3 0 -6 7 -6 9 0 8 -4 -4 -13 -17
-12 -13 -18 43 -66 35 -30 61 -61 61 -72 0 -10 -3 -19 -6 -19 -4 0 -47 23 -96
51 -50 28 -92 49 -93 47 -2 -2 39 -28 91 -57 51 -29 94 -57 94 -63 0 -5 -19 1
-42 15 -24 13 -74 41 -112 62 l-68 38 32 13 c49 21 88 53 86 69 -1 8 -33 34
-71 58 -38 23 -70 47 -72 54 -3 7 10 22 29 33 l33 21 37 -43 c21 -24 44 -43
50 -43 7 0 13 -6 13 -13 0 -18 62 -56 70 -43 3 6 -17 27 -44 46 -54 39 -121
122 -121 150 0 11 15 -1 42 -34 23 -29 57 -61 74 -72z m12 16 c20 -14 34 -25
30 -25 -9 0 -78 41 -78 46 0 9 12 3 48 -21z m8 -80 c10 -8 15 -14 9 -14 -5 0
-19 6 -29 14 -11 8 -15 15 -10 15 6 0 19 -7 30 -15z m-2 -80 c11 -8 16 -15 10
-15 -5 0 -18 7 -28 15 -11 8 -16 15 -10 15 5 0 18 -7 28 -15z m-63 -126 c92
-51 109 -65 109 -85 0 -13 -2 -24 -5 -24 -11 0 -245 143 -245 149 0 10 11 21
22 21 5 0 59 -27 119 -61z m33 -80 c48 -29 84 -54 81 -57 -2 -3 -11 1 -19 7
-8 7 -20 10 -26 6 -6 -4 -9 -1 -8 7 2 7 -5 12 -14 12 -10 -1 -16 2 -13 6 2 4
-15 17 -38 30 l-42 24 33 -31 c17 -17 32 -40 32 -52 0 -12 -1 -21 -3 -21 -10
0 -67 91 -63 99 4 5 0 12 -6 14 -7 3 -10 6 -6 6 3 1 45 -22 92 -50z m-89 3 c2
-30 65 -100 113 -127 58 -32 66 -25 13 12 -26 18 -40 36 -41 51 0 24 10 28 27
11 9 -9 28 -15 55 -18 4 -1 7 -35 7 -76 l0 -75 -24 18 c-13 9 -30 28 -38 42
-9 14 -40 50 -69 80 -36 37 -54 64 -56 84 -1 16 1 26 5 23 3 -4 7 -15 8 -25z"/>
<path d="M1405 1997 l-500 -292 -3 -588 c-1 -324 1 -587 6 -585 4 1 232 133
505 293 l497 290 0 587 c0 324 -1 588 -2 588 -2 -1 -228 -132 -503 -293z m493
-304 l-3 -577 -485 -283 c-267 -155 -488 -283 -492 -283 -5 0 -8 258 -8 574
l0 574 488 285 c268 157 490 285 495 286 4 1 6 -259 5 -576z"/>
<path d="M1477 1976 c-32 -14 -77 -37 -100 -52 -57 -37 -160 -137 -212 -204
-45 -59 -118 -180 -112 -186 2 -2 14 15 27 39 122 220 308 384 473 416 35 7
37 9 12 10 -16 0 -56 -10 -88 -23z"/>
<path d="M1664 1989 c81 -19 131 -67 167 -157 10 -26 18 -40 18 -32 1 24 -34
92 -65 129 -31 38 -96 71 -134 70 -18 -1 -14 -4 14 -10z"/>
<path d="M1568 1853 c12 -2 32 -2 45 0 12 2 2 4 -23 4 -25 0 -35 -2 -22 -4z"/>
<path d="M1450 1819 c-80 -41 -201 -160 -256 -254 -42 -72 -94 -193 -93 -217
0 -7 10 14 22 47 31 83 78 172 105 202 12 13 22 28 22 32 0 4 32 40 72 80 72
71 110 93 130 73 16 -16 1 -60 -22 -67 -11 -3 -20 -10 -20 -14 0 -5 58 -42
130 -82 l130 -74 0 -72 c0 -40 -2 -73 -4 -73 -11 0 -232 133 -242 145 -8 11
-21 -6 -58 -80 -30 -59 -70 -119 -107 -159 -56 -60 -61 -64 -89 -56 -29 8 -30
8 -24 -18 9 -35 14 -41 14 -14 0 12 5 22 11 22 5 0 9 -10 7 -22 -3 -20 0 -21
73 -19 76 2 76 2 107 -34 18 -20 32 -31 32 -25 0 7 -13 25 -29 41 -27 27 -35
29 -100 29 -39 0 -71 3 -71 6 0 3 13 16 29 30 42 35 123 148 160 222 19 37 37
62 44 59 7 -3 66 -37 132 -75 66 -39 122 -69 124 -66 3 2 4 40 2 83 -1 66 1
80 15 85 17 7 17 -3 -1 -94 -3 -14 1 -7 9 15 34 103 41 92 -109 178 -110 65
-132 81 -128 97 6 22 0 24 116 -44 43 -25 82 -46 87 -46 16 0 60 23 60 32 0 5
-11 1 -25 -8 l-25 -16 0 68 c0 37 2 65 4 63 2 -2 11 -24 19 -49 9 -25 16 -37
17 -27 0 10 -9 36 -19 57 -21 45 -15 51 16 18 68 -75 79 -189 38 -378 -3 -14
2 -7 11 15 12 29 17 72 18 155 1 131 -13 170 -79 228 -38 34 -82 47 -51 16 12
-11 16 -36 16 -90 0 -41 -2 -74 -5 -74 -11 0 -226 132 -222 136 3 3 27 14 53
24 27 11 42 19 33 20 -9 0 -44 -14 -79 -31z m119 -161 c152 -88 147 -84 124
-97 -16 -8 -40 2 -134 56 -135 77 -139 81 -119 93 20 13 11 17 129 -52z"/>
<path d="M1852 1755 c0 -16 2 -22 5 -12 2 9 2 23 0 30 -3 6 -5 -1 -5 -18z"/>
<path d="M1863 1670 c0 -25 2 -35 4 -22 2 12 2 32 0 45 -2 12 -4 2 -4 -23z"/>
<path d="M1330 1684 c0 -8 -13 -29 -29 -45 -16 -16 -26 -29 -21 -29 13 0 60
60 60 76 0 8 -2 14 -5 14 -3 0 -5 -7 -5 -16z"/>
<path d="M1853 1585 c0 -22 2 -30 4 -17 2 12 2 30 0 40 -3 9 -5 -1 -4 -23z"/>
<path d="M1822 1458 c-79 -282 -303 -549 -520 -619 -31 -10 -48 -18 -37 -18
35 -1 131 44 197 92 118 85 218 205 295 356 43 85 98 241 92 260 -2 6 -14 -27
-27 -71z"/>
<path d="M1030 1493 c-18 -41 -50 -134 -49 -147 0 -6 13 23 28 64 15 41 31 83
36 93 12 28 -1 19 -15 -10z"/>
<path d="M1721 1335 c-67 -161 -220 -325 -350 -376 -25 -10 -39 -18 -31 -18
58 -1 190 95 271 197 55 68 148 236 137 247 -2 3 -15 -20 -27 -50z"/>
<path d="M971 1314 c0 -11 3 -14 6 -6 3 7 2 16 -1 19 -3 4 -6 -2 -5 -13z"/>
<path d="M1092 1310 c0 -14 2 -19 5 -12 2 6 2 18 0 25 -3 6 -5 1 -5 -13z"/>
<path d="M1108 1287 c-28 -11 -28 -12 -27 -96 0 -47 4 -95 9 -106 6 -14 7 -6
3 23 l-6 42 64 0 c45 0 72 -6 92 -19 l28 -18 -29 -12 c-25 -10 -34 -9 -73 13
-24 14 -48 26 -53 26 -10 0 224 -137 250 -147 8 -3 26 3 40 12 l26 17 -27 18
c-16 11 -23 20 -16 24 6 4 10 19 10 34 -2 27 -2 27 -6 2 -4 -24 -28 -50 -46
-50 -5 0 -6 7 -3 16 5 13 3 14 -6 6 -9 -7 -23 -5 -48 8 -30 16 -32 19 -17 26
10 3 29 2 43 -4 16 -8 24 -8 24 -1 0 18 -57 69 -77 69 -11 0 -5 -6 16 -18 19
-9 37 -22 39 -29 5 -17 -55 1 -79 23 -15 13 -35 17 -85 15 l-65 -2 3 53 c2 44
7 55 26 63 12 5 22 13 22 17 0 5 -1 8 -2 7 -2 -1 -15 -6 -30 -12z m193 -222
c27 -14 54 -23 59 -20 6 3 19 0 30 -8 18 -13 19 -16 5 -27 -13 -11 -22 -10
-51 3 -22 11 -32 22 -28 29 5 8 2 9 -10 5 -11 -5 -15 -3 -10 5 5 8 1 9 -12 4
-10 -4 -15 -4 -11 0 4 5 -3 14 -15 21 -42 23 -8 13 43 -12z"/>
<path d="M962 1265 c0 -16 2 -22 5 -12 2 9 2 23 0 30 -3 6 -5 -1 -5 -18z"/>
<path d="M953 1150 c0 -47 2 -66 4 -42 2 23 2 61 0 85 -2 23 -4 4 -4 -43z"/>
<path d="M962 1045 c0 -11 3 -29 8 -40 11 -25 11 1 0 35 -6 20 -8 21 -8 5z"/>
<path d="M1100 1055 c0 -6 11 -27 25 -47 31 -46 97 -78 156 -77 31 2 35 3 14
6 -76 9 -97 16 -126 40 -18 15 -40 41 -50 58 -11 16 -19 25 -19 20z"/>
<path d="M1051 974 c-12 -15 -21 -30 -21 -34 0 -21 85 -81 136 -96 65 -19 89
-11 89 27 0 19 -11 29 -51 49 -28 14 -66 37 -83 53 -40 33 -44 33 -70 1z m37
-14 c-11 -17 -38 -28 -38 -16 0 18 15 36 31 36 17 0 18 -3 7 -20z m52 -25 c13
-14 41 -31 63 -37 42 -13 57 -32 39 -50 -18 -18 -88 8 -130 47 -31 28 -34 35
-23 49 18 21 23 20 51 -9z"/>
<path d="M980 974 c0 -20 59 -99 92 -121 18 -12 47 -24 63 -27 29 -6 29 -6 -4
7 -47 18 -108 72 -131 115 -10 20 -19 32 -20 26z"/>
<path d="M1193 813 c9 -2 23 -2 30 0 6 3 -1 5 -18 5 -16 0 -22 -2 -12 -5z"/>
<path d="M648 2113 c7 -3 16 -2 19 1 4 3 -2 6 -13 5 -11 0 -14 -3 -6 -6z"/>
<path d="M776 2165 c10 -8 23 -15 28 -15 6 0 1 7 -10 15 -10 8 -23 15 -28 15
-6 0 -1 -7 10 -15z"/>
<path d="M299 1712 c11 -16 28 -35 38 -43 10 -8 3 5 -16 29 -37 47 -53 58 -22
14z"/>
</g>
</svg>
