<?xml version="1.0" standalone="no"?>
<!DOCTYPE svg PUBLIC "-//W3C//DTD SVG 20010904//EN"
 "http://www.w3.org/TR/2001/REC-SVG-20010904/DTD/svg10.dtd">
<svg version="1.0" xmlns="http://www.w3.org/2000/svg"
 width="149.000000pt" height="210.000000pt" viewBox="0 0 149.000000 210.000000"
 preserveAspectRatio="xMidYMid meet">

<g transform="translate(0.000000,210.000000) scale(0.100000,-0.100000)"
fill="#000000" stroke="none">
<path d="M1237 2019 c-10 -6 -31 -8 -47 -4 -24 5 -72 -19 -332 -169 -299 -174
-304 -176 -349 -170 -45 6 -52 3 -224 -97 -124 -72 -184 -113 -197 -134 -16
-27 -18 -55 -18 -281 0 -204 3 -254 15 -270 12 -16 14 -78 15 -372 0 -338 1
-355 20 -379 11 -14 20 -36 20 -49 0 -27 51 -59 81 -51 10 3 266 148 569 323
l550 319 0 652 0 651 -34 21 c-38 24 -44 25 -69 10z m83 -488 c0 -251 3 -540
7 -642 l6 -187 -39 -25 c-49 -32 -1044 -608 -1061 -614 -10 -4 -13 127 -13
634 l0 639 40 23 c22 12 40 25 40 28 0 3 -20 -7 -45 -21 -43 -25 -46 -26 -70
-10 -21 14 -23 19 -13 32 12 13 10 14 -11 3 -16 -9 -26 -10 -34 -2 -6 6 -9 13
-6 15 5 5 228 134 329 190 42 23 50 31 35 34 -11 2 -24 9 -30 14 -10 11 12 8
45 -6 10 -4 138 65 344 184 218 125 333 187 343 182 10 -6 3 -14 -27 -31 -22
-12 -40 -24 -40 -27 0 -2 33 13 73 35 69 38 73 38 99 23 l27 -16 1 -455z
m-800 129 c8 -5 11 -10 5 -10 -5 0 -17 5 -25 10 -8 5 -10 10 -5 10 6 0 17 -5
25 -10z m-71 -39 c7 -5 9 -11 4 -14 -6 -4 -19 0 -29 8 -15 11 -16 14 -4 15 8
0 21 -4 29 -9z m-49 -21 c8 -5 11 -12 7 -16 -4 -4 -15 0 -24 9 -18 18 -8 23
17 7z m-34 -25 c10 -8 14 -15 7 -15 -19 0 -43 11 -43 21 0 13 14 11 36 -6z
m-36 -26 c12 -8 9 -10 -13 -6 -15 2 -30 0 -33 -4 -3 -5 0 -9 6 -9 6 0 8 -5 5
-10 -4 -7 -13 -6 -27 1 -20 11 -20 11 3 24 30 17 40 17 59 4z m-84 -44 c16
-12 16 -14 3 -15 -9 0 -22 7 -29 15 -16 19 0 19 26 0z m-30 -32 c-8 -8 -36 5
-36 17 0 7 6 7 21 0 11 -7 18 -14 15 -17z m-47 -12 c8 -5 9 -11 3 -15 -6 -3
-13 -2 -17 4 -3 5 -12 10 -18 10 -7 0 -6 -4 3 -10 13 -9 12 -12 -4 -25 -32
-25 -49 0 -20 29 17 18 32 20 53 7z m-72 -98 c-3 -10 -5 -2 -5 17 0 19 2 27 5
18 2 -10 2 -26 0 -35z m43 -600 c0 -479 -3 -604 -12 -601 -10 4 -14 138 -16
618 -2 545 0 611 13 600 13 -11 15 -90 15 -617z m48 581 l22 -15 0 -635 c0
-349 -2 -634 -5 -634 -2 0 -16 5 -30 12 l-25 11 0 639 c0 351 3 638 8 638 4 0
18 -7 30 -16z m-91 -356 c-1 -46 -3 -9 -3 82 0 91 2 128 3 83 2 -46 2 -120 0
-165z"/>
<path d="M1243 1939 c-29 -17 -53 -33 -53 -36 0 -5 89 44 105 58 16 16 1 9
-52 -22z"/>
<path d="M1053 1909 c-29 -17 -53 -33 -53 -36 0 -5 89 44 105 58 16 16 1 9
-52 -22z"/>
<path d="M1148 1884 c-38 -20 -36 -28 2 -9 17 9 30 18 30 20 0 7 -1 6 -32 -11z"/>
<path d="M933 1839 c-29 -17 -53 -33 -53 -36 0 -5 89 44 105 58 16 16 1 9 -52
-22z"/>
<path d="M1053 1829 c-29 -17 -53 -33 -53 -36 0 -5 89 44 105 58 16 16 1 9
-52 -22z"/>
<path d="M838 1784 c-38 -20 -36 -28 2 -9 17 9 30 18 30 20 0 7 -1 6 -32 -11z"/>
<path d="M958 1774 c-38 -20 -36 -28 2 -9 17 9 30 18 30 20 0 7 -1 6 -32 -11z"/>
<path d="M743 1729 c-29 -17 -53 -33 -53 -36 0 -5 89 44 105 58 16 16 1 9 -52
-22z"/>
<path d="M894 1734 c-18 -14 -18 -15 4 -4 12 6 22 13 22 15 0 8 -5 6 -26 -11z"/>
<path d="M838 1704 c-38 -20 -36 -28 2 -9 17 9 30 18 30 20 0 7 -1 6 -32 -11z"/>
<path d="M623 1659 c-29 -17 -53 -33 -53 -36 0 -5 89 44 105 58 16 16 1 9 -52
-22z"/>
<path d="M743 1649 c-29 -17 -53 -33 -53 -36 0 -5 89 44 105 58 16 16 1 9 -52
-22z"/>
<path d="M1070 1617 c-41 -23 -209 -121 -372 -216 l-298 -174 0 -429 0 -428
27 4 c14 3 31 10 37 16 8 8 6 9 -6 5 -17 -7 -18 16 -18 399 l0 405 30 16 c42
22 37 27 -7 8 l-38 -17 3 -408 c2 -277 -1 -407 -8 -403 -16 10 -14 807 3 827
16 20 684 408 703 408 24 0 16 -19 -16 -35 -16 -9 -30 -18 -30 -21 0 -2 15 3
33 13 17 9 35 16 40 15 9 -2 8 17 -1 41 -7 15 -16 12 -82 -26z"/>
<path d="M528 1604 c-38 -20 -36 -28 2 -9 17 9 30 18 30 20 0 7 -1 6 -32 -11z"/>
<path d="M648 1594 c-38 -20 -36 -28 2 -9 17 9 30 18 30 20 0 7 -1 6 -32 -11z"/>
<path d="M433 1549 c-29 -17 -53 -33 -53 -36 0 -5 89 44 105 58 16 16 1 9 -52
-22z"/>
<path d="M553 1539 c-29 -17 -53 -33 -53 -36 0 -5 89 44 105 58 16 16 1 9 -52
-22z"/>
<path d="M1013 1539 c-29 -17 -53 -33 -53 -36 0 -5 89 44 105 58 16 16 1 9
-52 -22z"/>
<path d="M313 1479 c-29 -17 -53 -33 -53 -36 0 -5 89 44 105 58 16 16 1 9 -52
-22z"/>
<path d="M458 1484 c-38 -20 -36 -28 2 -9 17 9 30 18 30 20 0 7 -1 6 -32 -11z"/>
<path d="M918 1484 c-38 -20 -36 -28 2 -9 17 9 30 18 30 20 0 7 -1 6 -32 -11z"/>
<path d="M394 1444 c-18 -14 -18 -15 4 -4 12 6 22 13 22 15 0 8 -5 6 -26 -11z"/>
<path d="M848 1444 c-38 -20 -36 -28 2 -9 17 9 30 18 30 20 0 7 -1 6 -32 -11z"/>
<path d="M218 1424 c-38 -20 -36 -28 2 -9 17 9 30 18 30 20 0 7 -1 6 -32 -11z"/>
<path d="M338 1414 c-38 -20 -36 -28 2 -9 17 9 30 18 30 20 0 7 -1 6 -32 -11z"/>
<path d="M753 1389 c-29 -17 -53 -33 -53 -36 0 -5 89 44 105 58 16 16 1 9 -52
-22z"/>
<path d="M658 1334 c-38 -20 -36 -28 2 -9 17 9 30 18 30 20 0 7 -1 6 -32 -11z"/>
<path d="M588 1294 c-38 -20 -36 -28 2 -9 17 9 30 18 30 20 0 7 -1 6 -32 -11z"/>
<path d="M524 1254 c-18 -14 -18 -15 4 -4 12 6 22 13 22 15 0 8 -5 6 -26 -11z"/>
<path d="M672 1173 c-39 -42 -79 -121 -87 -174 -4 -23 0 -16 13 21 26 77 47
114 88 155 19 19 32 35 28 35 -4 0 -23 -17 -42 -37z"/>
<path d="M1162 1009 c-2 -201 -3 -207 -24 -223 l-23 -17 23 11 c13 6 25 17 28
23 2 7 3 102 1 212 l-2 200 -3 -206z"/>
<path d="M1013 1090 c0 -47 2 -66 4 -42 2 23 2 61 0 85 -2 23 -4 4 -4 -43z"/>
<path d="M1002 980 c0 -14 2 -19 5 -12 2 6 2 18 0 25 -3 6 -5 1 -5 -13z"/>
<path d="M572 930 c0 -19 2 -27 5 -17 2 9 2 25 0 35 -3 9 -5 1 -5 -18z"/>
<path d="M921 803 c-19 -27 -25 -40 -15 -31 18 16 59 78 51 78 -2 0 -18 -21
-36 -47z"/>
<path d="M1078 754 c-38 -20 -36 -28 2 -9 17 9 30 18 30 20 0 7 -1 6 -32 -11z"/>
<path d="M1014 714 c-18 -14 -18 -15 4 -4 12 6 22 13 22 15 0 8 -5 6 -26 -11z"/>
<path d="M944 674 c-18 -14 -18 -15 4 -4 12 6 22 13 22 15 0 8 -5 6 -26 -11z"/>
<path d="M888 644 c-38 -20 -36 -28 2 -9 17 9 30 18 30 20 0 7 -1 6 -32 -11z"/>
<path d="M824 604 c-18 -14 -18 -15 4 -4 12 6 22 13 22 15 0 8 -5 6 -26 -11z"/>
<path d="M754 564 c-18 -14 -18 -15 4 -4 12 6 22 13 22 15 0 8 -5 6 -26 -11z"/>
<path d="M698 534 c-38 -20 -36 -28 2 -9 17 9 30 18 30 20 0 7 -1 6 -32 -11z"/>
<path d="M634 494 c-18 -14 -18 -15 4 -4 12 6 22 13 22 15 0 8 -5 6 -26 -11z"/>
<path d="M564 454 c-18 -14 -18 -15 4 -4 12 6 22 13 22 15 0 8 -5 6 -26 -11z"/>
<path d="M508 424 c-38 -20 -36 -28 2 -9 17 9 30 18 30 20 0 7 -1 6 -32 -11z"/>
</g>
</svg>
