<?xml version="1.0" standalone="no"?>
<!DOCTYPE svg PUBLIC "-//W3C//DTD SVG 20010904//EN"
 "http://www.w3.org/TR/2001/REC-SVG-20010904/DTD/svg10.dtd">
<svg version="1.0" xmlns="http://www.w3.org/2000/svg"
 width="348.000000pt" height="454.000000pt" viewBox="0 0 348.000000 454.000000"
 preserveAspectRatio="xMidYMid meet">

<g transform="translate(0.000000,454.000000) scale(0.100000,-0.100000)"
fill="#000000" stroke="none">
<path d="M3210 4469 c-36 -11 -78 -17 -95 -15 -20 4 -512 -124 -1533 -397
l-1502 -401 0 -1677 0 -1677 25 -16 c23 -15 25 -23 25 -89 l0 -72 70 -37 69
-38 1575 423 1576 422 0 1756 0 1757 -63 41 c-35 22 -68 41 -73 40 -5 0 -38
-9 -74 -20z m126 -26 c24 -16 44 -31 44 -34 0 -6 -77 -29 -94 -29 -3 0 -3 6 0
14 8 21 -35 46 -81 47 l-40 1 40 13 c60 20 84 18 131 -12z m-271 -12 c-11 -5
-36 -11 -55 -14 -35 -6 -34 -6 5 8 43 14 84 19 50 6z m72 -18 c-4 -3 -2 -12 4
-20 9 -10 7 -13 -9 -13 -15 0 -19 5 -15 20 3 11 10 20 16 20 6 0 7 -3 4 -7z
m77 1 c28 -11 17 -24 -19 -24 -34 0 -47 13 -22 23 18 8 23 8 41 1z m-245 -8
c-7 -7 -131 -37 -136 -33 -2 3 22 11 54 20 59 15 90 20 82 13z m121 -6 c0 -5
-5 -10 -11 -10 -5 0 -7 5 -4 10 3 6 8 10 11 10 2 0 4 -4 4 -10z m-36 -21 c28
-13 26 -29 -4 -29 -32 0 -73 22 -58 32 18 11 33 10 62 -3z m356 -1729 c0 -957
-3 -1740 -7 -1741 -5 0 -705 -188 -1558 -418 -852 -230 -1553 -416 -1557 -414
-5 2 -8 785 -8 1738 l0 1735 28 7 c15 3 716 192 1557 419 842 227 1533 413
1538 413 4 1 7 -782 7 -1739z m-591 1716 c-7 -7 -131 -37 -136 -33 -2 3 22 11
54 20 59 15 90 20 82 13z m165 -37 c-27 -11 -53 -11 -36 -1 7 5 10 16 6 27 -7
17 -6 17 21 -1 25 -16 26 -19 9 -25z m-133 17 c-15 -18 11 -46 42 -46 12 0 27
-4 34 -8 6 -4 -588 -168 -1320 -364 l-1331 -357 -60 34 -59 33 39 12 c94 28
2640 708 2653 709 10 1 11 -2 2 -13z m26 -18 c-3 -8 -6 -5 -6 6 -1 11 2 17 5
13 3 -3 4 -12 1 -19z m-222 -7 c-11 -5 -36 -11 -55 -14 -35 -6 -34 -6 5 8 43
14 84 19 50 6z m-98 -27 c-3 -3 -12 -4 -19 -1 -8 3 -5 6 6 6 11 1 17 -2 13 -5z
m-52 -13 c-11 -5 -36 -11 -55 -14 -35 -6 -34 -6 5 8 43 14 84 19 50 6z m-98
-27 c-3 -3 -12 -4 -19 -1 -8 3 -5 6 6 6 11 1 17 -2 13 -5z m-52 -13 c-11 -5
-36 -11 -55 -14 -35 -6 -34 -6 5 8 43 14 84 19 50 6z m-110 -30 c-11 -5 -36
-11 -55 -14 -35 -6 -34 -6 5 8 43 14 84 19 50 6z m-98 -27 c-3 -3 -12 -4 -19
-1 -8 3 -5 6 6 6 11 1 17 -2 13 -5z m-52 -13 c-11 -5 -36 -11 -55 -14 -35 -6
-34 -6 5 8 43 14 84 19 50 6z m-98 -27 c-3 -3 -12 -4 -19 -1 -8 3 -5 6 6 6 11
1 17 -2 13 -5z m-52 -13 c-11 -5 -36 -11 -55 -14 -35 -6 -34 -6 5 8 43 14 84
19 50 6z m-98 -27 c-3 -3 -12 -4 -19 -1 -8 3 -5 6 6 6 11 1 17 -2 13 -5z m-52
-14 c-11 -5 -27 -9 -35 -9 -9 0 -8 4 5 9 11 5 27 9 35 9 9 0 8 -4 -5 -9z m-58
-16 c-3 -3 -12 -4 -19 -1 -8 3 -5 6 6 6 11 1 17 -2 13 -5z m-40 -10 c-3 -3
-12 -4 -19 -1 -8 3 -5 6 6 6 11 1 17 -2 13 -5z m-52 -14 c-11 -5 -27 -9 -35
-9 -9 0 -8 4 5 9 11 5 27 9 35 9 9 0 8 -4 -5 -9z m-58 -16 c-3 -3 -12 -4 -19
-1 -8 3 -5 6 6 6 11 1 17 -2 13 -5z m-52 -13 c-11 -5 -36 -11 -55 -14 -35 -6
-34 -6 5 8 43 14 84 19 50 6z m-98 -27 c-3 -3 -12 -4 -19 -1 -8 3 -5 6 6 6 11
1 17 -2 13 -5z m-52 -14 c-11 -5 -27 -9 -35 -9 -9 0 -8 4 5 9 11 5 27 9 35 9
9 0 8 -4 -5 -9z m-58 -16 c-3 -3 -12 -4 -19 -1 -8 3 -5 6 6 6 11 1 17 -2 13
-5z m-40 -10 c-3 -3 -12 -4 -19 -1 -8 3 -5 6 6 6 11 1 17 -2 13 -5z m-52 -14
c-11 -5 -27 -9 -35 -9 -9 0 -8 4 5 9 11 5 27 9 35 9 9 0 8 -4 -5 -9z m-58 -16
c-3 -3 -12 -4 -19 -1 -8 3 -5 6 6 6 11 1 17 -2 13 -5z m-40 -10 c-3 -3 -12 -4
-19 -1 -8 3 -5 6 6 6 11 1 17 -2 13 -5z m-52 -14 c-11 -5 -27 -9 -35 -9 -9 0
-8 4 5 9 11 5 27 9 35 9 9 0 8 -4 -5 -9z m-58 -16 c-3 -3 -12 -4 -19 -1 -8 3
-5 6 6 6 11 1 17 -2 13 -5z m-40 -10 c-3 -3 -12 -4 -19 -1 -8 3 -5 6 6 6 11 1
17 -2 13 -5z m-70 -20 c-3 -3 -12 -4 -19 -1 -8 3 -5 6 6 6 11 1 17 -2 13 -5z
m-40 -10 c-3 -3 -12 -4 -19 -1 -8 3 -5 6 6 6 11 1 17 -2 13 -5z m-52 -14 c-11
-5 -27 -9 -35 -9 -9 0 -8 4 5 9 11 5 27 9 35 9 9 0 8 -4 -5 -9z m-58 -16 c-3
-3 -12 -4 -19 -1 -8 3 -5 6 6 6 11 1 17 -2 13 -5z m-40 -10 c-3 -3 -12 -4 -19
-1 -8 3 -5 6 6 6 11 1 17 -2 13 -5z m-52 -14 c-11 -5 -27 -9 -35 -9 -9 0 -8 4
5 9 11 5 27 9 35 9 9 0 8 -4 -5 -9z m-58 -16 c-3 -3 -12 -4 -19 -1 -8 3 -5 6
6 6 11 1 17 -2 13 -5z m-40 -10 c-3 -3 -12 -4 -19 -1 -8 3 -5 6 6 6 11 1 17
-2 13 -5z m-70 -20 c-3 -3 -12 -4 -19 -1 -8 3 -5 6 6 6 11 1 17 -2 13 -5z
m-40 -10 c-3 -3 -12 -4 -19 -1 -8 3 -5 6 6 6 11 1 17 -2 13 -5z m-40 -10 c-3
-3 -12 -4 -19 -1 -8 3 -5 6 6 6 11 1 17 -2 13 -5z m-70 -20 c-3 -3 -12 -4 -19
-1 -8 3 -5 6 6 6 11 1 17 -2 13 -5z m-40 -10 c-3 -3 -12 -4 -19 -1 -8 3 -5 6
6 6 11 1 17 -2 13 -5z m-40 -10 c-3 -3 -12 -4 -19 -1 -8 3 -5 6 6 6 11 1 17
-2 13 -5z m-70 -20 c-3 -3 -12 -4 -19 -1 -8 3 -5 6 6 6 11 1 17 -2 13 -5z
m-40 -10 c-3 -3 -12 -4 -19 -1 -8 3 -5 6 6 6 11 1 17 -2 13 -5z m-37 -1704 c0
-1658 0 -1660 -20 -1648 -20 13 -20 24 -20 1671 0 1655 0 1658 20 1647 20 -11
20 -21 20 -1670z m93 1623 l37 -23 0 -1735 c0 -954 -3 -1735 -6 -1735 -4 0
-31 14 -60 31 l-54 30 0 1740 0 1740 23 -12 c12 -7 39 -23 60 -36z"/>
<path d="M1845 3396 c-556 -150 -1019 -275 -1028 -279 -16 -6 -17 -84 -17
-1165 l0 -1159 68 2 c50 1 181 32 507 120 242 65 443 122 446 127 7 11 144 48
177 48 12 0 225 54 472 120 247 66 451 120 454 120 3 0 5 508 5 1130 0 1111 0
1130 -19 1140 -13 7 -20 21 -20 40 0 22 -5 30 -17 29 -10 -1 -473 -124 -1028
-273z m1025 244 c0 -5 -4 -10 -10 -10 -5 0 -10 5 -10 10 0 6 5 10 10 10 6 0
10 -4 10 -10z m-31 -5 c-3 -2 -207 -58 -454 -125 -247 -66 -451 -124 -454
-129 -3 -4 -22 -12 -41 -16 -61 -13 -67 -21 -29 -41 l34 -17 -34 -9 c-28 -8
-39 -5 -72 17 l-39 25 -226 -60 c-124 -34 -230 -60 -235 -58 -10 3 1512 416
1540 417 8 1 12 -1 10 -4z m31 -30 c19 -10 22 -15 10 -19 -8 -3 -206 -57 -440
-120 -411 -110 -426 -113 -455 -98 -20 11 -25 17 -15 19 8 2 204 55 435 118
231 62 425 114 430 114 6 0 21 -6 35 -14z m49 -522 c-1 -269 -4 -515 -8 -548
l-6 -59 -175 -53 c-96 -29 -178 -53 -182 -53 -5 0 -8 13 -8 28 0 50 -38 181
-71 241 -45 86 -120 158 -209 200 -73 35 -78 36 -192 36 -65 0 -118 2 -118 4
0 13 -31 352 -34 377 -4 32 -4 32 72 59 62 22 898 252 925 254 4 1 7 -218 6
-486z m-946 263 c24 -18 22 -23 -14 -30 -19 -4 -42 0 -62 11 -29 15 -30 17
-12 24 31 12 68 10 88 -5z m-200 -40 c16 -12 10 -16 -55 -33 -679 -184 -808
-216 -834 -204 -15 6 -24 14 -21 17 9 9 840 232 867 233 14 0 33 -6 43 -13z
m131 -48 c3 -18 10 -91 16 -163 6 -71 13 -152 16 -180 l6 -50 -53 -19 c-30
-10 -84 -37 -121 -60 -71 -43 -208 -160 -208 -177 0 -6 6 -7 13 -3 7 4 9 3 4
-2 -5 -5 -12 -8 -15 -7 -9 2 -42 -28 -42 -38 0 -19 31 3 101 71 115 112 241
180 376 203 162 26 329 -45 419 -180 110 -166 118 -408 21 -638 -90 -215 -286
-407 -477 -466 -185 -57 -347 -22 -465 102 -150 158 -178 415 -73 681 18 46
32 89 32 95 -1 7 2 10 7 8 11 -7 32 33 24 45 -4 6 -1 9 6 8 6 -2 13 2 16 9 6
18 -28 9 -39 -10 -5 -10 -6 -22 -2 -29 4 -7 3 -8 -5 -4 -8 5 -24 -20 -50 -76
-46 -97 -69 -173 -85 -276 l-12 -75 -184 -43 c-102 -24 -191 -43 -197 -44 -10
0 -13 116 -13 548 l0 548 438 117 c240 64 448 117 462 118 14 0 34 4 45 9 31
13 34 12 39 -22z m-728 -67 c-3 -4 -83 -28 -177 -52 -138 -35 -173 -48 -180
-64 -6 -16 -8 -17 -8 -3 -1 9 5 20 11 25 9 6 302 90 356 102 2 1 1 -3 -2 -8z
m-303 -145 c16 -12 17 -48 17 -505 0 -270 -4 -491 -8 -491 -5 0 -15 6 -24 13
-15 11 -17 65 -19 497 -1 267 -1 488 0 493 2 10 14 8 34 -7z m1310 -191 c83
-21 133 -50 192 -109 121 -120 179 -336 144 -532 -57 -325 -288 -603 -579
-700 -76 -25 -215 -24 -295 1 -33 11 -86 39 -119 65 -179 135 -239 383 -159
658 22 80 24 58 2 -33 -24 -100 -25 -253 -3 -338 83 -321 387 -446 695 -286
203 106 366 316 430 554 29 107 31 283 5 370 -41 136 -138 258 -241 304 -190
84 -419 31 -614 -143 -59 -54 -61 -55 -21 -12 88 93 223 175 335 202 70 17
160 17 228 -1z m-1348 -948 c4 -16 3 -33 -4 -40 -7 -9 -12 -105 -14 -278 -1
-145 -3 58 -3 451 0 630 0 666 6 305 4 -225 10 -422 15 -438z m2078 471 c4
-46 7 -295 7 -554 0 -366 -3 -474 -12 -481 -17 -13 -848 -232 -897 -237 -21
-2 -49 -7 -61 -11 l-22 -7 6 173 c10 254 6 240 76 267 272 106 502 431 527
745 3 43 10 80 14 83 10 6 331 102 345 103 7 1 14 -31 17 -81z m-1480 7 c-3
-9 -8 -14 -10 -11 -3 3 -2 9 2 15 9 16 15 13 8 -4z m-32 -72 c-12 -20 -14 -14
-5 12 4 9 9 14 11 11 3 -2 0 -13 -6 -23z m-518 -282 c22 -12 27 -21 27 -53 0
-42 -12 -48 -48 -22 -16 11 -22 25 -22 55 0 23 3 39 8 37 4 -2 19 -10 35 -17z
m437 -54 c0 -177 117 -375 264 -447 81 -40 192 -57 277 -43 35 6 66 9 68 7 2
-2 0 -94 -5 -206 l-9 -202 -50 -14 c-27 -8 -52 -18 -55 -22 -4 -7 -860 -240
-880 -240 -9 0 -19 951 -11 1045 l6 70 175 42 c222 52 220 52 220 10z m-410
-104 c0 -47 -5 -51 -38 -27 -17 12 -22 25 -22 60 l0 45 30 -18 c26 -15 30 -23
30 -60z m-39 -53 c18 -10 19 -27 19 -505 0 -272 -3 -495 -8 -495 -4 0 -17 6
-28 14 -20 15 -21 23 -23 505 -1 350 2 491 9 491 6 0 20 -5 31 -10z m-54 -712
c-3 -7 -5 -2 -5 12 0 14 2 19 5 13 2 -7 2 -19 0 -25z m0 -155 c-2 -21 -4 -6
-4 32 0 39 2 55 4 38 2 -18 2 -50 0 -70z m14 -123 c6 0 7 -5 4 -10 -13 -21
-25 2 -23 43 l1 42 4 -37 c2 -21 9 -38 14 -38z"/>
<path d="M2733 3242 c-19 -12 -103 -242 -88 -242 7 0 29 45 50 105 21 58 39
105 41 105 2 0 22 -37 45 -81 28 -57 44 -78 51 -71 14 14 -83 194 -99 184z"/>
<path d="M1242 2938 c-17 -22 -95 -229 -87 -236 9 -10 21 13 56 111 17 48 34
87 38 87 3 0 23 -34 45 -74 26 -49 43 -73 52 -69 10 4 2 27 -33 92 -55 103
-57 105 -71 89z"/>
<path d="M1500 2536 c-14 -14 -13 -25 3 -22 17 2 37 16 37 25 0 11 -28 9 -40
-3z"/>
<path d="M2770 1703 c-47 -128 -53 -143 -59 -143 -4 0 -23 34 -44 75 -25 52
-41 73 -51 69 -11 -4 -4 -25 31 -92 54 -102 55 -103 69 -94 9 6 94 217 94 235
0 4 -4 7 -9 7 -5 0 -19 -26 -31 -57z"/>
<path d="M1280 1333 c-47 -128 -53 -143 -59 -143 -4 0 -23 34 -44 75 -25 52
-41 73 -51 69 -11 -4 -4 -25 31 -92 54 -102 55 -103 69 -94 9 6 94 217 94 235
0 4 -4 7 -9 7 -5 0 -19 -26 -31 -57z"/>
</g>
</svg>
