<?xml version="1.0" standalone="no"?>
<!DOCTYPE svg PUBLIC "-//W3C//DTD SVG 20010904//EN"
 "http://www.w3.org/TR/2001/REC-SVG-20010904/DTD/svg10.dtd">
<svg version="1.0" xmlns="http://www.w3.org/2000/svg"
 width="692.000000pt" height="633.000000pt" viewBox="0 0 692.000000 633.000000"
 preserveAspectRatio="xMidYMid meet">

<g transform="translate(0.000000,633.000000) scale(0.100000,-0.100000)"
fill="#000000" stroke="none">
<path d="M1823 6178 c-153 -169 -153 -447 0 -615 11 -13 28 -23 38 -23 30 0
29 28 -3 67 -17 21 -45 67 -62 103 -28 59 -31 74 -31 160 0 86 3 101 31 160
17 36 45 82 62 103 32 39 33 67 3 67 -10 0 -27 -10 -38 -22z"/>
<path d="M2444 6185 c-4 -8 1 -25 10 -38 89 -121 110 -182 104 -301 -5 -90
-32 -162 -87 -230 -35 -44 -39 -64 -14 -73 22 -9 84 61 118 132 74 157 49 355
-60 483 -38 44 -62 53 -71 27z"/>
<path d="M2782 6192 c-10 -7 -12 -412 -10 -1993 l3 -1984 1988 0 1987 0 0
1984 c0 1090 -3 1987 -6 1992 -7 11 -3944 12 -3962 1z m3948 -1992 l0 -1970
-1302 0 c-717 0 -1603 3 -1970 7 l-668 6 0 1964 0 1963 1970 0 1970 0 0 -1970z"/>
<path d="M3540 5482 c-22 -12 -43 -35 -57 -63 -22 -43 -22 -47 -12 -224 8
-119 9 -275 3 -460 -11 -357 -11 -716 0 -1065 6 -182 5 -336 -3 -455 -10 -177
-10 -181 12 -225 43 -87 -70 -80 1277 -80 1122 0 1194 1 1223 17 51 30 71 66
75 137 2 36 -1 72 -7 82 -8 15 -10 1 -11 -62 0 -67 -4 -86 -21 -108 -47 -59
28 -56 -1254 -56 -1286 0 -1225 -3 -1262 58 -17 27 -18 98 -18 1229 0 1335 -5
1232 68 1267 32 15 139 16 1206 16 1277 0 1219 3 1258 -56 17 -26 18 -58 18
-439 0 -225 4 -509 8 -630 l9 -220 -24 40 c-13 22 -45 68 -71 102 l-47 61 0
185 c0 158 2 186 16 191 8 3 12 10 9 16 -4 6 5 10 19 10 l26 0 0 125 c0 120
-1 125 -21 125 -43 0 -49 20 -49 160 0 138 -10 179 -49 200 -13 7 -287 10
-809 10 -875 0 -802 6 -802 -66 l0 -34 -139 0 -140 0 -3 48 -3 47 -145 3 c-80
1 -155 0 -168 -3 -12 -3 -31 -20 -42 -38 -17 -28 -20 -50 -20 -165 0 -142 -6
-162 -49 -162 -20 0 -21 -5 -21 -125 l0 -125 25 0 c16 0 25 -6 25 -15 0 -8 5
-15 10 -15 7 0 10 -179 10 -516 0 -552 1 -544 -49 -544 -20 0 -21 -5 -21 -125
0 -120 1 -125 21 -125 43 0 49 -20 49 -162 0 -86 5 -142 13 -158 28 -57 1 -55
867 -50 l795 5 3 40 c2 22 9 43 15 47 7 4 67 8 134 8 135 0 143 -4 143 -69 l0
-31 128 -1 c70 -1 134 -1 142 0 23 3 65 36 68 55 2 10 -7 6 -27 -14 l-29 -30
-136 0 -135 0 -3 48 -3 47 -144 3 c-97 2 -148 -1 -157 -9 -8 -6 -14 -29 -14
-50 l0 -39 -795 0 -796 0 -24 25 c-24 23 -25 28 -25 170 0 122 2 145 15 145
13 0 15 23 15 145 0 122 -2 145 -15 145 -13 0 -15 65 -15 525 0 460 2 525 15
525 13 0 15 23 15 145 0 122 -2 145 -15 145 -13 0 -15 23 -15 144 0 198 -8
190 189 194 l150 3 3 -48 3 -48 155 0 155 0 3 48 3 47 790 -2 791 -3 19 -24
c17 -20 19 -40 19 -167 0 -121 -2 -144 -15 -144 -13 0 -15 -23 -15 -145 0
-122 2 -145 15 -145 13 0 15 -25 14 -167 l-1 -168 -23 70 c-18 51 -24 93 -24
156 -1 98 -15 140 -60 183 l-31 30 0 126 c0 85 -4 130 -12 138 -9 9 -106 12
-375 12 -356 0 -363 0 -363 20 0 16 -7 20 -34 20 -19 0 -41 3 -50 6 -13 5 -16
-2 -16 -42 l-1 -49 -13 30 c-22 50 -60 77 -113 82 -58 6 -108 -23 -135 -77
l-18 -35 0 45 0 45 -37 -1 c-31 -1 -39 -5 -41 -23 l-3 -21 -374 0 c-220 0
-376 -4 -380 -9 -3 -5 -5 -427 -5 -937 0 -737 2 -929 12 -936 7 -4 181 -8 386
-8 365 0 372 0 372 -20 0 -17 7 -20 45 -20 l45 0 1 38 c0 29 2 33 9 17 13 -33
55 -65 91 -71 51 -7 99 22 126 76 l22 45 1 -52 0 -53 45 0 c38 0 45 3 45 20 0
20 7 20 375 20 360 0 375 1 385 19 13 25 13 111 0 131 -7 10 -10 -7 -10 -56 0
-66 -2 -72 -22 -78 -13 -3 -182 -6 -375 -6 l-353 0 0 51 c0 64 -13 89 -46 89
-16 0 -34 10 -46 25 -24 31 -60 50 -111 59 -46 8 -119 -22 -144 -60 -10 -16
-25 -24 -43 -24 -34 0 -53 -39 -48 -97 l3 -38 -345 -3 c-190 -1 -360 0 -378 3
l-32 6 2 927 3 927 373 3 372 2 0 -44 c0 -48 27 -115 47 -116 7 0 25 -12 40
-26 42 -39 78 -54 131 -55 53 -2 124 28 144 61 8 12 24 20 39 20 42 0 59 28
59 98 l0 62 363 -2 362 -3 3 -124 c2 -115 1 -123 -15 -116 -30 12 -90 18 -117
11 -13 -3 -38 -18 -56 -32 -17 -15 -32 -25 -33 -23 -2 2 -8 16 -15 32 -24 57
-129 88 -176 52 -14 -10 -45 -15 -102 -15 -82 0 -108 -10 -85 -33 17 -17 182
-9 202 9 21 19 67 21 96 6 27 -15 48 -74 35 -99 -28 -52 -94 -72 -131 -40 -22
21 -199 28 -206 9 -10 -26 7 -32 88 -32 52 -1 91 -6 107 -15 14 -8 37 -14 51
-15 l27 0 -32 -77 c-17 -43 -38 -82 -46 -88 -8 -5 -55 -12 -105 -15 -82 -5
-90 -7 -90 -25 0 -19 5 -20 99 -16 l99 3 -6 -23 c-4 -13 -7 -37 -7 -52 l0 -28
-86 2 c-53 1 -89 -2 -97 -10 -20 -20 6 -30 93 -33 l84 -3 9 -44 c8 -41 7 -45
-22 -72 -50 -46 -35 -106 33 -129 28 -9 37 -20 54 -63 11 -29 23 -60 27 -69 7
-16 -1 -18 -87 -18 -103 0 -153 -12 -168 -40 -18 -33 -11 -79 15 -105 24 -24
28 -25 187 -25 l163 -1 42 -57 c36 -49 39 -57 23 -60 -22 -4 -46 -30 -36 -39
3 -4 12 1 19 11 22 30 54 12 132 -75 101 -111 115 -134 115 -191 0 -26 4 -49
9 -53 14 -8 1 105 -15 135 -7 14 -54 70 -103 125 -170 187 -284 374 -336 550
-35 118 -44 278 -21 385 29 140 120 289 220 362 47 34 71 35 137 7 52 -23 63
-39 27 -39 -36 -1 -100 -34 -135 -71 -56 -59 -77 -121 -77 -229 -1 -82 2 -102
24 -145 22 -45 29 -50 62 -53 71 -6 168 68 210 161 l22 47 16 -52 c22 -72 49
-121 106 -198 27 -36 67 -109 90 -162 47 -110 90 -188 104 -188 6 0 -3 21 -19
48 -65 107 -69 126 -75 387 -3 132 -9 321 -12 420 -4 105 -2 271 5 398 12 204
11 220 -6 255 -10 20 -33 47 -52 59 l-34 23 -1191 0 c-1132 0 -1193 -1 -1226
-18z m1264 -326 c97 -41 104 -176 10 -221 -52 -25 -101 -15 -141 30 -59 63
-38 156 41 191 40 17 49 17 90 0z m-195 -86 c-1 -60 3 -77 24 -109 33 -50 86
-75 145 -68 86 9 132 68 140 178 5 67 5 69 32 69 25 0 28 -4 34 -46 14 -106 5
-132 -49 -138 -14 -2 -33 -13 -42 -25 -20 -29 -88 -60 -131 -61 -43 0 -90 21
-127 56 -16 16 -33 29 -37 29 -23 1 -37 45 -38 113 0 70 1 72 25 72 24 0 25
-2 24 -70z m-989 -201 c0 -119 -2 -130 -17 -127 -16 3 -18 19 -21 131 -2 122
-2 127 18 127 19 0 20 -6 20 -131z m2298 4 c-3 -112 -5 -128 -20 -131 -16 -3
-18 8 -18 127 0 125 1 131 20 131 20 0 20 -5 18 -127z m-2350 0 c-2 -88 -6
-108 -18 -108 -12 0 -16 20 -18 108 -3 102 -2 107 18 107 20 0 21 -5 18 -107z
m2400 0 c-2 -88 -6 -108 -18 -108 -12 0 -16 20 -18 108 -3 102 -2 107 18 107
20 0 21 -5 18 -107z m-538 12 c16 -8 35 -25 41 -38 10 -19 8 -18 -14 5 -14 15
-38 30 -54 33 -44 10 -50 13 -25 14 13 1 36 -6 52 -14z m-96 -9 c-10 -8 -21
-12 -24 -10 -5 6 21 24 34 24 6 0 1 -6 -10 -14z m-71 -23 c-24 -2 -62 -2 -85
0 -24 2 -5 4 42 4 47 0 66 -2 43 -4z m224 -55 c-3 -8 -6 -5 -6 6 -1 11 2 17 5
13 3 -3 4 -12 1 -19z m317 -48 c18 -29 21 -51 20 -135 -1 -87 -4 -107 -26
-150 -46 -89 -137 -160 -196 -153 -42 5 -66 64 -70 170 -6 146 38 236 143 285
68 32 104 27 129 -17z m-574 -30 c-41 -4 -79 -4 -84 1 -6 5 26 8 75 8 l84 -2
-75 -7z m116 -27 c-6 -6 -36 9 -36 18 0 5 9 4 20 -3 10 -7 18 -14 16 -15z m47
-10 c-7 -2 -19 -2 -25 0 -7 3 -2 5 12 5 14 0 19 -2 13 -5z m-73 -208 c-10 -12
-32 -15 -99 -13 l-86 2 85 3 c47 2 89 8 94 13 16 16 20 12 6 -5z m-75 -145
c48 -7 48 -7 -27 -9 -46 0 -78 3 -78 9 0 11 33 12 105 0z m75 -145 c0 -2 -10
-9 -22 -15 -22 -11 -22 -10 -4 4 21 17 26 19 26 11z m16 -83 c-3 -3 -15 3 -26
13 -19 17 -19 19 -3 37 17 19 18 19 26 -12 4 -18 6 -35 3 -38z m2 -31 c-6 -2
-22 9 -37 24 l-26 27 36 -24 c20 -13 32 -25 27 -27z m101 -207 c6 -14 9 -29 6
-34 -9 -15 7 -41 31 -51 13 -4 24 -14 24 -20 0 -8 -46 -10 -156 -7 -150 3
-157 4 -175 27 -25 30 -24 66 1 91 18 18 33 20 138 20 118 0 119 0 131 -26z
m35 -60 c3 -8 2 -12 -4 -9 -6 3 -10 10 -10 16 0 14 7 11 14 -7z m-1854 -275
c0 -119 -2 -130 -17 -127 -16 3 -18 19 -21 131 -2 122 -2 127 18 127 19 0 20
-6 20 -131z m-50 6 c0 -98 -1 -105 -20 -105 -19 0 -20 7 -20 105 0 98 1 105
20 105 19 0 20 -7 20 -105z m1251 -109 c19 -8 46 -28 62 -45 16 -19 37 -31 52
-31 25 0 25 -1 25 -80 l0 -80 -30 0 -30 0 0 63 c0 110 -51 173 -139 171 -89
-1 -141 -67 -141 -179 0 -54 0 -55 -30 -55 l-30 0 0 73 c0 78 9 97 47 97 13 0
29 10 38 24 33 50 111 69 176 42z m25 -50 c20 -20 34 -44 34 -57 -1 -22 -2
-22 -14 6 -22 50 -52 70 -106 70 -40 0 -54 -5 -81 -30 -26 -25 -30 -26 -20 -8
16 32 59 52 110 53 36 0 49 -6 77 -34z m-52 0 c105 -44 79 -196 -33 -196 -93
0 -139 104 -76 170 15 16 37 31 49 33 11 2 22 5 24 6 1 0 18 -5 36 -13z"/>
<path d="M5196 3854 c-21 -21 -20 -40 3 -63 13 -13 27 -17 47 -13 l29 6 -34 6
c-43 6 -54 30 -14 31 l28 1 -30 7 c-33 7 -25 17 23 31 27 8 27 8 -5 9 -17 1
-39 -6 -47 -15z"/>
<path d="M5292 3828 l-2 -48 33 1 c29 2 29 2 5 6 -24 4 -27 10 -31 46 l-4 42
-1 -47z"/>
<path d="M5370 3825 c0 -25 5 -45 10 -45 6 0 10 7 10 17 0 14 2 14 20 -2 21
-19 28 -7 8 13 -9 9 -9 15 0 24 20 20 13 32 -8 13 -19 -18 -20 -17 -20 3 0 12
-4 22 -10 22 -5 0 -10 -20 -10 -45z"/>
<path d="M4096 5006 c-20 -35 -36 -67 -36 -70 0 -3 36 -6 81 -6 44 0 79 3 77
8 -14 32 -74 132 -79 132 -4 0 -23 -29 -43 -64z m77 -16 l28 -50 -60 0 c-34 0
-61 3 -61 6 0 10 52 94 58 94 4 0 20 -23 35 -50z"/>
<path d="M5336 5006 c-20 -35 -36 -67 -36 -70 0 -3 36 -6 81 -6 44 0 79 3 77
8 -14 32 -74 132 -80 132 -3 0 -22 -29 -42 -64z m77 -16 l28 -50 -60 0 c-34 0
-61 3 -61 6 0 10 52 94 58 94 4 0 20 -23 35 -50z"/>
<path d="M4068 4887 c-50 -42 -62 -101 -33 -157 27 -53 107 -77 158 -47 12 6
63 14 112 17 81 4 90 7 90 25 0 18 -6 19 -95 16 l-95 -2 0 51 0 51 95 -2 c89
-3 95 -2 95 16 0 18 -9 21 -90 25 -49 3 -100 11 -112 18 -35 20 -95 15 -125
-11z m62 3 c-19 -5 -47 -22 -62 -39 -29 -33 -35 -33 -18 -1 14 25 58 49 90 49
20 -1 17 -3 -10 -9z m79 -16 c18 -13 39 -15 91 -12 38 3 74 1 82 -3 8 -5 -21
-9 -69 -9 -65 0 -89 4 -115 20 -18 11 -28 20 -23 20 6 0 21 -7 34 -16z m-25
-10 c9 -3 16 -10 16 -15 0 -6 -8 -5 -19 1 -74 39 -147 -48 -91 -108 22 -24 59
-28 91 -12 13 7 19 7 19 1 0 -13 -47 -26 -75 -22 -60 9 -86 92 -43 138 21 23
67 30 102 17z m-4 -34 c26 -26 25 -54 -2 -80 -29 -27 -52 -25 -77 6 -27 35
-26 48 5 73 33 26 49 26 74 1z m-143 -52 c-3 -7 -5 -2 -5 12 0 14 2 19 5 13 2
-7 2 -19 0 -25z m100 -88 c15 0 43 9 61 20 26 16 48 20 115 18 l82 -2 -83 -3
c-60 -3 -92 -9 -115 -23 -18 -11 -42 -20 -55 -20 -31 0 -79 26 -92 49 -17 32
-12 31 24 -5 23 -23 43 -34 63 -34z"/>
<path d="M3910 4866 c-15 -19 -7 -20 20 -4 16 10 22 10 32 0 11 -11 9 -17 -9
-32 -22 -17 -22 -18 -3 -23 12 -3 20 -14 20 -26 0 -29 -29 -39 -46 -16 -8 10
-17 16 -20 12 -13 -13 19 -38 44 -35 31 4 48 29 37 54 -4 11 -8 33 -9 49 -1
24 -6 31 -27 33 -14 2 -31 -4 -39 -12z"/>
<path d="M5337 4832 c-36 -40 -9 -102 44 -102 39 0 62 23 62 60 0 55 -70 82
-106 42z"/>
<path d="M4920 4740 c-11 -11 -33 -20 -50 -20 -29 0 -30 -2 -30 -45 l0 -45
-120 0 -120 0 0 25 c0 24 -3 25 -54 25 -51 0 -53 -1 -48 -25 l4 -25 -141 0
-141 0 0 -455 0 -455 86 0 c54 0 83 4 79 10 -3 6 -37 10 -76 10 l-69 0 0 440
0 440 170 -2 170 -1 0 -179 0 -178 -23 4 c-42 7 -48 -5 -45 -90 l3 -79 33 -3
32 -3 0 -175 0 -174 -75 0 c-74 0 -105 -16 -42 -22 26 -2 32 -7 32 -28 0 -22
4 -24 50 -24 47 1 50 2 53 28 l3 27 117 -3 117 -3 3 -42 c3 -41 5 -43 35 -43
21 0 36 -7 45 -20 16 -25 63 -26 85 -2 15 17 17 71 17 569 0 520 -1 551 -18
566 -25 23 -58 21 -82 -3z m61 -1 c26 -13 15 -29 -21 -29 -35 0 -47 15 -23 29
23 13 21 13 44 0z m-81 -75 c0 -31 -3 -35 -22 -32 -18 2 -24 11 -26 36 -3 29
-1 32 22 32 23 0 26 -4 26 -36z m27 -46 c-2 -18 -4 -6 -4 27 0 33 2 48 4 33 2
-15 2 -42 0 -60z m53 27 c0 -48 -2 -55 -20 -55 -18 0 -20 7 -20 55 0 48 2 55
20 55 18 0 20 -7 20 -55z m-450 -1 c0 -8 -4 -14 -10 -14 -5 0 -10 9 -10 21 0
11 5 17 10 14 6 -3 10 -13 10 -21z m50 6 c0 -13 -7 -20 -20 -20 -13 0 -20 7
-20 20 0 13 7 20 20 20 13 0 20 -7 20 -20z m278 -36 c49 -6 52 -8 52 -35 0
-33 29 -53 66 -46 l24 4 0 -363 0 -364 -29 6 c-35 7 -71 -23 -71 -61 l0 -25
-150 0 -150 0 0 40 0 40 65 0 c53 0 65 -3 65 -16 0 -18 27 -16 111 9 l44 14
-60 17 c-33 9 -68 19 -77 22 -13 4 -18 0 -18 -15 0 -19 -6 -21 -65 -21 l-65 0
0 365 0 365 64 0 c55 0 65 -3 68 -18 3 -18 6 -18 76 1 40 11 70 22 68 24 -2 2
-26 10 -52 17 -27 7 -59 16 -71 20 -19 6 -23 4 -23 -13 0 -19 -6 -21 -65 -21
l-65 0 0 30 0 30 103 0 c56 0 126 -3 155 -6z m137 -43 c10 -17 -33 -33 -55
-21 -27 14 -16 30 20 30 16 0 31 -4 35 -9z m-415 -351 c0 -27 -3 -30 -30 -30
-25 0 -30 4 -30 23 0 13 3 27 7 30 3 4 17 7 30 7 19 0 23 -5 23 -30z m0 -86
c0 -33 -2 -35 -27 -32 -47 5 -45 68 2 68 22 0 25 -4 25 -36z m418 -351 c2 -9
-9 -13 -37 -13 -39 0 -50 8 -34 24 11 11 66 2 71 -11z m-18 -78 c0 -48 -2 -55
-20 -55 -17 0 -20 7 -20 48 0 51 5 62 27 62 9 0 13 -16 13 -55z m-450 -11 c0
-8 -4 -14 -10 -14 -5 0 -10 9 -10 21 0 11 5 17 10 14 6 -3 10 -13 10 -21z m50
6 c0 -13 -7 -20 -20 -20 -13 0 -20 7 -20 20 0 13 7 20 20 20 13 0 20 -7 20
-20z m320 -15 c0 -31 -3 -35 -25 -35 -22 0 -25 4 -25 35 0 31 3 35 25 35 22 0
25 -4 25 -35z m84 -51 c21 -8 2 -34 -24 -34 -24 0 -46 26 -28 33 19 8 34 8 52
1z"/>
<path d="M4717 4434 c-4 -4 -7 -124 -7 -266 0 -252 0 -258 20 -258 20 0 20 5
18 262 -3 248 -7 285 -31 262z m23 -265 c0 -159 -4 -249 -10 -249 -6 0 -10 92
-10 256 0 167 3 253 10 249 6 -4 10 -100 10 -256z"/>
<path d="M4797 4374 c-4 -4 -7 -99 -7 -211 0 -197 1 -203 20 -203 20 0 20 5
18 207 -3 194 -8 230 -31 207z m23 -209 c0 -123 -4 -195 -10 -195 -6 0 -10 72
-10 195 0 123 4 195 10 195 6 0 10 -72 10 -195z"/>
<path d="M4865 4298 c-3 -8 -4 -70 -3 -139 3 -116 4 -124 23 -124 19 0 20 7
20 135 0 120 -2 135 -18 138 -9 2 -19 -3 -22 -10z m22 -195 c-2 -38 -3 -7 -3
67 0 74 1 105 3 68 2 -38 2 -98 0 -135z"/>
<path d="M4934 4247 c-3 -8 -4 -47 -2 -88 2 -58 6 -74 18 -74 12 0 16 18 18
88 2 74 0 87 -13 87 -9 0 -18 -6 -21 -13z m26 -72 c0 -43 -4 -75 -10 -75 -11
0 -13 91 -4 128 11 38 14 25 14 -53z"/>
<path d="M3834 4560 c1 -49 3 -55 24 -58 37 -5 52 15 51 67 -2 31 -3 36 -6 16
-8 -67 -13 -76 -36 -73 -18 2 -23 11 -28 53 l-6 50 1 -55z"/>
<path d="M3941 4553 c1 -32 4 -48 6 -36 3 14 14 24 34 28 56 12 45 65 -12 65
-29 0 -29 -1 -28 -57z m57 25 c3 -13 -3 -18 -22 -18 -20 0 -26 5 -26 21 0 15
5 20 22 17 13 -2 24 -11 26 -20z"/>
<path d="M4305 4425 l-25 -24 0 -246 0 -246 25 -24 c19 -20 34 -25 74 -25 42
0 53 4 70 26 20 25 21 39 21 271 l0 244 -25 24 c-34 35 -106 35 -140 0z m46
-4 c-21 -4 -37 -14 -42 -26 -5 -14 -8 -15 -8 -4 -1 24 20 39 54 38 l30 -2 -34
-6z m89 -6 c7 -9 10 -18 6 -22 -3 -3 -6 -1 -6 6 0 6 -10 16 -22 21 -16 6 -18
9 -7 9 9 1 22 -6 29 -14z m-15 -260 l0 -250 -50 0 -50 0 -3 240 c-1 132 0 246
3 253 3 9 20 12 52 10 l48 -3 0 -250z m-91 -274 c-5 -6 -34 20 -34 30 0 5 8 1
18 -8 10 -10 17 -20 16 -22z m106 14 c-7 -8 -16 -15 -21 -15 -5 0 -1 8 9 18
20 22 31 19 12 -3z"/>
<path d="M4345 4361 c11 -4 22 -19 25 -32 9 -38 44 -32 48 9 l3 32 -48 -1
c-33 0 -42 -3 -28 -8z m63 -23 c-5 -32 -28 -35 -28 -4 0 17 5 26 16 26 10 0
14 -7 12 -22z"/>
<path d="M4348 4273 c27 -5 29 -29 2 -45 -11 -7 -20 -16 -20 -20 0 -5 9 -3 20
4 15 9 22 10 31 1 19 -19 39 -3 39 33 l0 34 -47 -1 c-27 -1 -38 -4 -25 -6z
m62 -28 c0 -16 -6 -25 -15 -25 -9 0 -15 9 -15 25 0 16 6 25 15 25 9 0 15 -9
15 -25z"/>
<path d="M4332 4153 c1 -37 1 -37 5 -5 5 39 30 43 36 5 l4 -28 2 28 c2 39 29
35 34 -5 4 -32 4 -32 5 5 l2 37 -45 0 -45 0 2 -37z"/>
<path d="M4334 4086 c-10 -26 1 -51 21 -51 12 0 21 9 25 23 6 26 23 31 28 8 2
-9 -1 -16 -7 -16 -6 0 -11 -4 -11 -10 0 -5 7 -7 16 -3 20 7 15 57 -7 61 -11 2
-20 -8 -27 -27 -6 -17 -16 -31 -21 -31 -15 0 -14 47 2 53 9 4 9 6 -1 6 -7 1
-15 -5 -18 -13z"/>
<path d="M4334 3996 c-10 -26 1 -51 21 -51 12 0 21 9 25 23 6 26 23 31 28 8 2
-9 -1 -16 -7 -16 -6 0 -11 -4 -11 -10 0 -5 7 -7 16 -3 20 7 15 57 -7 61 -11 2
-20 -8 -27 -27 -6 -17 -16 -31 -21 -31 -15 0 -14 47 2 53 9 4 9 6 -1 6 -7 1
-15 -5 -18 -13z"/>
<path d="M3902 4393 c-6 -27 -14 -58 -18 -70 -5 -17 -2 -23 10 -23 14 0 16
-26 16 -250 0 -160 4 -250 10 -250 6 0 10 90 10 250 0 216 2 250 15 250 8 0
15 3 15 6 0 17 -35 134 -40 134 -4 0 -12 -21 -18 -47z"/>
<path d="M5804 4250 c-74 -50 -95 -83 -93 -139 1 -23 2 -21 10 9 17 61 30 78
100 125 65 42 80 56 62 54 -5 0 -40 -22 -79 -49z"/>
<path d="M5927 4156 c-23 -50 -30 -56 -76 -73 -28 -10 -51 -21 -51 -25 0 -11
4 -10 63 16 47 21 56 29 76 76 30 70 20 76 -12 6z"/>
<path d="M4400 3730 c0 -5 5 -10 11 -10 5 0 7 5 4 10 -3 6 -8 10 -11 10 -2 0
-4 -4 -4 -10z"/>
<path d="M4104 3659 c-48 -14 -76 -51 -82 -108 -4 -47 -2 -53 30 -85 47 -47
94 -55 150 -26 34 18 55 21 117 18 70 -2 76 -1 76 17 0 19 -6 20 -95 17 -60
-3 -102 -9 -114 -18 -52 -36 -126 4 -126 68 0 73 73 111 131 69 26 -19 40 -21
117 -19 73 3 87 6 90 21 3 15 -6 17 -78 17 -48 0 -92 5 -108 14 -40 20 -74 25
-108 15z m92 -24 c13 -10 45 -14 102 -15 45 0 82 -4 82 -8 0 -14 -163 -1 -185
14 -23 16 -78 18 -106 4 -53 -29 -61 -121 -12 -160 30 -24 90 -27 119 -5 14
10 43 14 109 13 l90 -2 -89 -3 c-57 -3 -96 -9 -110 -18 -35 -25 -91 -19 -128
14 -28 25 -33 36 -33 76 0 40 5 51 33 76 37 33 94 39 128 14z"/>
<path d="M5325 3650 c-31 -16 -56 -20 -113 -19 -41 1 -78 -3 -84 -9 -22 -22 5
-32 87 -32 67 0 91 4 117 20 43 26 71 25 104 -4 21 -18 28 -32 28 -61 0 -66
-77 -108 -129 -71 -25 17 -200 32 -209 18 -3 -6 -4 -16 -1 -24 4 -10 23 -13
75 -10 56 3 81 0 120 -17 59 -25 72 -26 116 -5 43 20 64 59 64 117 0 48 -30
86 -83 106 -39 15 -47 14 -92 -9z m131 -34 c38 -38 44 -77 20 -124 -16 -31
-57 -57 -78 -49 -7 3 -4 6 9 6 32 1 73 56 73 98 0 72 -90 119 -153 79 -25 -16
-187 -29 -187 -15 0 5 37 9 83 9 56 1 88 5 101 15 11 8 37 15 59 15 31 0 46
-7 73 -34z m-141 -146 c3 -5 20 -14 38 -19 21 -6 25 -10 12 -10 -11 -1 -30 6
-41 14 -13 9 -53 15 -105 18 l-84 3 87 2 c48 1 90 -2 93 -8z"/>
<path d="M4110 3607 c-56 -28 -48 -110 13 -131 22 -8 33 -6 55 11 68 50 8 158
-68 120z m77 -33 c15 -24 15 -29 2 -53 -11 -20 -22 -26 -49 -26 -27 0 -38 6
-49 26 -13 24 -13 29 2 53 12 18 26 26 47 26 21 0 35 -8 47 -26z"/>
<path d="M5350 3607 c-35 -17 -48 -61 -30 -94 36 -63 122 -44 128 29 5 54 -49
90 -98 65z m72 -24 c37 -33 10 -93 -42 -93 -33 0 -52 21 -52 55 0 51 55 74 94
38z"/>
<path d="M3923 3553 c-18 -25 -30 -50 -27 -55 3 -4 18 -8 35 -8 21 0 29 -5 30
-17 0 -14 2 -15 6 -3 3 8 11 19 17 23 8 6 7 10 -1 14 -8 3 -13 23 -13 49 0 24
-3 44 -7 44 -5 0 -22 -21 -40 -47z m37 -18 c0 -20 -5 -25 -25 -25 -25 0 -25 1
-9 25 9 14 20 25 25 25 5 0 9 -11 9 -25z"/>
<path d="M5610 3579 c0 -8 -16 -29 -35 -46 -19 -17 -35 -36 -35 -42 0 -6 19
-11 45 -11 25 0 45 5 45 10 0 6 -14 10 -32 10 l-32 0 32 33 c23 24 29 36 22
47 -9 13 -10 13 -10 -1z"/>
<path d="M1892 6068 c-41 -59 -62 -128 -62 -198 0 -106 64 -240 115 -240 32 0
32 22 1 63 -49 65 -60 99 -60 177 0 78 11 112 60 177 31 41 31 63 -1 63 -17 0
-32 -12 -53 -42z"/>
<path d="M2354 6099 c-3 -6 8 -30 25 -54 81 -113 81 -237 0 -350 -17 -24 -28
-48 -25 -54 13 -21 45 -11 70 22 95 125 95 289 0 414 -25 33 -57 43 -70 22z"/>
<path d="M2100 6089 c-20 -6 -49 -20 -64 -33 l-29 -22 116 4 c135 5 161 1 183
-33 16 -25 16 -26 -95 -144 -90 -96 -108 -120 -94 -125 35 -10 234 10 244 25
19 29 31 96 25 139 -18 132 -159 225 -286 189z"/>
<path d="M1164 6016 c-33 -25 -12 -49 66 -76 100 -34 164 -73 226 -137 100
-103 148 -233 142 -385 -2 -71 0 -91 12 -98 22 -14 27 -12 44 12 21 30 21 180
0 262 -41 160 -157 302 -305 375 -100 49 -161 64 -185 47z"/>
<path d="M2048 6011 c-74 -7 -69 -4 -93 -50 -24 -47 -22 -137 3 -187 61 -119
205 -165 315 -101 25 15 48 31 52 36 3 6 -41 7 -108 4 -140 -7 -182 0 -204 33
l-16 25 113 114 c65 65 110 118 106 124 -7 11 -54 12 -168 2z"/>
<path d="M1124 5835 c-11 -27 6 -45 63 -65 150 -53 233 -170 233 -330 0 -66 3
-81 18 -89 70 -37 81 137 18 275 -49 107 -175 206 -280 220 -38 6 -47 4 -52
-11z"/>
<path d="M489 5641 c-86 -34 -149 -98 -149 -153 0 -13 11 -35 24 -47 35 -33
89 -30 164 8 75 38 140 41 191 10 49 -30 116 -87 141 -121 l22 -30 -24 12
c-12 7 -47 30 -76 52 -57 43 -95 47 -100 13 -2 -15 15 -35 63 -74 111 -91 92
-90 -41 0 -78 54 -114 63 -114 27 0 -14 22 -42 63 -80 34 -31 57 -57 51 -58
-7 0 -49 27 -95 59 -66 48 -86 58 -101 50 -28 -15 -22 -34 28 -81 25 -23 41
-44 35 -46 -14 -5 -108 45 -178 94 l-62 44 -96 0 c-74 0 -96 3 -92 13 5 14 31
105 47 164 l11 42 67 3 c64 3 67 4 67 28 0 25 -2 25 -86 28 -61 2 -89 -1 -96
-10 -6 -7 -30 -80 -52 -161 -33 -116 -39 -152 -30 -163 9 -11 40 -14 128 -14
l116 0 50 -36 c70 -50 183 -104 221 -104 17 0 38 8 48 19 14 15 22 17 56 8 45
-12 90 2 90 29 0 12 6 14 30 9 42 -9 66 1 80 35 7 16 23 36 36 45 18 12 24 24
24 52 0 32 -9 45 -81 115 -105 102 -143 122 -234 122 -59 0 -80 -5 -132 -32
-68 -35 -93 -40 -93 -18 0 25 69 75 127 92 68 20 154 14 290 -22 72 -19 119
-24 208 -24 63 0 115 -4 115 -9 0 -4 -4 -21 -9 -37 -6 -16 -19 -62 -31 -101
l-21 -73 -44 0 c-35 0 -47 -5 -55 -21 -19 -34 3 -49 76 -49 50 0 65 4 73 18
19 36 93 303 87 317 -4 12 -30 15 -140 15 -117 0 -150 4 -251 30 -140 36 -271
40 -346 11z"/>
<path d="M2816 2064 c-18 -17 -21 -34 -7 -34 5 0 14 7 21 15 20 25 54 15 58
-16 2 -20 -2 -28 -17 -32 -28 -7 -27 -25 2 -29 17 -2 23 -11 25 -35 3 -28 0
-33 -24 -39 -21 -5 -31 -2 -45 14 -21 27 -29 28 -29 2 0 -39 83 -55 113 -22
21 23 22 65 2 82 -11 9 -12 17 -5 30 22 42 -1 80 -50 80 -16 0 -36 -7 -44 -16z"/>
<path d="M3504 2072 c-33 -21 -45 -103 -23 -159 12 -33 26 -43 60 -43 44 0 64
33 64 105 0 48 -5 68 -19 84 -19 21 -61 28 -82 13z m66 -31 c5 -11 10 -41 10
-66 0 -25 -5 -55 -10 -66 -12 -21 -40 -25 -58 -7 -16 16 -16 130 0 146 18 18
46 14 58 -7z"/>
<path d="M3732 2028 c-5 -29 -8 -55 -6 -57 2 -2 16 1 30 8 34 15 62 6 70 -24
13 -53 -51 -92 -76 -45 -12 23 -30 27 -30 7 0 -23 35 -47 67 -47 58 0 89 67
52 114 -19 24 -27 27 -56 23 -37 -6 -36 -7 -23 27 8 22 16 26 50 26 22 0 40 5
40 10 0 6 -24 10 -54 10 l-53 0 -11 -52z"/>
<path d="M3278 2013 c-32 -14 -58 -31 -58 -38 0 -15 127 -72 137 -62 9 10 5
12 -57 39 l-54 24 57 23 c31 13 57 27 57 32 0 14 -21 10 -82 -18z"/>
<path d="M2970 2022 c0 -5 9 -17 20 -27 l20 -18 -20 -22 c-11 -12 -20 -24 -20
-28 0 -13 23 -7 42 10 17 15 19 15 36 0 19 -17 42 -23 42 -10 0 4 -9 16 -20
28 l-20 22 20 18 c11 10 20 22 20 27 0 13 -22 9 -42 -9 -17 -15 -19 -15 -36 0
-20 18 -42 22 -42 9z"/>
<path d="M3979 2009 c-18 -18 -19 -23 -7 -41 8 -11 29 -26 48 -32 42 -13 46
-40 7 -44 -18 -2 -29 2 -33 12 -7 17 -34 22 -34 7 0 -40 84 -55 116 -20 24 27
10 49 -44 69 -23 8 -42 20 -42 26 0 20 32 25 57 8 33 -21 44 -7 14 17 -30 25
-56 24 -82 -2z"/>
<path d="M3653 1864 c1 -32 2 -34 14 -18 17 24 17 54 -1 54 -10 0 -14 -11 -13
-36z"/>
<path d="M4082 1708 c-1 -71 -4 -128 -7 -128 -3 0 -18 8 -33 18 -25 16 -25 15
7 -26 l34 -42 28 32 c35 41 37 53 4 32 l-24 -16 -4 129 -3 128 -2 -127z"/>
<path d="M3904 1441 c-22 -10 -56 -37 -76 -61 -110 -128 -45 -325 120 -362 50
-11 61 -10 119 10 61 22 64 22 96 5 20 -11 55 -17 93 -18 51 0 69 5 111 31
l49 31 27 -23 c35 -30 101 -48 150 -40 41 7 111 39 122 56 4 6 19 0 39 -15 47
-36 128 -51 186 -35 61 17 134 89 150 150 27 99 -14 208 -96 256 -81 47 -179
42 -243 -12 -26 -22 -30 -22 -42 -7 -23 27 -91 53 -140 53 -33 0 -64 -9 -104
-30 -57 -30 -57 -30 -83 -11 -65 45 -173 52 -229 15 -23 -15 -28 -14 -73 5
-60 26 -122 26 -176 2z m169 -30 c148 -75 138 -291 -15 -356 -123 -51 -258 47
-258 188 0 63 55 146 115 173 44 19 115 17 158 -5z m293 -17 c160 -129 50
-387 -149 -350 -18 3 -42 12 -52 20 -18 13 -18 14 3 43 50 71 53 179 6 248
-13 20 -24 40 -24 45 0 17 56 29 117 27 52 -2 68 -8 99 -33z m309 2 c94 -72
109 -188 37 -285 -58 -78 -188 -93 -258 -29 -21 19 -21 19 -3 58 26 53 25 144
-1 195 -19 38 -20 41 -3 54 66 50 167 53 228 7z m296 14 c24 -13 52 -39 70
-68 27 -42 30 -53 27 -113 -3 -53 -9 -75 -32 -107 -53 -76 -156 -103 -237 -62
-50 26 -55 39 -33 82 11 21 17 55 17 93 0 38 -6 72 -17 93 -21 41 -16 56 26
82 44 27 126 27 179 0z"/>
<path d="M5200 1145 c0 -8 7 -15 15 -15 8 0 15 7 15 15 0 8 -7 15 -15 15 -8 0
-15 -7 -15 -15z"/>
<path d="M5300 1145 c0 -8 7 -15 15 -15 8 0 15 7 15 15 0 8 -7 15 -15 15 -8 0
-15 -7 -15 -15z"/>
<path d="M5400 1145 c0 -8 7 -15 15 -15 8 0 15 7 15 15 0 8 -7 15 -15 15 -8 0
-15 -7 -15 -15z"/>
<path d="M5430 944 l0 -126 -25 16 c-33 21 -31 9 4 -32 l28 -32 34 42 c32 41
33 42 6 25 l-27 -17 0 119 c0 69 -4 122 -10 126 -6 4 -10 -39 -10 -121z"/>
<path d="M5386 558 c-54 -15 -121 -84 -136 -140 -25 -93 7 -183 84 -235 123
-83 289 -6 312 144 15 101 -53 207 -148 231 -54 14 -59 14 -112 0z"/>
<path d="M5985 430 c-16 -16 -25 -33 -22 -37 4 -4 13 -1 19 5 23 23 28 11 28
-68 0 -47 4 -80 10 -80 6 0 10 42 10 105 0 58 -4 105 -8 105 -5 0 -21 -13 -37
-30z"/>
<path d="M5780 402 c0 -5 9 -17 20 -27 l20 -18 -22 -24 c-25 -27 -17 -44 10
-20 23 21 31 21 54 0 24 -21 36 -9 15 15 -10 10 -17 22 -17 27 0 5 7 17 17 27
21 24 9 36 -15 15 -23 -21 -36 -21 -52 -2 -14 16 -30 20 -30 7z"/>
<path d="M6199 389 c-18 -18 -19 -23 -7 -41 8 -11 29 -26 48 -32 42 -13 46
-40 7 -44 -18 -2 -29 2 -33 12 -7 17 -34 22 -34 7 0 -40 84 -55 116 -20 24 27
10 49 -44 69 -23 8 -42 20 -42 26 0 20 32 25 57 8 33 -21 44 -7 14 17 -30 25
-56 24 -82 -2z"/>
</g>
</svg>
